<svg width="493" height="236" viewBox="0 0 493 236" fill="none" xmlns="http://www.w3.org/2000/svg">
<g clip-path="url(#clip0_567_8521)">
<rect width="493" height="236" rx="9" fill="url(#paint0_linear_567_8521)"/>
<mask id="mask0_567_8521" style="mask-type:luminance" maskUnits="userSpaceOnUse" x="-76" y="-176" width="562" height="562">
<path d="M204.997 385.282C359.792 385.282 485.279 259.795 485.279 105C485.279 -49.7956 359.792 -175.282 204.997 -175.282C50.2014 -175.282 -75.2852 -49.7956 -75.2852 105C-75.2852 259.795 50.2014 385.282 204.997 385.282Z" fill="white"/>
</mask>
<g mask="url(#mask0_567_8521)">
<path d="M29.3437 227.561C57.7249 228.55 86.2473 228.409 114.629 227.279C122.677 226.997 130.725 226.573 138.774 226.149C140.468 226.008 142.304 225.443 143.292 223.89C143.998 222.761 143.716 221.349 142.163 221.49C113.781 223.184 85.4001 223.89 56.8777 223.467C48.8293 223.325 40.7809 223.184 32.7325 222.902C31.1793 222.902 29.2025 223.749 28.2141 225.161C27.3669 226.432 27.7905 227.561 29.3437 227.561Z" fill="#49588C" fill-opacity="0.2"/>
</g>
<mask id="mask1_567_8521" style="mask-type:luminance" maskUnits="userSpaceOnUse" x="-76" y="-176" width="562" height="562">
<path d="M204.997 385.282C359.792 385.282 485.279 259.795 485.279 105C485.279 -49.7956 359.792 -175.282 204.997 -175.282C50.2014 -175.282 -75.2852 -49.7956 -75.2852 105C-75.2852 259.795 50.2014 385.282 204.997 385.282Z" fill="white"/>
</mask>
<g mask="url(#mask1_567_8521)">
<path d="M173.509 208.499C164.755 229.115 158.542 250.718 155.012 272.745C154.024 279.099 153.177 285.453 152.753 291.949C152.471 294.49 159.107 297.032 159.389 293.925C161.225 271.898 165.884 250.153 173.086 229.256C175.204 223.325 177.463 217.395 179.863 211.606C180.993 209.064 174.639 205.958 173.509 208.499Z" fill="#49588C" fill-opacity="0.2"/>
</g>
<mask id="mask2_567_8521" style="mask-type:luminance" maskUnits="userSpaceOnUse" x="-76" y="-176" width="562" height="562">
<path d="M204.997 385.282C359.792 385.282 485.279 259.795 485.279 105C485.279 -49.7956 359.792 -175.282 204.997 -175.282C50.2014 -175.282 -75.2852 -49.7956 -75.2852 105C-75.2852 259.795 50.2014 385.282 204.997 385.282Z" fill="white"/>
</mask>
<g mask="url(#mask2_567_8521)">
<path d="M195.679 217.536C190.173 231.091 185.795 245.07 182.971 259.331C182.689 261.026 189.608 262.155 190.031 260.32C192.997 246.059 197.233 232.08 202.739 218.525C203.304 217.254 196.527 215.559 195.679 217.536Z" fill="#49588C" fill-opacity="0.2"/>
</g>
<mask id="mask3_567_8521" style="mask-type:luminance" maskUnits="userSpaceOnUse" x="-76" y="-176" width="562" height="562">
<path d="M204.997 385.282C359.792 385.282 485.279 259.795 485.279 105C485.279 -49.7956 359.792 -175.282 204.997 -175.282C50.2014 -175.282 -75.2852 -49.7956 -75.2852 105C-75.2852 259.795 50.2014 385.282 204.997 385.282Z" fill="white"/>
</mask>
<g mask="url(#mask3_567_8521)">
<path d="M216.997 219.231C212.196 237.587 207.537 255.943 202.736 274.299C202.03 277.123 208.949 276.558 209.655 274.016C214.456 255.66 219.115 237.304 223.916 218.948C224.481 216.124 217.562 216.689 216.997 219.231Z" fill="#49588C" fill-opacity="0.2"/>
</g>
<mask id="mask4_567_8521" style="mask-type:luminance" maskUnits="userSpaceOnUse" x="-76" y="-176" width="562" height="562">
<path d="M204.997 385.282C359.792 385.282 485.279 259.795 485.279 105C485.279 -49.7956 359.792 -175.282 204.997 -175.282C50.2014 -175.282 -75.2852 -49.7956 -75.2852 105C-75.2852 259.795 50.2014 385.282 204.997 385.282Z" fill="white"/>
</mask>
<g mask="url(#mask4_567_8521)">
<path d="M319.227 230.103C314.709 247.33 312.45 265.121 312.309 282.912C312.309 284.324 313.579 286.16 314.427 287.289C314.85 287.854 316.262 289.125 316.262 287.713C316.403 270.204 318.804 252.695 323.181 235.751C323.463 234.48 322.193 232.645 321.487 231.656C321.345 231.233 319.51 228.974 319.227 230.103Z" fill="#49588C" fill-opacity="0.2"/>
</g>
<mask id="mask5_567_8521" style="mask-type:luminance" maskUnits="userSpaceOnUse" x="-76" y="-176" width="562" height="562">
<path d="M204.997 385.282C359.792 385.282 485.279 259.795 485.279 105C485.279 -49.7956 359.792 -175.282 204.997 -175.282C50.2014 -175.282 -75.2852 -49.7956 -75.2852 105C-75.2852 259.795 50.2014 385.282 204.997 385.282Z" fill="white"/>
</mask>
<g mask="url(#mask5_567_8521)">
<path d="M334.761 226.432C334.196 242.105 333.631 257.919 333.066 273.593C333.066 275.287 333.914 276.981 335.184 277.97C335.89 278.535 337.726 279.382 337.867 277.687C338.432 262.014 338.997 246.2 339.562 230.527C339.562 228.832 338.714 227.138 337.444 226.149C336.596 225.585 334.761 224.737 334.761 226.432Z" fill="#49588C" fill-opacity="0.2"/>
</g>
<mask id="mask6_567_8521" style="mask-type:luminance" maskUnits="userSpaceOnUse" x="-76" y="-176" width="562" height="562">
<path d="M204.997 385.282C359.792 385.282 485.279 259.795 485.279 105C485.279 -49.7956 359.792 -175.282 204.997 -175.282C50.2014 -175.282 -75.2852 -49.7956 -75.2852 105C-75.2852 259.795 50.2014 385.282 204.997 385.282Z" fill="white"/>
</mask>
<g mask="url(#mask6_567_8521)">
<path d="M350.856 227.42C348.879 242.388 347.043 257.355 345.067 272.322C344.502 276.275 351.279 277.546 351.844 273.169C353.821 258.202 355.657 243.235 357.633 228.267C358.198 224.173 351.421 223.043 350.856 227.42Z" fill="#49588C" fill-opacity="0.2"/>
</g>
<mask id="mask7_567_8521" style="mask-type:luminance" maskUnits="userSpaceOnUse" x="-76" y="-176" width="562" height="562">
<path d="M204.997 385.282C359.792 385.282 485.279 259.795 485.279 105C485.279 -49.7956 359.792 -175.282 204.997 -175.282C50.2014 -175.282 -75.2852 -49.7956 -75.2852 105C-75.2852 259.795 50.2014 385.282 204.997 385.282Z" fill="white"/>
</mask>
<g mask="url(#mask7_567_8521)">
<path d="M52.5018 164.445C52.2194 178 51.937 191.414 51.6546 204.969C51.5134 208.499 58.1498 210.476 58.291 206.24C58.5734 192.685 58.8558 179.271 59.1382 165.716C59.1382 162.327 52.5018 160.35 52.5018 164.445Z" fill="#49588C" fill-opacity="0.2"/>
</g>
<mask id="mask8_567_8521" style="mask-type:luminance" maskUnits="userSpaceOnUse" x="-76" y="-176" width="562" height="562">
<path d="M204.997 385.282C359.792 385.282 485.279 259.795 485.279 105C485.279 -49.7956 359.792 -175.282 204.997 -175.282C50.2014 -175.282 -75.2852 -49.7956 -75.2852 105C-75.2852 259.795 50.2014 385.282 204.997 385.282Z" fill="white"/>
</mask>
<g mask="url(#mask8_567_8521)">
<path d="M76.0803 145.383C73.3975 163.457 71.8443 181.672 71.7031 199.886C71.7031 201.44 72.8327 203.134 73.9623 204.122C74.6683 204.687 76.3627 205.534 76.3627 203.981C76.5039 185.766 77.9159 167.552 80.7399 149.478C81.1635 147.501 76.5039 142.559 76.0803 145.383Z" fill="#49588C" fill-opacity="0.2"/>
</g>
<mask id="mask9_567_8521" style="mask-type:luminance" maskUnits="userSpaceOnUse" x="-76" y="-176" width="562" height="562">
<path d="M204.997 385.282C359.792 385.282 485.279 259.795 485.279 105C485.279 -49.7956 359.792 -175.282 204.997 -175.282C50.2014 -175.282 -75.2852 -49.7956 -75.2852 105C-75.2852 259.795 50.2014 385.282 204.997 385.282Z" fill="white"/>
</mask>
<g mask="url(#mask9_567_8521)">
<path d="M99.241 140.159C97.123 163.457 95.005 186.755 92.887 210.053C92.7458 211.747 93.4517 213.442 94.7225 214.571C95.4285 215.277 97.4053 216.124 97.5465 214.43C99.6645 191.132 101.783 167.834 103.901 144.536C104.042 142.842 103.336 141.147 102.065 140.018C101.359 139.453 99.3822 138.464 99.241 140.159Z" fill="#49588C" fill-opacity="0.2"/>
</g>
<mask id="mask10_567_8521" style="mask-type:luminance" maskUnits="userSpaceOnUse" x="-76" y="-176" width="562" height="562">
<path d="M204.997 385.282C359.792 385.282 485.279 259.795 485.279 105C485.279 -49.7956 359.792 -175.282 204.997 -175.282C50.2014 -175.282 -75.2852 -49.7956 -75.2852 105C-75.2852 259.795 50.2014 385.282 204.997 385.282Z" fill="white"/>
</mask>
<g mask="url(#mask10_567_8521)">
<path d="M-23.8873 175.035C0.681461 172.635 25.3915 172.211 50.1015 173.623C51.5135 173.764 49.6779 172.493 49.3955 172.211C48.2659 171.505 46.4303 170.375 45.0183 170.234C20.0259 168.822 -4.96654 169.246 -29.8177 171.646C-30.6649 171.787 -28.1233 173.341 -27.9821 173.482C-26.8525 174.047 -25.2993 175.176 -23.8873 175.035Z" fill="#49588C" fill-opacity="0.2"/>
</g>
<mask id="mask11_567_8521" style="mask-type:luminance" maskUnits="userSpaceOnUse" x="-76" y="-176" width="562" height="562">
<path d="M204.997 385.282C359.792 385.282 485.279 259.795 485.279 105C485.279 -49.7956 359.792 -175.282 204.997 -175.282C50.2014 -175.282 -75.2852 -49.7956 -75.2852 105C-75.2852 259.795 50.2014 385.282 204.997 385.282Z" fill="white"/>
</mask>
<g mask="url(#mask11_567_8521)">
<path d="M-23.0391 195.509C-2.84751 194.238 17.2029 192.967 37.3945 191.697C39.2301 191.555 36.1237 185.625 34.1469 185.625C13.9553 186.896 -6.09511 188.167 -26.2867 189.437C-28.1223 189.579 -25.0159 195.65 -23.0391 195.509Z" fill="#49588C" fill-opacity="0.2"/>
</g>
<mask id="mask12_567_8521" style="mask-type:luminance" maskUnits="userSpaceOnUse" x="-76" y="-176" width="562" height="562">
<path d="M204.997 385.282C359.792 385.282 485.279 259.795 485.279 105C485.279 -49.7956 359.792 -175.282 204.997 -175.282C50.2014 -175.282 -75.2852 -49.7956 -75.2852 105C-75.2852 259.795 50.2014 385.282 204.997 385.282Z" fill="white"/>
</mask>
<g mask="url(#mask12_567_8521)">
<path d="M-14.285 208.782C-7.0838 209.629 0.117406 209.77 7.31861 209.488C9.01301 209.347 10.7074 207.935 10.5662 206.24C10.425 204.405 8.4482 203.557 6.7538 203.557C-0.0237966 203.981 -6.0954 203.699 -12.873 202.993C-14.5674 202.851 -16.5442 203.699 -16.9678 205.534C-17.5326 207.087 -15.9794 208.499 -14.285 208.782Z" fill="#49588C" fill-opacity="0.2"/>
</g>
<mask id="mask13_567_8521" style="mask-type:luminance" maskUnits="userSpaceOnUse" x="-76" y="-176" width="562" height="562">
<path d="M204.997 385.282C359.792 385.282 485.279 259.795 485.279 105C485.279 -49.7956 359.792 -175.282 204.997 -175.282C50.2014 -175.282 -75.2852 -49.7956 -75.2852 105C-75.2852 259.795 50.2014 385.282 204.997 385.282Z" fill="white"/>
</mask>
<g mask="url(#mask13_567_8521)">
<path d="M5.9055 214.571C0.257497 240.552 -5.5317 266.533 -11.1797 292.655C-11.4621 293.643 -9.6265 294.914 -8.9205 295.479C-8.7793 295.62 -5.8141 297.597 -5.6729 297.032C-0.0248981 271.051 5.7643 245.07 11.4123 218.948C11.6947 217.96 9.8591 216.689 9.1531 216.124C9.0119 215.983 6.0467 214.006 5.9055 214.571Z" fill="#49588C" fill-opacity="0.2"/>
</g>
<mask id="mask14_567_8521" style="mask-type:luminance" maskUnits="userSpaceOnUse" x="-76" y="-176" width="562" height="562">
<path d="M204.997 385.282C359.792 385.282 485.279 259.795 485.279 105C485.279 -49.7956 359.792 -175.282 204.997 -175.282C50.2014 -175.282 -75.2852 -49.7956 -75.2852 105C-75.2852 259.795 50.2014 385.282 204.997 385.282Z" fill="white"/>
</mask>
<g mask="url(#mask14_567_8521)">
<path d="M119.853 133.805C120.418 155.691 119.712 177.577 117.735 199.321C117.594 201.298 123.242 204.828 123.383 203.134C125.36 181.389 126.207 159.503 125.501 137.617C125.501 136.205 123.807 134.934 122.818 134.087C122.253 133.946 119.712 132.393 119.853 133.805Z" fill="#49588C" fill-opacity="0.2"/>
</g>
<mask id="mask15_567_8521" style="mask-type:luminance" maskUnits="userSpaceOnUse" x="-76" y="-176" width="562" height="562">
<path d="M204.997 385.282C359.792 385.282 485.279 259.795 485.279 105C485.279 -49.7956 359.792 -175.282 204.997 -175.282C50.2014 -175.282 -75.2852 -49.7956 -75.2852 105C-75.2852 259.795 50.2014 385.282 204.997 385.282Z" fill="white"/>
</mask>
<g mask="url(#mask15_567_8521)">
<path d="M155.436 165.998C180.146 167.975 204.856 170.093 229.425 172.635C236.344 173.341 243.404 174.047 250.322 174.894C254.417 175.317 253.005 168.681 249.616 168.257C225.048 165.575 200.338 163.174 175.628 161.056C168.709 160.491 161.649 159.927 154.589 159.362C150.635 159.079 152.047 165.857 155.436 165.998Z" fill="#49588C" fill-opacity="0.2"/>
</g>
<mask id="mask16_567_8521" style="mask-type:luminance" maskUnits="userSpaceOnUse" x="-76" y="-176" width="562" height="562">
<path d="M204.997 385.282C359.792 385.282 485.279 259.795 485.279 105C485.279 -49.7956 359.792 -175.282 204.997 -175.282C50.2014 -175.282 -75.2852 -49.7956 -75.2852 105C-75.2852 259.795 50.2014 385.282 204.997 385.282Z" fill="white"/>
</mask>
<g mask="url(#mask16_567_8521)">
<path d="M171.818 183.648C195.398 183.225 218.978 184.495 242.276 187.602C249.054 188.449 255.69 189.579 262.327 190.708C263.88 190.991 262.75 189.014 262.327 188.449C261.338 187.178 259.785 186.19 258.232 185.907C235.075 181.813 211.495 179.412 188.056 178.847C181.278 178.706 174.5 178.706 167.723 178.847C166.17 178.847 167.017 180.401 167.723 181.107C168.57 182.236 170.406 183.648 171.818 183.648Z" fill="#49588C" fill-opacity="0.2"/>
</g>
<mask id="mask17_567_8521" style="mask-type:luminance" maskUnits="userSpaceOnUse" x="-76" y="-176" width="562" height="562">
<path d="M204.997 385.282C359.792 385.282 485.279 259.795 485.279 105C485.279 -49.7956 359.792 -175.282 204.997 -175.282C50.2014 -175.282 -75.2852 -49.7956 -75.2852 105C-75.2852 259.795 50.2014 385.282 204.997 385.282Z" fill="white"/>
</mask>
<g mask="url(#mask17_567_8521)">
<path d="M159.955 194.38C189.889 193.815 219.965 194.38 249.899 195.933C251.594 196.074 253.429 195.509 254.559 194.238C255.406 193.25 255.124 191.697 253.57 191.697C229.849 190.426 206.268 189.72 182.547 189.861C175.769 189.861 168.992 190.002 162.214 190.144C160.802 190.144 158.543 190.991 157.978 192.544C157.131 193.815 158.684 194.38 159.955 194.38Z" fill="#49588C" fill-opacity="0.2"/>
</g>
<mask id="mask18_567_8521" style="mask-type:luminance" maskUnits="userSpaceOnUse" x="-76" y="-176" width="562" height="562">
<path d="M204.997 385.282C359.792 385.282 485.279 259.795 485.279 105C485.279 -49.7956 359.792 -175.282 204.997 -175.282C50.2014 -175.282 -75.2852 -49.7956 -75.2852 105C-75.2852 259.795 50.2014 385.282 204.997 385.282Z" fill="white"/>
</mask>
<g mask="url(#mask18_567_8521)">
<path d="M148.516 142.418C181.416 144.818 214.033 148.913 246.509 154.702C255.546 156.397 264.583 158.091 273.62 160.068C274.467 160.209 273.478 157.809 273.337 157.526C273.055 156.679 272.066 153.996 270.937 153.855C238.743 147.077 206.126 141.994 173.368 138.605C164.048 137.617 154.729 136.911 145.41 136.205C144.845 136.205 146.257 139.453 146.398 139.735C146.681 140.3 147.528 142.277 148.516 142.418Z" fill="#49588C" fill-opacity="0.2"/>
</g>
<mask id="mask19_567_8521" style="mask-type:luminance" maskUnits="userSpaceOnUse" x="-76" y="-176" width="562" height="562">
<path d="M204.997 385.282C359.792 385.282 485.279 259.795 485.279 105C485.279 -49.7956 359.792 -175.282 204.997 -175.282C50.2014 -175.282 -75.2852 -49.7956 -75.2852 105C-75.2852 259.795 50.2014 385.282 204.997 385.282Z" fill="white"/>
</mask>
<g mask="url(#mask19_567_8521)">
<path d="M280.539 149.76C275.315 178.706 272.067 208.076 270.938 237.445C270.938 239.14 271.502 241.117 273.197 241.823C274.467 242.529 276.303 241.823 276.444 240.128C277.574 210.759 280.68 181.389 286.046 152.443C286.328 150.749 285.199 148.772 283.787 148.066C282.233 147.36 280.821 148.207 280.539 149.76Z" fill="#49588C" fill-opacity="0.2"/>
</g>
<mask id="mask20_567_8521" style="mask-type:luminance" maskUnits="userSpaceOnUse" x="-76" y="-176" width="562" height="562">
<path d="M204.997 385.282C359.792 385.282 485.279 259.795 485.279 105C485.279 -49.7956 359.792 -175.282 204.997 -175.282C50.2014 -175.282 -75.2852 -49.7956 -75.2852 105C-75.2852 259.795 50.2014 385.282 204.997 385.282Z" fill="white"/>
</mask>
<g mask="url(#mask20_567_8521)">
<path d="M313.298 146.513C301.154 170.94 292.965 197.345 289.435 224.314C289.011 227.279 295.93 226.291 296.354 223.749C299.884 197.062 307.791 171.081 319.793 146.936C321.205 143.971 314.286 144.253 313.298 146.513Z" fill="#49588C" fill-opacity="0.2"/>
</g>
<mask id="mask21_567_8521" style="mask-type:luminance" maskUnits="userSpaceOnUse" x="-76" y="-176" width="562" height="562">
<path d="M204.997 385.282C359.792 385.282 485.279 259.795 485.279 105C485.279 -49.7956 359.792 -175.282 204.997 -175.282C50.2014 -175.282 -75.2852 -49.7956 -75.2852 105C-75.2852 259.795 50.2014 385.282 204.997 385.282Z" fill="white"/>
</mask>
<g mask="url(#mask21_567_8521)">
<path d="M322.192 152.584C313.438 175.741 306.802 199.604 302.001 223.89C301.295 227.279 308.355 227.138 308.92 224.173C313.579 199.886 320.357 176.023 329.111 152.867C329.676 151.313 327.417 150.466 326.287 150.325C324.593 150.325 322.757 151.031 322.192 152.584Z" fill="#49588C" fill-opacity="0.2"/>
</g>
<mask id="mask22_567_8521" style="mask-type:luminance" maskUnits="userSpaceOnUse" x="-76" y="-176" width="562" height="562">
<path d="M204.997 385.282C359.792 385.282 485.279 259.795 485.279 105C485.279 -49.7956 359.792 -175.282 204.997 -175.282C50.2014 -175.282 -75.2852 -49.7956 -75.2852 105C-75.2852 259.795 50.2014 385.282 204.997 385.282Z" fill="white"/>
</mask>
<g mask="url(#mask22_567_8521)">
<path d="M328.689 180.542C341.962 180.259 355.376 180.542 368.649 181.389C370.202 181.53 371.896 181.107 373.45 180.824C373.732 180.683 375.991 180.118 374.579 180.118C360.883 179.271 347.186 179.13 333.49 179.271C331.796 179.271 330.101 179.553 328.548 180.118C327.56 180.259 327.418 180.683 328.689 180.542Z" fill="#49588C" fill-opacity="0.2"/>
</g>
<mask id="mask23_567_8521" style="mask-type:luminance" maskUnits="userSpaceOnUse" x="-76" y="-176" width="562" height="562">
<path d="M204.997 385.282C359.792 385.282 485.279 259.795 485.279 105C485.279 -49.7956 359.792 -175.282 204.997 -175.282C50.2014 -175.282 -75.2852 -49.7956 -75.2852 105C-75.2852 259.795 50.2014 385.282 204.997 385.282Z" fill="white"/>
</mask>
<g mask="url(#mask23_567_8521)">
<path d="M333.913 205.675C349.869 203.84 365.825 203.416 381.78 204.546C383.192 204.687 381.78 201.863 381.498 201.439C380.651 200.169 379.38 198.898 377.827 198.898C361.871 197.909 345.774 198.333 329.96 200.027C327.983 200.31 331.795 205.958 333.913 205.675Z" fill="#49588C" fill-opacity="0.2"/>
</g>
<mask id="mask24_567_8521" style="mask-type:luminance" maskUnits="userSpaceOnUse" x="-76" y="-176" width="562" height="562">
<path d="M204.997 385.282C359.792 385.282 485.279 259.795 485.279 105C485.279 -49.7956 359.792 -175.282 204.997 -175.282C50.2014 -175.282 -75.2852 -49.7956 -75.2852 105C-75.2852 259.795 50.2014 385.282 204.997 385.282Z" fill="white"/>
</mask>
<g mask="url(#mask24_567_8521)">
<path d="M324.875 220.36C353.539 219.231 382.344 219.372 411.007 220.784C412.56 220.925 412.137 218.948 411.572 218.242C410.725 216.972 409.172 215.701 407.477 215.559C378.814 214.147 350.009 214.006 321.345 215.136C319.792 215.136 320.216 216.83 320.78 217.677C321.486 218.807 323.322 220.36 324.875 220.36Z" fill="#49588C" fill-opacity="0.2"/>
</g>
<mask id="mask25_567_8521" style="mask-type:luminance" maskUnits="userSpaceOnUse" x="-76" y="-176" width="562" height="562">
<path d="M204.997 385.282C359.792 385.282 485.279 259.795 485.279 105C485.279 -49.7956 359.792 -175.282 204.997 -175.282C50.2014 -175.282 -75.2852 -49.7956 -75.2852 105C-75.2852 259.795 50.2014 385.282 204.997 385.282Z" fill="white"/>
</mask>
<g mask="url(#mask25_567_8521)">
<path d="M375.566 238.999C391.522 238.01 407.477 236.881 423.433 235.892C424.563 235.892 425.833 235.186 424.845 234.057C423.857 232.927 421.456 232.927 420.044 233.068C404.089 234.057 388.133 235.186 372.177 236.175C371.048 236.175 369.777 236.881 370.765 238.01C371.754 239.14 374.154 238.999 375.566 238.999Z" fill="#49588C" fill-opacity="0.2"/>
</g>
<mask id="mask26_567_8521" style="mask-type:luminance" maskUnits="userSpaceOnUse" x="-76" y="-176" width="562" height="562">
<path d="M204.997 385.282C359.792 385.282 485.279 259.795 485.279 105C485.279 -49.7956 359.792 -175.282 204.997 -175.282C50.2014 -175.282 -75.2852 -49.7956 -75.2852 105C-75.2852 259.795 50.2014 385.282 204.997 385.282Z" fill="white"/>
</mask>
<g mask="url(#mask26_567_8521)">
<path d="M394.771 161.197C393.359 181.389 393.501 201.581 395.195 221.631C395.336 223.325 396.748 224.455 398.443 224.596C399.713 224.737 402.396 224.031 402.114 222.196C400.278 202.145 400.137 181.954 401.69 161.762C401.973 158.232 394.913 157.667 394.771 161.197Z" fill="#49588C" fill-opacity="0.2"/>
</g>
<mask id="mask27_567_8521" style="mask-type:luminance" maskUnits="userSpaceOnUse" x="-76" y="-176" width="562" height="562">
<path d="M204.997 385.282C359.792 385.282 485.279 259.795 485.279 105C485.279 -49.7956 359.792 -175.282 204.997 -175.282C50.2014 -175.282 -75.2852 -49.7956 -75.2852 105C-75.2852 259.795 50.2014 385.282 204.997 385.282Z" fill="white"/>
</mask>
<g mask="url(#mask27_567_8521)">
<path d="M418.21 151.596C416.233 169.952 415.527 188.449 415.81 206.805C415.81 208.076 417.504 209.629 418.21 210.476C418.351 210.759 420.469 212.594 420.469 211.888C420.046 193.391 420.893 175.035 422.87 156.679C423.011 155.549 421.175 153.855 420.469 153.008C420.187 152.725 418.21 150.89 418.21 151.596Z" fill="#49588C" fill-opacity="0.2"/>
</g>
<mask id="mask28_567_8521" style="mask-type:luminance" maskUnits="userSpaceOnUse" x="-76" y="-176" width="562" height="562">
<path d="M204.997 385.282C359.792 385.282 485.279 259.795 485.279 105C485.279 -49.7956 359.792 -175.282 204.997 -175.282C50.2014 -175.282 -75.2852 -49.7956 -75.2852 105C-75.2852 259.795 50.2014 385.282 204.997 385.282Z" fill="white"/>
</mask>
<g mask="url(#mask28_567_8521)">
<path d="M432.189 153.29C431.624 174.612 431.059 196.074 430.635 217.395C430.494 220.643 436.425 223.326 436.566 218.948C437.131 197.627 437.695 176.165 438.119 154.844C438.119 151.596 432.189 148.913 432.189 153.29Z" fill="#49588C" fill-opacity="0.2"/>
</g>
<mask id="mask29_567_8521" style="mask-type:luminance" maskUnits="userSpaceOnUse" x="-76" y="-176" width="562" height="562">
<path d="M204.997 385.282C359.792 385.282 485.279 259.795 485.279 105C485.279 -49.7956 359.792 -175.282 204.997 -175.282C50.2014 -175.282 -75.2852 -49.7956 -75.2852 105C-75.2852 259.795 50.2014 385.282 204.997 385.282Z" fill="white"/>
</mask>
<g mask="url(#mask29_567_8521)">
<path d="M454.919 168.257C477.088 167.975 499.256 166.422 521.142 163.598C522.413 163.457 524.248 162.751 523.825 161.056C523.401 159.503 521.001 158.938 519.589 159.079C497.562 161.903 475.534 163.457 453.366 163.739C452.095 163.739 450.26 164.728 450.683 166.281C451.248 167.975 453.648 168.257 454.919 168.257Z" fill="#49588C" fill-opacity="0.2"/>
</g>
<mask id="mask30_567_8521" style="mask-type:luminance" maskUnits="userSpaceOnUse" x="-76" y="-176" width="562" height="562">
<path d="M204.997 385.282C359.792 385.282 485.279 259.795 485.279 105C485.279 -49.7956 359.792 -175.282 204.997 -175.282C50.2014 -175.282 -75.2852 -49.7956 -75.2852 105C-75.2852 259.795 50.2014 385.282 204.997 385.282Z" fill="white"/>
</mask>
<g mask="url(#mask30_567_8521)">
<path d="M461.274 195.65C472.429 193.391 483.584 192.12 495.021 191.979C496.857 191.979 498.693 190.85 498.975 189.014C499.257 187.32 497.845 185.625 496.01 185.625C484.149 185.766 472.147 187.037 460.568 189.437C458.874 189.72 457.321 191.414 457.462 193.25C457.603 194.944 459.58 195.933 461.274 195.65Z" fill="#49588C" fill-opacity="0.2"/>
</g>
<mask id="mask31_567_8521" style="mask-type:luminance" maskUnits="userSpaceOnUse" x="-76" y="-176" width="562" height="562">
<path d="M204.997 385.282C359.792 385.282 485.279 259.795 485.279 105C485.279 -49.7956 359.792 -175.282 204.997 -175.282C50.2014 -175.282 -75.2852 -49.7956 -75.2852 105C-75.2852 259.795 50.2014 385.282 204.997 385.282Z" fill="white"/>
</mask>
<g mask="url(#mask31_567_8521)">
<path d="M452.379 212.877C461.981 213.159 471.582 213.583 481.184 213.865C482.455 213.865 482.878 213.159 481.89 212.312C480.76 211.182 478.925 210.335 477.371 210.194C467.77 209.912 458.168 209.488 448.567 209.206C447.296 209.206 446.872 209.912 447.861 210.759C448.99 211.888 450.826 212.877 452.379 212.877Z" fill="#49588C" fill-opacity="0.2"/>
</g>
<mask id="mask32_567_8521" style="mask-type:luminance" maskUnits="userSpaceOnUse" x="-76" y="-176" width="562" height="562">
<path d="M204.997 385.282C359.792 385.282 485.279 259.795 485.279 105C485.279 -49.7956 359.792 -175.282 204.997 -175.282C50.2014 -175.282 -75.2852 -49.7956 -75.2852 105C-75.2852 259.795 50.2014 385.282 204.997 385.282Z" fill="white"/>
</mask>
<g mask="url(#mask32_567_8521)">
<path d="M431.057 228.832C430.633 245.918 432.186 263.003 435.575 279.664C435.999 281.359 437.269 283.053 439.105 283.194C440.658 283.336 442.211 282.065 441.929 280.37C438.54 264.132 436.987 247.612 437.269 231.092C437.269 229.256 436.281 227.562 434.587 226.997C433.316 226.573 431.198 226.997 431.057 228.832Z" fill="#49588C" fill-opacity="0.2"/>
</g>
<mask id="mask33_567_8521" style="mask-type:luminance" maskUnits="userSpaceOnUse" x="-76" y="-176" width="562" height="562">
<path d="M204.997 385.282C359.792 385.282 485.279 259.795 485.279 105C485.279 -49.7956 359.792 -175.282 204.997 -175.282C50.2014 -175.282 -75.2852 -49.7956 -75.2852 105C-75.2852 259.795 50.2014 385.282 204.997 385.282Z" fill="white"/>
</mask>
<g mask="url(#mask33_567_8521)">
<path d="M443.342 227.42C446.59 245.211 450.402 262.861 454.78 280.37C455.203 281.923 456.474 283.759 458.168 283.9C459.863 284.041 460.428 282.488 460.004 281.076C455.627 263.567 451.956 245.917 448.567 228.126C448.284 226.573 446.731 224.737 445.178 224.596C443.484 224.455 443.06 226.149 443.342 227.42Z" fill="#49588C" fill-opacity="0.2"/>
</g>
<mask id="mask34_567_8521" style="mask-type:luminance" maskUnits="userSpaceOnUse" x="-76" y="-176" width="562" height="562">
<path d="M204.997 385.282C359.792 385.282 485.279 259.795 485.279 105C485.279 -49.7956 359.792 -175.282 204.997 -175.282C50.2014 -175.282 -75.2852 -49.7956 -75.2852 105C-75.2852 259.795 50.2014 385.282 204.997 385.282Z" fill="white"/>
</mask>
<g mask="url(#mask34_567_8521)">
<path d="M-9.9089 116.296C-7.0849 129.145 -4.2609 141.994 -1.5781 154.844C-1.2957 156.114 0.963495 157.103 1.95189 157.526C2.37549 157.668 4.9171 158.656 4.6347 157.668C1.8107 144.818 -1.0133 131.969 -3.6961 119.12C-3.9785 117.849 -6.2377 116.861 -7.2261 116.437C-7.5085 116.296 -10.1913 115.308 -9.9089 116.296Z" fill="#49588C" fill-opacity="0.2"/>
</g>
<mask id="mask35_567_8521" style="mask-type:luminance" maskUnits="userSpaceOnUse" x="-76" y="-176" width="562" height="562">
<path d="M204.997 385.282C359.792 385.282 485.279 259.795 485.279 105C485.279 -49.7956 359.792 -175.282 204.997 -175.282C50.2014 -175.282 -75.2852 -49.7956 -75.2852 105C-75.2852 259.795 50.2014 385.282 204.997 385.282Z" fill="white"/>
</mask>
<g mask="url(#mask35_567_8521)">
<path d="M5.34254 115.731C8.02534 131.828 10.7081 147.925 13.3909 164.022C13.8145 166.704 20.8745 166.704 20.4509 164.304C17.7681 148.207 15.0853 132.11 12.4025 116.014C11.9789 113.19 4.91894 113.331 5.34254 115.731Z" fill="#49588C" fill-opacity="0.2"/>
</g>
<mask id="mask36_567_8521" style="mask-type:luminance" maskUnits="userSpaceOnUse" x="-76" y="-176" width="562" height="562">
<path d="M204.997 385.282C359.792 385.282 485.279 259.795 485.279 105C485.279 -49.7956 359.792 -175.282 204.997 -175.282C50.2014 -175.282 -75.2852 -49.7956 -75.2852 105C-75.2852 259.795 50.2014 385.282 204.997 385.282Z" fill="white"/>
</mask>
<g mask="url(#mask36_567_8521)">
<path d="M-26.853 108.953C-3.55496 100.764 20.3078 94.2687 44.5942 89.6091C45.4414 89.4679 47.5594 88.7619 46.8534 87.4911C46.1474 86.3615 43.4646 86.6439 42.4762 86.9263C17.625 91.7271 -6.80257 98.3635 -30.6654 106.694C-31.6538 106.977 -32.9246 107.965 -31.6538 108.812C-30.5242 109.801 -28.1238 109.377 -26.853 108.953Z" fill="#49588C" fill-opacity="0.2"/>
</g>
<mask id="mask37_567_8521" style="mask-type:luminance" maskUnits="userSpaceOnUse" x="-76" y="-176" width="562" height="562">
<path d="M204.997 385.282C359.792 385.282 485.279 259.795 485.279 105C485.279 -49.7956 359.792 -175.282 204.997 -175.282C50.2014 -175.282 -75.2852 -49.7956 -75.2852 105C-75.2852 259.795 50.2014 385.282 204.997 385.282Z" fill="white"/>
</mask>
<g mask="url(#mask37_567_8521)">
<path d="M-27.98 93.5628C-9.76516 87.6324 8.30844 81.4196 26.2408 74.7832C30.3356 73.23 25.5348 68.8528 22.5696 69.9824C4.63725 76.6188 -13.4364 82.8316 -31.6512 88.762C-35.746 90.0328 -30.9452 94.41 -27.98 93.5628Z" fill="#49588C" fill-opacity="0.2"/>
</g>
<mask id="mask38_567_8521" style="mask-type:luminance" maskUnits="userSpaceOnUse" x="-76" y="-176" width="562" height="562">
<path d="M204.997 385.282C359.792 385.282 485.279 259.795 485.279 105C485.279 -49.7956 359.792 -175.282 204.997 -175.282C50.2014 -175.282 -75.2852 -49.7956 -75.2852 105C-75.2852 259.795 50.2014 385.282 204.997 385.282Z" fill="white"/>
</mask>
<g mask="url(#mask38_567_8521)">
<path d="M-24.5932 73.6535C-19.51 70.1235 -13.0148 68.7115 -7.0844 66.8759C-0.306803 64.7579 6.32959 62.6399 13.1072 60.6631C14.8016 60.0983 15.2252 57.8391 14.378 56.4271C13.3896 54.7327 11.554 54.1679 9.71839 54.7327C2.79959 56.8507 -4.26041 59.1099 -11.1792 61.2279C-17.5332 63.2047 -23.8872 64.8991 -29.394 68.7115C-30.9472 69.6999 -30.5236 72.1003 -29.394 73.2299C-28.1232 74.5007 -26.1464 74.7831 -24.5932 73.6535Z" fill="#49588C" fill-opacity="0.2"/>
</g>
<mask id="mask39_567_8521" style="mask-type:luminance" maskUnits="userSpaceOnUse" x="-76" y="-176" width="562" height="562">
<path d="M204.997 385.282C359.792 385.282 485.279 259.795 485.279 105C485.279 -49.7956 359.792 -175.282 204.997 -175.282C50.2014 -175.282 -75.2852 -49.7956 -75.2852 105C-75.2852 259.795 50.2014 385.282 204.997 385.282Z" fill="white"/>
</mask>
<g mask="url(#mask39_567_8521)">
<path d="M27.6508 122.791C46.4304 119.261 65.4924 116.719 84.5544 115.449C86.2488 115.307 87.2372 113.754 86.6724 112.201C86.1076 110.507 84.272 109.377 82.4364 109.518C63.3744 110.93 44.3124 113.331 25.5328 116.861C21.1556 117.708 24.1208 123.497 27.6508 122.791Z" fill="#49588C" fill-opacity="0.2"/>
</g>
<mask id="mask40_567_8521" style="mask-type:luminance" maskUnits="userSpaceOnUse" x="-76" y="-176" width="562" height="562">
<path d="M204.997 385.282C359.792 385.282 485.279 259.795 485.279 105C485.279 -49.7956 359.792 -175.282 204.997 -175.282C50.2014 -175.282 -75.2852 -49.7956 -75.2852 105C-75.2852 259.795 50.2014 385.282 204.997 385.282Z" fill="white"/>
</mask>
<g mask="url(#mask40_567_8521)">
<path d="M40.5014 134.934C61.6814 132.958 82.8614 130.84 104.041 128.863C104.183 128.863 102.206 126.18 101.923 126.039C101.359 125.474 100.088 123.638 99.2406 123.78C78.0606 125.756 56.8806 127.874 35.7006 129.851C35.5594 129.851 37.5362 132.534 37.8186 132.675C38.3834 133.24 39.6542 135.076 40.5014 134.934Z" fill="#49588C" fill-opacity="0.2"/>
</g>
<mask id="mask41_567_8521" style="mask-type:luminance" maskUnits="userSpaceOnUse" x="-76" y="-176" width="562" height="562">
<path d="M204.997 385.282C359.792 385.282 485.279 259.795 485.279 105C485.279 -49.7956 359.792 -175.282 204.997 -175.282C50.2014 -175.282 -75.2852 -49.7956 -75.2852 105C-75.2852 259.795 50.2014 385.282 204.997 385.282Z" fill="white"/>
</mask>
<g mask="url(#mask41_567_8521)">
<path d="M40.2171 144.254C60.4087 140.865 80.6003 137.335 100.651 133.24C101.216 133.099 103.475 132.675 102.91 131.828C102.345 130.981 99.0975 131.687 98.5327 131.828C79.0471 135.64 59.5615 139.17 39.9347 142.418C39.3699 142.559 36.4047 142.842 36.5459 143.83C36.6871 144.677 39.9347 144.254 40.2171 144.254Z" fill="#49588C" fill-opacity="0.2"/>
</g>
<mask id="mask42_567_8521" style="mask-type:luminance" maskUnits="userSpaceOnUse" x="-76" y="-176" width="562" height="562">
<path d="M204.997 385.282C359.792 385.282 485.279 259.795 485.279 105C485.279 -49.7956 359.792 -175.282 204.997 -175.282C50.2014 -175.282 -75.2852 -49.7956 -75.2852 105C-75.2852 259.795 50.2014 385.282 204.997 385.282Z" fill="white"/>
</mask>
<g mask="url(#mask42_567_8521)">
<path d="M40.2177 47.8139C45.0185 67.4407 50.6665 86.9263 57.3029 105.988C57.8677 107.541 59.5621 108.953 61.1153 109.095C62.6685 109.236 63.6569 108.106 63.0921 106.694C56.4557 87.6323 50.6665 68.1467 46.0069 48.5199C45.4421 45.6959 39.2293 43.7191 40.2177 47.8139Z" fill="#49588C" fill-opacity="0.2"/>
</g>
<mask id="mask43_567_8521" style="mask-type:luminance" maskUnits="userSpaceOnUse" x="-76" y="-176" width="562" height="562">
<path d="M204.997 385.282C359.792 385.282 485.279 259.795 485.279 105C485.279 -49.7956 359.792 -175.282 204.997 -175.282C50.2014 -175.282 -75.2852 -49.7956 -75.2852 105C-75.2852 259.795 50.2014 385.282 204.997 385.282Z" fill="white"/>
</mask>
<g mask="url(#mask43_567_8521)">
<path d="M58.4309 42.872C60.5489 62.3576 64.5024 81.5608 70.0092 100.34C70.4328 101.894 71.1388 103.588 72.1272 104.859C72.8332 105.706 73.2568 105.847 72.8332 104.435C67.4676 86.0792 63.6552 67.1584 61.5372 48.0964C61.396 46.5432 60.4077 44.99 59.7017 43.578C59.5605 43.2956 58.2897 41.46 58.4309 42.872Z" fill="#49588C" fill-opacity="0.2"/>
</g>
<mask id="mask44_567_8521" style="mask-type:luminance" maskUnits="userSpaceOnUse" x="-76" y="-176" width="562" height="562">
<path d="M204.997 385.282C359.792 385.282 485.279 259.795 485.279 105C485.279 -49.7956 359.792 -175.282 204.997 -175.282C50.2014 -175.282 -75.2852 -49.7956 -75.2852 105C-75.2852 259.795 50.2014 385.282 204.997 385.282Z" fill="white"/>
</mask>
<g mask="url(#mask44_567_8521)">
<path d="M72.9763 44.8488C76.2239 67.1584 80.6011 89.3268 86.3903 111.072C87.3787 114.743 94.0151 114.884 92.8855 110.507C87.2375 88.6208 82.7191 66.5936 79.4715 44.284C78.9067 40.6128 72.2703 40.4716 72.9763 44.8488Z" fill="#49588C" fill-opacity="0.2"/>
</g>
<mask id="mask45_567_8521" style="mask-type:luminance" maskUnits="userSpaceOnUse" x="-76" y="-176" width="562" height="562">
<path d="M204.997 385.282C359.792 385.282 485.279 259.795 485.279 105C485.279 -49.7956 359.792 -175.282 204.997 -175.282C50.2014 -175.282 -75.2852 -49.7956 -75.2852 105C-75.2852 259.795 50.2014 385.282 204.997 385.282Z" fill="white"/>
</mask>
<g mask="url(#mask45_567_8521)">
<path d="M103.615 94.6923C114.487 92.7155 125.501 91.0211 136.514 89.7503C137.926 89.6091 139.621 88.3383 139.197 86.7851C138.632 85.0907 136.514 84.5259 134.961 84.6671C123.947 85.9379 112.934 87.6323 102.061 89.6091C100.649 89.8915 98.9551 90.8799 99.3787 92.5743C99.8023 94.2687 102.061 94.9747 103.615 94.6923Z" fill="#49588C" fill-opacity="0.2"/>
</g>
<mask id="mask46_567_8521" style="mask-type:luminance" maskUnits="userSpaceOnUse" x="-76" y="-176" width="562" height="562">
<path d="M204.997 385.282C359.792 385.282 485.279 259.795 485.279 105C485.279 -49.7956 359.792 -175.282 204.997 -175.282C50.2014 -175.282 -75.2852 -49.7956 -75.2852 105C-75.2852 259.795 50.2014 385.282 204.997 385.282Z" fill="white"/>
</mask>
<g mask="url(#mask46_567_8521)">
<path d="M102.486 80.29C125.925 77.7484 149.223 74.2184 172.38 69.7C173.933 69.4176 174.498 68.1468 173.651 66.876C172.804 65.6052 170.686 64.6168 169.133 64.8992C145.976 69.4176 122.678 72.9476 99.2386 75.4892C97.6854 75.6304 97.1205 77.1836 97.9677 78.3132C98.8149 79.7252 100.792 80.4312 102.486 80.29Z" fill="#49588C" fill-opacity="0.2"/>
</g>
<mask id="mask47_567_8521" style="mask-type:luminance" maskUnits="userSpaceOnUse" x="-76" y="-176" width="562" height="562">
<path d="M204.997 385.282C359.792 385.282 485.279 259.795 485.279 105C485.279 -49.7956 359.792 -175.282 204.997 -175.282C50.2014 -175.282 -75.2852 -49.7956 -75.2852 105C-75.2852 259.795 50.2014 385.282 204.997 385.282Z" fill="white"/>
</mask>
<g mask="url(#mask47_567_8521)">
<path d="M99.2384 58.8276C124.937 56.1448 150.635 54.7328 176.475 54.7328C177.887 54.7328 179.44 53.8856 180.57 53.3208C180.852 53.1796 183.111 51.7676 182.546 51.7676C156.424 51.7676 130.444 53.1796 104.463 55.8624C102.91 56.0036 101.356 56.8508 99.9444 57.5568C99.8032 57.8392 97.8264 58.9688 99.2384 58.8276Z" fill="#49588C" fill-opacity="0.2"/>
</g>
<mask id="mask48_567_8521" style="mask-type:luminance" maskUnits="userSpaceOnUse" x="-76" y="-176" width="562" height="562">
<path d="M204.997 385.282C359.792 385.282 485.279 259.795 485.279 105C485.279 -49.7956 359.792 -175.282 204.997 -175.282C50.2014 -175.282 -75.2852 -49.7956 -75.2852 105C-75.2852 259.795 50.2014 385.282 204.997 385.282Z" fill="white"/>
</mask>
<g mask="url(#mask48_567_8521)">
<path d="M150.072 86.3615C159.673 85.3731 169.275 84.5259 178.876 83.5375C180.43 83.3963 178.453 82.2667 178.029 82.1255C176.617 81.5607 174.923 80.8547 173.37 80.9959C163.768 81.9843 154.166 82.8315 144.565 83.8199C143.012 83.9611 144.988 85.0907 145.412 85.2319C146.683 85.7967 148.518 86.5027 150.072 86.3615Z" fill="#49588C" fill-opacity="0.2"/>
</g>
<mask id="mask49_567_8521" style="mask-type:luminance" maskUnits="userSpaceOnUse" x="-76" y="-176" width="562" height="562">
<path d="M204.997 385.282C359.792 385.282 485.279 259.795 485.279 105C485.279 -49.7956 359.792 -175.282 204.997 -175.282C50.2014 -175.282 -75.2852 -49.7956 -75.2852 105C-75.2852 259.795 50.2014 385.282 204.997 385.282Z" fill="white"/>
</mask>
<g mask="url(#mask49_567_8521)">
<path d="M114.772 98.2222C114.49 106.835 116.326 115.166 119.997 122.932C120.703 124.485 123.386 124.768 124.656 124.344C126.21 123.779 126.916 122.509 126.21 121.097C122.962 114.178 121.409 106.553 121.691 98.9282C121.691 97.2338 119.856 96.2454 118.444 96.1042C117.173 95.963 114.772 96.3866 114.772 98.2222Z" fill="#49588C" fill-opacity="0.2"/>
</g>
<mask id="mask50_567_8521" style="mask-type:luminance" maskUnits="userSpaceOnUse" x="-76" y="-176" width="562" height="562">
<path d="M204.997 385.282C359.792 385.282 485.279 259.795 485.279 105C485.279 -49.7956 359.792 -175.282 204.997 -175.282C50.2014 -175.282 -75.2852 -49.7956 -75.2852 105C-75.2852 259.795 50.2014 385.282 204.997 385.282Z" fill="white"/>
</mask>
<g mask="url(#mask50_567_8521)">
<path d="M136.656 94.6923C136.939 104.576 138.351 114.46 140.751 124.062C141.457 127.027 148.235 125.191 147.529 122.085C145.128 112.907 143.857 103.447 143.575 93.9863C143.575 92.2919 141.881 91.8683 140.469 92.0095C139.198 92.1507 136.656 93.1391 136.656 94.6923Z" fill="#49588C" fill-opacity="0.2"/>
</g>
<mask id="mask51_567_8521" style="mask-type:luminance" maskUnits="userSpaceOnUse" x="-76" y="-176" width="562" height="562">
<path d="M204.997 385.282C359.792 385.282 485.279 259.795 485.279 105C485.279 -49.7956 359.792 -175.282 204.997 -175.282C50.2014 -175.282 -75.2852 -49.7956 -75.2852 105C-75.2852 259.795 50.2014 385.282 204.997 385.282Z" fill="white"/>
</mask>
<g mask="url(#mask51_567_8521)">
<path d="M155.012 88.4796C158.259 102.6 161.507 116.72 164.896 130.84C165.319 132.534 167.014 134.087 168.708 133.805C170.544 133.522 171.25 131.546 170.826 129.992C167.579 115.872 164.331 101.752 160.942 87.6324C160.519 85.938 158.824 84.3848 157.13 84.6672C155.294 84.9496 154.588 86.9264 155.012 88.4796Z" fill="#49588C" fill-opacity="0.2"/>
</g>
<mask id="mask52_567_8521" style="mask-type:luminance" maskUnits="userSpaceOnUse" x="-76" y="-176" width="562" height="562">
<path d="M204.997 385.282C359.792 385.282 485.279 259.795 485.279 105C485.279 -49.7956 359.792 -175.282 204.997 -175.282C50.2014 -175.282 -75.2852 -49.7956 -75.2852 105C-75.2852 259.795 50.2014 385.282 204.997 385.282Z" fill="white"/>
</mask>
<g mask="url(#mask52_567_8521)">
<path d="M227.165 66.0289C224.623 84.2437 223.494 102.6 223.635 120.956C223.635 123.638 230.554 124.768 230.554 122.65C230.412 104.294 231.683 85.9381 234.084 67.7233C234.366 65.0405 227.447 63.6285 227.165 66.0289Z" fill="#49588C" fill-opacity="0.2"/>
</g>
<mask id="mask53_567_8521" style="mask-type:luminance" maskUnits="userSpaceOnUse" x="-76" y="-176" width="562" height="562">
<path d="M204.997 385.282C359.792 385.282 485.279 259.795 485.279 105C485.279 -49.7956 359.792 -175.282 204.997 -175.282C50.2014 -175.282 -75.2852 -49.7956 -75.2852 105C-75.2852 259.795 50.2014 385.282 204.997 385.282Z" fill="white"/>
</mask>
<g mask="url(#mask53_567_8521)">
<path d="M249.759 65.8875C242.558 84.5259 238.039 104.153 236.204 124.203C236.062 125.192 238.322 126.886 239.028 127.592C239.31 127.874 241.287 129.569 241.287 128.722C243.122 108.954 247.641 89.4679 254.842 70.8295C255.124 69.9823 253.289 68.4291 252.724 67.8643C252.442 67.7231 249.9 65.4639 249.759 65.8875Z" fill="#49588C" fill-opacity="0.2"/>
</g>
<mask id="mask54_567_8521" style="mask-type:luminance" maskUnits="userSpaceOnUse" x="-76" y="-176" width="562" height="562">
<path d="M204.997 385.282C359.792 385.282 485.279 259.795 485.279 105C485.279 -49.7956 359.792 -175.282 204.997 -175.282C50.2014 -175.282 -75.2852 -49.7956 -75.2852 105C-75.2852 259.795 50.2014 385.282 204.997 385.282Z" fill="white"/>
</mask>
<g mask="url(#mask54_567_8521)">
<path d="M281.103 61.5104C273.337 86.9264 267.548 113.048 263.453 139.312C263.312 139.876 266.842 139.17 266.983 139.029C267.689 138.747 269.949 138.323 270.231 137.335C274.326 111.213 280.115 85.3732 287.74 59.9572C288.022 59.11 285.481 59.6748 285.057 59.816C284.351 59.9572 281.386 60.522 281.103 61.5104Z" fill="#49588C" fill-opacity="0.2"/>
</g>
<mask id="mask55_567_8521" style="mask-type:luminance" maskUnits="userSpaceOnUse" x="-76" y="-176" width="562" height="562">
<path d="M204.997 385.282C359.792 385.282 485.279 259.795 485.279 105C485.279 -49.7956 359.792 -175.282 204.997 -175.282C50.2014 -175.282 -75.2852 -49.7956 -75.2852 105C-75.2852 259.795 50.2014 385.282 204.997 385.282Z" fill="white"/>
</mask>
<g mask="url(#mask55_567_8521)">
<path d="M224.484 45.696C246.511 46.5432 268.397 47.108 290.424 47.2492C292.119 47.2492 293.531 45.9784 293.248 44.284C292.966 42.4484 291.13 41.3188 289.295 41.3188C267.268 41.1776 245.382 40.6128 223.354 39.7656C221.66 39.7656 220.248 41.0364 220.53 42.7308C220.954 44.4252 222.789 45.5548 224.484 45.696Z" fill="#49588C" fill-opacity="0.2"/>
</g>
<mask id="mask56_567_8521" style="mask-type:luminance" maskUnits="userSpaceOnUse" x="-76" y="-176" width="562" height="562">
<path d="M204.997 385.282C359.792 385.282 485.279 259.795 485.279 105C485.279 -49.7956 359.792 -175.282 204.997 -175.282C50.2014 -175.282 -75.2852 -49.7956 -75.2852 105C-75.2852 259.795 50.2014 385.282 204.997 385.282Z" fill="white"/>
</mask>
<g mask="url(#mask56_567_8521)">
<path d="M227.449 23.245C252.018 26.2102 276.728 28.3282 301.579 29.4578C308.78 29.7402 315.981 30.0226 323.041 30.305C324.171 30.305 326.148 29.7402 325.724 28.3282C325.301 26.775 322.759 26.6338 321.488 26.6338C297.202 25.9278 272.774 24.3746 248.629 21.9742C241.71 21.2682 234.791 20.5622 227.873 19.715C226.743 19.5738 224.343 19.715 224.201 21.127C223.919 22.539 226.461 23.1038 227.449 23.245Z" fill="#49588C" fill-opacity="0.2"/>
</g>
<mask id="mask57_567_8521" style="mask-type:luminance" maskUnits="userSpaceOnUse" x="-76" y="-176" width="562" height="562">
<path d="M204.997 385.282C359.792 385.282 485.279 259.795 485.279 105C485.279 -49.7956 359.792 -175.282 204.997 -175.282C50.2014 -175.282 -75.2852 -49.7956 -75.2852 105C-75.2852 259.795 50.2014 385.282 204.997 385.282Z" fill="white"/>
</mask>
<g mask="url(#mask57_567_8521)">
<path d="M242.696 6.72462C258.511 12.5138 274.466 17.597 290.846 21.9742C292.399 22.3978 294.517 21.5506 294.799 19.8562C295.223 18.0206 293.387 16.7498 291.834 16.4674C276.161 12.3726 260.77 7.43062 245.52 1.78262C243.967 1.21782 241.849 1.21782 240.861 2.91222C240.155 4.46542 241.284 6.15982 242.696 6.72462Z" fill="#49588C" fill-opacity="0.2"/>
</g>
<mask id="mask58_567_8521" style="mask-type:luminance" maskUnits="userSpaceOnUse" x="-76" y="-176" width="562" height="562">
<path d="M204.997 385.282C359.792 385.282 485.279 259.795 485.279 105C485.279 -49.7956 359.792 -175.282 204.997 -175.282C50.2014 -175.282 -75.2852 -49.7956 -75.2852 105C-75.2852 259.795 50.2014 385.282 204.997 385.282Z" fill="white"/>
</mask>
<g mask="url(#mask58_567_8521)">
<path d="M184.948 38.7772C183.536 66.3112 183.112 93.704 183.536 121.238C183.536 124.203 190.172 121.944 190.172 119.261C189.748 91.7272 190.313 64.1932 191.584 36.8004C191.725 33.694 185.089 36.0944 184.948 38.7772Z" fill="#49588C" fill-opacity="0.2"/>
</g>
<mask id="mask59_567_8521" style="mask-type:luminance" maskUnits="userSpaceOnUse" x="-76" y="-176" width="562" height="562">
<path d="M204.997 385.282C359.792 385.282 485.279 259.795 485.279 105C485.279 -49.7956 359.792 -175.282 204.997 -175.282C50.2014 -175.282 -75.2852 -49.7956 -75.2852 105C-75.2852 259.795 50.2014 385.282 204.997 385.282Z" fill="white"/>
</mask>
<g mask="url(#mask59_567_8521)">
<path d="M203.021 42.7306C200.621 57.5566 198.785 72.3826 197.514 87.2086C197.373 89.3266 203.303 92.7154 203.586 90.4562C204.998 75.6302 206.833 60.8042 209.093 45.9782C209.375 44.0014 203.303 40.4714 203.021 42.7306Z" fill="#49588C" fill-opacity="0.2"/>
</g>
<mask id="mask60_567_8521" style="mask-type:luminance" maskUnits="userSpaceOnUse" x="-76" y="-176" width="562" height="562">
<path d="M204.997 385.282C359.792 385.282 485.279 259.795 485.279 105C485.279 -49.7956 359.792 -175.282 204.997 -175.282C50.2014 -175.282 -75.2852 -49.7956 -75.2852 105C-75.2852 259.795 50.2014 385.282 204.997 385.282Z" fill="white"/>
</mask>
<g mask="url(#mask60_567_8521)">
<path d="M280.681 101.47C307.368 107.541 334.337 112.483 361.588 116.296C369.354 117.425 377.12 118.273 384.886 119.12C386.298 119.261 387.852 118.837 389.264 118.555C389.828 118.414 390.817 118.273 391.24 117.849C391.24 117.849 391.946 117.425 391.523 117.425C364.271 114.319 337.161 110.224 310.333 104.717C302.708 103.164 294.942 101.47 287.317 99.7755C286.046 99.4931 284.211 100.058 282.94 100.34C282.658 100.481 280.257 101.329 280.681 101.47Z" fill="#49588C" fill-opacity="0.2"/>
</g>
<mask id="mask61_567_8521" style="mask-type:luminance" maskUnits="userSpaceOnUse" x="-76" y="-176" width="562" height="562">
<path d="M204.997 385.282C359.792 385.282 485.279 259.795 485.279 105C485.279 -49.7956 359.792 -175.282 204.997 -175.282C50.2014 -175.282 -75.2852 -49.7956 -75.2852 105C-75.2852 259.795 50.2014 385.282 204.997 385.282Z" fill="white"/>
</mask>
<g mask="url(#mask61_567_8521)">
<path d="M293.954 119.543C323.606 124.485 353.117 129.569 382.769 134.511C384.04 134.652 385.876 133.381 386.864 132.816C387.146 132.675 389.406 131.122 388.7 130.981C359.048 126.039 329.537 120.955 299.885 116.013C298.614 115.872 296.778 117.143 295.79 117.708C295.508 117.849 293.248 119.402 293.954 119.543Z" fill="#49588C" fill-opacity="0.2"/>
</g>
<mask id="mask62_567_8521" style="mask-type:luminance" maskUnits="userSpaceOnUse" x="-76" y="-176" width="562" height="562">
<path d="M204.997 385.282C359.792 385.282 485.279 259.795 485.279 105C485.279 -49.7956 359.792 -175.282 204.997 -175.282C50.2014 -175.282 -75.2852 -49.7956 -75.2852 105C-75.2852 259.795 50.2014 385.282 204.997 385.282Z" fill="white"/>
</mask>
<g mask="url(#mask62_567_8521)">
<path d="M308.354 137.052C331.652 137.476 354.809 140.441 377.542 145.665C378.813 145.948 378.107 143.265 377.966 142.841C377.542 141.712 376.695 139.594 375.283 139.311C352.55 134.087 329.393 131.122 306.095 130.698C304.259 130.557 306.518 137.052 308.354 137.052Z" fill="#49588C" fill-opacity="0.2"/>
</g>
<mask id="mask63_567_8521" style="mask-type:luminance" maskUnits="userSpaceOnUse" x="-76" y="-176" width="562" height="562">
<path d="M204.997 385.282C359.792 385.282 485.279 259.795 485.279 105C485.279 -49.7956 359.792 -175.282 204.997 -175.282C50.2014 -175.282 -75.2852 -49.7956 -75.2852 105C-75.2852 259.795 50.2014 385.282 204.997 385.282Z" fill="white"/>
</mask>
<g mask="url(#mask63_567_8521)">
<path d="M345.352 146.936C343.94 154.702 343.234 162.61 343.234 170.517C343.234 172.07 344.505 173.482 345.917 174.188C346.482 174.47 349.306 175.459 349.306 173.906C349.165 165.998 349.871 158.091 351.424 150.325C351.848 147.925 345.917 144.254 345.352 146.936Z" fill="#49588C" fill-opacity="0.2"/>
</g>
<mask id="mask64_567_8521" style="mask-type:luminance" maskUnits="userSpaceOnUse" x="-76" y="-176" width="562" height="562">
<path d="M204.997 385.282C359.792 385.282 485.279 259.795 485.279 105C485.279 -49.7956 359.792 -175.282 204.997 -175.282C50.2014 -175.282 -75.2852 -49.7956 -75.2852 105C-75.2852 259.795 50.2014 385.282 204.997 385.282Z" fill="white"/>
</mask>
<g mask="url(#mask64_567_8521)">
<path d="M357.778 151.314C357.637 160.915 357.637 170.517 357.919 179.977C357.919 181.107 364.556 179.695 364.556 177.436C364.273 168.116 364.273 158.797 364.415 149.478C364.415 148.207 362.297 148.772 361.591 148.913C360.602 149.196 357.778 150.184 357.778 151.314Z" fill="#49588C" fill-opacity="0.2"/>
</g>
<mask id="mask65_567_8521" style="mask-type:luminance" maskUnits="userSpaceOnUse" x="-76" y="-176" width="562" height="562">
<path d="M204.997 385.282C359.792 385.282 485.279 259.795 485.279 105C485.279 -49.7956 359.792 -175.282 204.997 -175.282C50.2014 -175.282 -75.2852 -49.7956 -75.2852 105C-75.2852 259.795 50.2014 385.282 204.997 385.282Z" fill="white"/>
</mask>
<g mask="url(#mask65_567_8521)">
<path d="M308.215 32.5642C306.238 45.131 305.673 57.9802 306.379 70.6882C306.379 71.6766 308.78 73.0886 309.486 73.6534C309.768 73.7946 311.886 75.3478 311.886 74.6418C311.18 62.075 311.745 49.367 313.722 36.8002C313.863 35.953 311.886 34.6822 311.321 34.1174C311.18 34.1174 308.356 32.2818 308.215 32.5642Z" fill="#49588C" fill-opacity="0.2"/>
</g>
<mask id="mask66_567_8521" style="mask-type:luminance" maskUnits="userSpaceOnUse" x="-76" y="-176" width="562" height="562">
<path d="M204.997 385.282C359.792 385.282 485.279 259.795 485.279 105C485.279 -49.7956 359.792 -175.282 204.997 -175.282C50.2014 -175.282 -75.2852 -49.7956 -75.2852 105C-75.2852 259.795 50.2014 385.282 204.997 385.282Z" fill="white"/>
</mask>
<g mask="url(#mask66_567_8521)">
<path d="M327.417 34.8235C324.169 51.3439 323.039 68.1467 323.604 84.9495C323.604 85.9379 325.863 86.6439 326.569 86.9263C326.852 87.0675 330.099 88.1971 330.099 87.6323C329.393 70.8295 330.664 54.0267 333.912 37.5063C334.194 36.2355 327.558 34.2587 327.417 34.8235Z" fill="#49588C" fill-opacity="0.2"/>
</g>
<mask id="mask67_567_8521" style="mask-type:luminance" maskUnits="userSpaceOnUse" x="-76" y="-176" width="562" height="562">
<path d="M204.997 385.282C359.792 385.282 485.279 259.795 485.279 105C485.279 -49.7956 359.792 -175.282 204.997 -175.282C50.2014 -175.282 -75.2852 -49.7956 -75.2852 105C-75.2852 259.795 50.2014 385.282 204.997 385.282Z" fill="white"/>
</mask>
<g mask="url(#mask67_567_8521)">
<path d="M340.971 34.8236C340.406 56.4272 339.983 78.0308 339.418 99.6344C339.418 100.058 346.337 99.9168 346.478 98.7872C347.043 77.1836 347.466 55.58 348.031 33.9764C348.031 33.5528 341.112 33.694 340.971 34.8236Z" fill="#49588C" fill-opacity="0.2"/>
</g>
<mask id="mask68_567_8521" style="mask-type:luminance" maskUnits="userSpaceOnUse" x="-76" y="-176" width="562" height="562">
<path d="M204.997 385.282C359.792 385.282 485.279 259.795 485.279 105C485.279 -49.7956 359.792 -175.282 204.997 -175.282C50.2014 -175.282 -75.2852 -49.7956 -75.2852 105C-75.2852 259.795 50.2014 385.282 204.997 385.282Z" fill="white"/>
</mask>
<g mask="url(#mask68_567_8521)">
<path d="M354.104 39.7655C355.939 59.9571 356.645 80.2899 356.222 100.623C356.222 101.47 363.14 101.046 363.14 99.4931C363.564 79.1603 362.858 58.9687 361.022 38.6359C360.881 37.5063 353.962 38.3535 354.104 39.7655Z" fill="#49588C" fill-opacity="0.2"/>
</g>
<mask id="mask69_567_8521" style="mask-type:luminance" maskUnits="userSpaceOnUse" x="-76" y="-176" width="562" height="562">
<path d="M204.997 385.282C359.792 385.282 485.279 259.795 485.279 105C485.279 -49.7956 359.792 -175.282 204.997 -175.282C50.2014 -175.282 -75.2852 -49.7956 -75.2852 105C-75.2852 259.795 50.2014 385.282 204.997 385.282Z" fill="white"/>
</mask>
<g mask="url(#mask69_567_8521)">
<path d="M378.816 54.7327C392.936 53.3207 406.915 51.2027 420.752 48.2375C422.164 47.9551 424.282 47.1079 424.282 45.2723C424.424 43.5779 422.306 42.8719 421.035 43.1543C407.197 46.1195 393.218 48.2375 379.098 49.6495C377.686 49.7907 375.568 50.9203 375.568 52.6147C375.568 54.4503 377.545 54.8739 378.816 54.7327Z" fill="#49588C" fill-opacity="0.2"/>
</g>
<mask id="mask70_567_8521" style="mask-type:luminance" maskUnits="userSpaceOnUse" x="-76" y="-176" width="562" height="562">
<path d="M204.997 385.282C359.792 385.282 485.279 259.795 485.279 105C485.279 -49.7956 359.792 -175.282 204.997 -175.282C50.2014 -175.282 -75.2852 -49.7956 -75.2852 105C-75.2852 259.795 50.2014 385.282 204.997 385.282Z" fill="white"/>
</mask>
<g mask="url(#mask70_567_8521)">
<path d="M376.131 69.4174C390.816 68.2878 405.642 67.1582 420.327 66.0286C421.88 65.8874 423.574 65.3226 424.986 64.7578C425.269 64.6166 427.387 63.7694 426.116 63.9106C411.431 65.0402 396.605 66.1698 381.92 67.2994C380.367 67.4406 378.673 68.0054 377.261 68.5702C376.837 68.7114 374.86 69.5586 376.131 69.4174Z" fill="#49588C" fill-opacity="0.2"/>
</g>
<mask id="mask71_567_8521" style="mask-type:luminance" maskUnits="userSpaceOnUse" x="-76" y="-176" width="562" height="562">
<path d="M204.997 385.282C359.792 385.282 485.279 259.795 485.279 105C485.279 -49.7956 359.792 -175.282 204.997 -175.282C50.2014 -175.282 -75.2852 -49.7956 -75.2852 105C-75.2852 259.795 50.2014 385.282 204.997 385.282Z" fill="white"/>
</mask>
<g mask="url(#mask71_567_8521)">
<path d="M379.38 81.843C394.629 81.7018 409.879 81.7018 424.987 81.9842C425.976 81.9842 428.517 81.843 428.517 80.431C428.658 79.019 425.976 78.5954 424.987 78.5954C409.738 78.313 394.488 78.1718 379.38 78.4542C378.391 78.4542 375.85 78.5954 375.85 80.0074C375.85 81.4194 378.532 81.843 379.38 81.843Z" fill="#49588C" fill-opacity="0.2"/>
</g>
<mask id="mask72_567_8521" style="mask-type:luminance" maskUnits="userSpaceOnUse" x="-76" y="-176" width="562" height="562">
<path d="M204.997 385.282C359.792 385.282 485.279 259.795 485.279 105C485.279 -49.7956 359.792 -175.282 204.997 -175.282C50.2014 -175.282 -75.2852 -49.7956 -75.2852 105C-75.2852 259.795 50.2014 385.282 204.997 385.282Z" fill="white"/>
</mask>
<g mask="url(#mask72_567_8521)">
<path d="M431.904 34.9647C432.187 58.4039 434.587 81.8431 438.964 105C439.247 106.271 440.8 107.542 441.929 108.248C442.212 108.389 444.753 109.942 444.471 108.954C440.094 85.9379 437.693 62.4987 437.411 38.9183C437.411 37.6475 435.434 36.2355 434.446 35.6707C434.163 35.5295 431.904 33.9763 431.904 34.9647Z" fill="#49588C" fill-opacity="0.2"/>
</g>
<mask id="mask73_567_8521" style="mask-type:luminance" maskUnits="userSpaceOnUse" x="-76" y="-176" width="562" height="562">
<path d="M204.997 385.282C359.792 385.282 485.279 259.795 485.279 105C485.279 -49.7956 359.792 -175.282 204.997 -175.282C50.2014 -175.282 -75.2852 -49.7956 -75.2852 105C-75.2852 259.795 50.2014 385.282 204.997 385.282Z" fill="white"/>
</mask>
<g mask="url(#mask73_567_8521)">
<path d="M444.05 38.4947C446.874 56.5683 450.122 74.642 453.934 92.7156C454.358 94.41 455.629 96.1044 457.606 96.1044C459.3 96.1044 460.571 94.41 460.147 92.7156C456.335 74.7832 453.087 56.7095 450.263 38.4947C449.981 36.8003 448.428 35.106 446.592 35.106C444.898 35.106 443.909 36.8003 444.05 38.4947Z" fill="#49588C" fill-opacity="0.2"/>
</g>
<mask id="mask74_567_8521" style="mask-type:luminance" maskUnits="userSpaceOnUse" x="-76" y="-176" width="562" height="562">
<path d="M204.997 385.282C359.792 385.282 485.279 259.795 485.279 105C485.279 -49.7956 359.792 -175.282 204.997 -175.282C50.2014 -175.282 -75.2852 -49.7956 -75.2852 105C-75.2852 259.795 50.2014 385.282 204.997 385.282Z" fill="white"/>
</mask>
<g mask="url(#mask74_567_8521)">
<path d="M459.581 32.5643C464.382 49.2259 468.195 66.0287 471.301 83.1139C471.583 84.8083 472.995 86.2203 474.831 86.6439C476.102 86.9263 478.079 86.2203 477.796 84.5259C474.549 67.0171 470.595 49.6495 465.653 32.5643C464.806 29.3167 458.452 28.4695 459.581 32.5643Z" fill="#49588C" fill-opacity="0.2"/>
</g>
<mask id="mask75_567_8521" style="mask-type:luminance" maskUnits="userSpaceOnUse" x="-76" y="-176" width="562" height="562">
<path d="M204.997 385.282C359.792 385.282 485.279 259.795 485.279 105C485.279 -49.7956 359.792 -175.282 204.997 -175.282C50.2014 -175.282 -75.2852 -49.7956 -75.2852 105C-75.2852 259.795 50.2014 385.282 204.997 385.282Z" fill="white"/>
</mask>
<g mask="url(#mask75_567_8521)">
<path d="M402.679 88.4794C402.256 104.576 402.538 120.532 403.244 136.629C403.385 138.182 404.374 140.159 405.645 141.006C406.774 141.853 407.621 141.429 407.621 140.017C406.915 124.344 406.633 108.812 407.057 93.139C407.057 91.4446 406.351 89.8914 405.221 88.6206C404.656 88.0558 402.821 86.785 402.679 88.4794Z" fill="#49588C" fill-opacity="0.2"/>
</g>
<mask id="mask76_567_8521" style="mask-type:luminance" maskUnits="userSpaceOnUse" x="-76" y="-176" width="562" height="562">
<path d="M204.997 385.282C359.792 385.282 485.279 259.795 485.279 105C485.279 -49.7956 359.792 -175.282 204.997 -175.282C50.2014 -175.282 -75.2852 -49.7956 -75.2852 105C-75.2852 259.795 50.2014 385.282 204.997 385.282Z" fill="white"/>
</mask>
<g mask="url(#mask76_567_8521)">
<path d="M419.904 93.4216C419.34 106.977 419.622 120.532 420.893 133.946C421.034 135.499 427.953 135.782 427.812 135.217C426.682 121.803 426.4 108.248 426.823 94.6924C426.823 93.2804 419.904 92.5744 419.904 93.4216Z" fill="#49588C" fill-opacity="0.2"/>
</g>
<mask id="mask77_567_8521" style="mask-type:luminance" maskUnits="userSpaceOnUse" x="-76" y="-176" width="562" height="562">
<path d="M204.997 385.282C359.792 385.282 485.279 259.795 485.279 105C485.279 -49.7956 359.792 -175.282 204.997 -175.282C50.2014 -175.282 -75.2852 -49.7956 -75.2852 105C-75.2852 259.795 50.2014 385.282 204.997 385.282Z" fill="white"/>
</mask>
<g mask="url(#mask77_567_8521)">
<path d="M438.683 121.661C454.638 112.766 470.735 104.435 486.973 96.2455C487.397 95.9631 484.573 93.8451 484.431 93.7039C483.725 93.2803 482.031 91.8683 481.043 92.4331C464.805 100.482 448.708 108.954 432.752 117.849C432.329 118.132 435.153 120.249 435.294 120.391C436 120.814 437.835 122.226 438.683 121.661Z" fill="#49588C" fill-opacity="0.2"/>
</g>
<mask id="mask78_567_8521" style="mask-type:luminance" maskUnits="userSpaceOnUse" x="-76" y="-176" width="562" height="562">
<path d="M204.997 385.282C359.792 385.282 485.279 259.795 485.279 105C485.279 -49.7956 359.792 -175.282 204.997 -175.282C50.2014 -175.282 -75.2852 -49.7956 -75.2852 105C-75.2852 259.795 50.2014 385.282 204.997 385.282Z" fill="white"/>
</mask>
<g mask="url(#mask78_567_8521)">
<path d="M444.473 136.77C467.065 127.592 489.516 117.99 511.826 108.248C513.096 107.683 509.849 101.47 508.154 102.176C485.845 111.919 463.394 121.52 440.802 130.698C439.672 131.263 442.779 137.476 444.473 136.77Z" fill="#49588C" fill-opacity="0.2"/>
</g>
<mask id="mask79_567_8521" style="mask-type:luminance" maskUnits="userSpaceOnUse" x="-76" y="-176" width="562" height="562">
<path d="M204.997 385.282C359.792 385.282 485.279 259.795 485.279 105C485.279 -49.7956 359.792 -175.282 204.997 -175.282C50.2014 -175.282 -75.2852 -49.7956 -75.2852 105C-75.2852 259.795 50.2014 385.282 204.997 385.282Z" fill="white"/>
</mask>
<g mask="url(#mask79_567_8521)">
<path d="M450.264 151.878C471.726 147.925 493.189 143.83 514.651 139.594C516.346 139.311 516.628 136.911 515.781 135.64C514.792 133.946 513.098 133.381 511.262 133.663C490.365 137.899 469.326 141.853 448.428 145.665C444.192 146.513 446.734 152.584 450.264 151.878Z" fill="#49588C" fill-opacity="0.2"/>
</g>
<mask id="mask80_567_8521" style="mask-type:luminance" maskUnits="userSpaceOnUse" x="-76" y="-176" width="562" height="562">
<path d="M204.997 385.282C359.792 385.282 485.279 259.795 485.279 105C485.279 -49.7956 359.792 -175.282 204.997 -175.282C50.2014 -175.282 -75.2852 -49.7956 -75.2852 105C-75.2852 259.795 50.2014 385.282 204.997 385.282Z" fill="white"/>
</mask>
<g mask="url(#mask80_567_8521)">
<path d="M4.91992 -22.3625C5.06112 -4.85372 5.76712 12.5139 6.75552 29.8815C6.89672 31.5759 7.60271 33.4115 9.01471 34.2587C10.1443 34.9647 11.6975 34.5411 11.5563 32.9879C10.5679 15.6203 10.0031 -1.88852 9.72071 -19.2561C9.72071 -20.9505 8.87352 -22.7861 7.46152 -23.6333C6.33192 -24.4805 4.91992 -23.9157 4.91992 -22.3625Z" fill="#49588C" fill-opacity="0.2"/>
</g>
<mask id="mask81_567_8521" style="mask-type:luminance" maskUnits="userSpaceOnUse" x="-76" y="-176" width="562" height="562">
<path d="M204.997 385.282C359.792 385.282 485.279 259.795 485.279 105C485.279 -49.7956 359.792 -175.282 204.997 -175.282C50.2014 -175.282 -75.2852 -49.7956 -75.2852 105C-75.2852 259.795 50.2014 385.282 204.997 385.282Z" fill="white"/>
</mask>
<g mask="url(#mask81_567_8521)">
<path d="M17.3425 28.4695C43.6057 26.0691 69.8689 25.0807 96.1321 25.2219C97.1205 25.2219 98.6737 24.7983 97.8265 23.6687C96.9793 22.5391 94.5789 22.1155 93.1669 22.1155C66.3389 21.9743 39.5109 23.1039 12.8241 25.5043C11.4121 25.6455 11.4121 26.7751 12.4005 27.4811C13.8125 28.4695 15.7893 28.6107 17.3425 28.4695Z" fill="#49588C" fill-opacity="0.2"/>
</g>
<mask id="mask82_567_8521" style="mask-type:luminance" maskUnits="userSpaceOnUse" x="-76" y="-176" width="562" height="562">
<path d="M204.997 385.282C359.792 385.282 485.279 259.795 485.279 105C485.279 -49.7956 359.792 -175.282 204.997 -175.282C50.2014 -175.282 -75.2852 -49.7956 -75.2852 105C-75.2852 259.795 50.2014 385.282 204.997 385.282Z" fill="white"/>
</mask>
<g mask="url(#mask82_567_8521)">
<path d="M96.6975 -20.5269C99.2391 0.935452 103.051 22.1155 108.276 43.0131C108.558 43.8603 115.336 42.0247 115.053 40.8951C109.829 19.9975 106.017 -1.18255 103.475 -22.6449C103.334 -23.2097 96.5563 -21.9389 96.6975 -20.5269Z" fill="#49588C" fill-opacity="0.2"/>
</g>
<mask id="mask83_567_8521" style="mask-type:luminance" maskUnits="userSpaceOnUse" x="-76" y="-176" width="562" height="562">
<path d="M204.997 385.282C359.792 385.282 485.279 259.795 485.279 105C485.279 -49.7956 359.792 -175.282 204.997 -175.282C50.2014 -175.282 -75.2852 -49.7956 -75.2852 105C-75.2852 259.795 50.2014 385.282 204.997 385.282Z" fill="white"/>
</mask>
<g mask="url(#mask83_567_8521)">
<path d="M115.051 -27.7281C117.169 -4.28893 121.123 19.0091 126.771 41.8835C127.194 43.5779 128.606 45.1311 130.442 45.2723C131.995 45.4135 133.548 44.0015 133.125 42.3071C127.477 19.4327 123.664 -3.86533 121.405 -27.3045C121.123 -30.9757 114.627 -32.1053 115.051 -27.7281Z" fill="#49588C" fill-opacity="0.2"/>
</g>
<mask id="mask84_567_8521" style="mask-type:luminance" maskUnits="userSpaceOnUse" x="-76" y="-176" width="562" height="562">
<path d="M204.997 385.282C359.792 385.282 485.279 259.795 485.279 105C485.279 -49.7956 359.792 -175.282 204.997 -175.282C50.2014 -175.282 -75.2852 -49.7956 -75.2852 105C-75.2852 259.795 50.2014 385.282 204.997 385.282Z" fill="white"/>
</mask>
<g mask="url(#mask84_567_8521)">
<path d="M133.833 -22.5038C135.668 -3.30057 138.775 15.7614 143.293 34.541C143.717 36.3766 150.494 34.6822 150.071 32.5642C145.552 13.7846 142.446 -5.27736 140.61 -24.4806C140.469 -26.175 133.55 -24.763 133.833 -22.5038Z" fill="#49588C" fill-opacity="0.2"/>
</g>
<mask id="mask85_567_8521" style="mask-type:luminance" maskUnits="userSpaceOnUse" x="-76" y="-176" width="562" height="562">
<path d="M204.997 385.282C359.792 385.282 485.279 259.795 485.279 105C485.279 -49.7956 359.792 -175.282 204.997 -175.282C50.2014 -175.282 -75.2852 -49.7956 -75.2852 105C-75.2852 259.795 50.2014 385.282 204.997 385.282Z" fill="white"/>
</mask>
<g mask="url(#mask85_567_8521)">
<path d="M171.11 27.9047C180.006 27.6223 189.042 27.3399 197.938 26.9163C198.503 26.9163 201.468 26.7751 201.468 25.7867C201.468 24.9395 198.22 25.0807 197.938 25.0807C189.042 25.3631 180.006 25.6455 171.11 26.0691C170.545 26.0691 167.58 26.2103 167.58 27.1987C167.58 28.1871 170.686 27.9047 171.11 27.9047Z" fill="#49588C" fill-opacity="0.2"/>
</g>
<mask id="mask86_567_8521" style="mask-type:luminance" maskUnits="userSpaceOnUse" x="-76" y="-176" width="562" height="562">
<path d="M204.997 385.282C359.792 385.282 485.279 259.795 485.279 105C485.279 -49.7956 359.792 -175.282 204.997 -175.282C50.2014 -175.282 -75.2852 -49.7956 -75.2852 105C-75.2852 259.795 50.2014 385.282 204.997 385.282Z" fill="white"/>
</mask>
<g mask="url(#mask86_567_8521)">
<path d="M168.568 20.8447C179.017 19.4327 189.607 18.7267 200.197 18.4443C201.75 18.4443 203.727 17.5971 204.715 16.4675C205.562 15.4791 205.28 14.4907 203.868 14.4907C192.854 14.6319 181.7 15.4791 170.827 17.0323C169.415 17.1735 167.297 18.1619 166.591 19.4327C165.885 20.8447 167.58 20.9859 168.568 20.8447Z" fill="#49588C" fill-opacity="0.2"/>
</g>
<mask id="mask87_567_8521" style="mask-type:luminance" maskUnits="userSpaceOnUse" x="-76" y="-176" width="562" height="562">
<path d="M204.997 385.282C359.792 385.282 485.279 259.795 485.279 105C485.279 -49.7956 359.792 -175.282 204.997 -175.282C50.2014 -175.282 -75.2852 -49.7956 -75.2852 105C-75.2852 259.795 50.2014 385.282 204.997 385.282Z" fill="white"/>
</mask>
<g mask="url(#mask87_567_8521)">
<path d="M166.309 10.3959C177.464 10.5371 188.477 9.6899 199.491 7.71309C199.773 7.71309 197.655 1.21788 196.102 1.50028C185.088 3.47708 174.075 4.32429 162.92 4.18309C162.355 4.18309 163.908 7.43069 164.05 7.57189C164.473 8.41909 165.32 10.3959 166.309 10.3959Z" fill="#49588C" fill-opacity="0.2"/>
</g>
<mask id="mask88_567_8521" style="mask-type:luminance" maskUnits="userSpaceOnUse" x="-76" y="-176" width="562" height="562">
<path d="M204.997 385.282C359.792 385.282 485.279 259.795 485.279 105C485.279 -49.7956 359.792 -175.282 204.997 -175.282C50.2014 -175.282 -75.2852 -49.7956 -75.2852 105C-75.2852 259.795 50.2014 385.282 204.997 385.282Z" fill="white"/>
</mask>
<g mask="url(#mask88_567_8521)">
<path d="M279.834 -52.5793C275.033 -32.5289 271.644 -12.0549 269.667 8.41912C269.526 10.2547 270.373 12.0903 272.209 12.6551C273.762 13.0787 276.021 12.3727 276.163 10.5371C278.139 -10.0781 281.528 -30.4109 286.329 -50.4613C287.176 -54.2737 280.822 -56.8153 279.834 -52.5793Z" fill="#49588C" fill-opacity="0.2"/>
</g>
<mask id="mask89_567_8521" style="mask-type:luminance" maskUnits="userSpaceOnUse" x="-76" y="-176" width="562" height="562">
<path d="M204.997 385.282C359.792 385.282 485.279 259.795 485.279 105C485.279 -49.7956 359.792 -175.282 204.997 -175.282C50.2014 -175.282 -75.2852 -49.7956 -75.2852 105C-75.2852 259.795 50.2014 385.282 204.997 385.282Z" fill="white"/>
</mask>
<g mask="url(#mask89_567_8521)">
<path d="M291.273 -43.4012C287.178 -28.1516 284.777 -12.4784 283.93 3.33598C283.789 6.30118 289.861 9.54878 290.002 5.73638C290.708 -9.65442 293.108 -24.7628 297.062 -39.73C297.485 -41.4244 296.356 -42.9776 294.944 -43.966C294.097 -44.3896 291.696 -44.9544 291.273 -43.4012Z" fill="#49588C" fill-opacity="0.2"/>
</g>
<mask id="mask90_567_8521" style="mask-type:luminance" maskUnits="userSpaceOnUse" x="-76" y="-176" width="562" height="562">
<path d="M204.997 385.282C359.792 385.282 485.279 259.795 485.279 105C485.279 -49.7956 359.792 -175.282 204.997 -175.282C50.2014 -175.282 -75.2852 -49.7956 -75.2852 105C-75.2852 259.795 50.2014 385.282 204.997 385.282Z" fill="white"/>
</mask>
<g mask="url(#mask90_567_8521)">
<path d="M310.331 -41.9892C307.225 -24.6216 304.542 -7.25398 302.424 10.1136C302.283 10.6784 305.672 9.97241 305.954 9.97241C306.66 9.83121 309.061 9.40763 309.202 8.41923C311.32 -9.08957 314.003 -26.4572 317.109 -43.6836C317.25 -44.2484 313.72 -43.5424 313.579 -43.5424C312.873 -43.4012 310.473 -42.9776 310.331 -41.9892Z" fill="#49588C" fill-opacity="0.2"/>
</g>
<mask id="mask91_567_8521" style="mask-type:luminance" maskUnits="userSpaceOnUse" x="-76" y="-176" width="562" height="562">
<path d="M204.997 385.282C359.792 385.282 485.279 259.795 485.279 105C485.279 -49.7956 359.792 -175.282 204.997 -175.282C50.2014 -175.282 -75.2852 -49.7956 -75.2852 105C-75.2852 259.795 50.2014 385.282 204.997 385.282Z" fill="white"/>
</mask>
<g mask="url(#mask91_567_8521)">
<path d="M327.984 3.75938C343.516 -0.759016 359.472 -3.15941 375.568 -3.58301C377.122 -3.58301 374.721 -9.93701 373.027 -9.93701C356.789 -9.51341 340.551 -7.11302 324.878 -2.59462C323.607 -2.17102 326.148 4.32418 327.984 3.75938Z" fill="#49588C" fill-opacity="0.2"/>
</g>
<mask id="mask92_567_8521" style="mask-type:luminance" maskUnits="userSpaceOnUse" x="-76" y="-176" width="562" height="562">
<path d="M204.997 385.282C359.792 385.282 485.279 259.795 485.279 105C485.279 -49.7956 359.792 -175.282 204.997 -175.282C50.2014 -175.282 -75.2852 -49.7956 -75.2852 105C-75.2852 259.795 50.2014 385.282 204.997 385.282Z" fill="white"/>
</mask>
<g mask="url(#mask92_567_8521)">
<path d="M379.097 -19.3972C381.356 -1.88842 383.474 15.7616 385.168 33.2704C385.451 35.5296 392.228 36.8004 391.946 34.1176C390.11 16.4676 388.134 -1.04121 385.874 -18.55C385.592 -20.9504 378.673 -22.08 379.097 -19.3972Z" fill="#49588C" fill-opacity="0.2"/>
</g>
<mask id="mask93_567_8521" style="mask-type:luminance" maskUnits="userSpaceOnUse" x="-76" y="-176" width="562" height="562">
<path d="M204.997 385.282C359.792 385.282 485.279 259.795 485.279 105C485.279 -49.7956 359.792 -175.282 204.997 -175.282C50.2014 -175.282 -75.2852 -49.7956 -75.2852 105C-75.2852 259.795 50.2014 385.282 204.997 385.282Z" fill="white"/>
</mask>
<g mask="url(#mask93_567_8521)">
<path d="M388.276 -22.3624C394.771 -2.45321 399.995 17.7384 403.667 38.3536C403.949 40.048 404.937 41.7424 406.491 42.4484C407.761 43.0132 409.173 42.4484 408.891 40.754C405.079 19.7152 399.995 -1.18243 393.218 -21.5152C392.794 -22.9272 391.523 -24.904 389.829 -25.0452C388.276 -25.1864 387.852 -23.6332 388.276 -22.3624Z" fill="#49588C" fill-opacity="0.2"/>
</g>
<mask id="mask94_567_8521" style="mask-type:luminance" maskUnits="userSpaceOnUse" x="-76" y="-176" width="562" height="562">
<path d="M204.997 385.282C359.792 385.282 485.279 259.795 485.279 105C485.279 -49.7956 359.792 -175.282 204.997 -175.282C50.2014 -175.282 -75.2852 -49.7956 -75.2852 105C-75.2852 259.795 50.2014 385.282 204.997 385.282Z" fill="white"/>
</mask>
<g mask="url(#mask94_567_8521)">
<path d="M402.96 -26.3161C405.784 -6.68926 409.032 12.7963 412.703 32.2819C412.985 33.6939 414.962 34.6823 416.092 35.1059C416.515 35.2471 419.198 36.2355 418.916 34.9647C415.245 15.4791 411.997 -4.00647 409.173 -23.6333C409.032 -25.0453 406.914 -26.0337 405.784 -26.4573C405.361 -26.5985 402.678 -27.5869 402.96 -26.3161Z" fill="#49588C" fill-opacity="0.2"/>
</g>
<mask id="mask95_567_8521" style="mask-type:luminance" maskUnits="userSpaceOnUse" x="-76" y="-176" width="562" height="562">
<path d="M204.997 385.282C359.792 385.282 485.279 259.795 485.279 105C485.279 -49.7956 359.792 -175.282 204.997 -175.282C50.2014 -175.282 -75.2852 -49.7956 -75.2852 105C-75.2852 259.795 50.2014 385.282 204.997 385.282Z" fill="white"/>
</mask>
<g mask="url(#mask95_567_8521)">
<path d="M428.374 16.185C450.542 18.303 471.864 8.98383 494.032 11.1018C495.585 11.243 494.597 9.68983 494.173 8.98383C493.326 7.85423 491.632 6.30103 490.22 6.15983C468.051 4.18303 446.73 13.361 424.562 11.243C423.008 11.1018 423.997 12.655 424.42 13.361C425.268 14.4906 426.962 16.0438 428.374 16.185Z" fill="#49588C" fill-opacity="0.2"/>
</g>
<mask id="mask96_567_8521" style="mask-type:luminance" maskUnits="userSpaceOnUse" x="-76" y="-176" width="562" height="562">
<path d="M204.997 385.282C359.792 385.282 485.279 259.795 485.279 105C485.279 -49.7956 359.792 -175.282 204.997 -175.282C50.2014 -175.282 -75.2852 -49.7956 -75.2852 105C-75.2852 259.795 50.2014 385.282 204.997 385.282Z" fill="white"/>
</mask>
<g mask="url(#mask96_567_8521)">
<path d="M418.211 1.50026C429.083 1.78266 439.955 0.935466 450.687 0.229466C461.559 -0.335334 472.431 -1.04134 483.445 -1.60614C484.857 -1.74734 483.021 -2.87695 482.739 -3.15935C481.468 -3.86535 479.633 -4.71255 478.079 -4.57135C467.207 -4.00655 456.335 -3.30054 445.321 -2.73574C434.449 -2.17094 423.717 -1.18253 412.845 -1.46493C411.292 -1.46493 413.269 -0.194142 413.551 0.0882576C414.963 0.794258 416.657 1.35906 418.211 1.50026Z" fill="#49588C" fill-opacity="0.2"/>
</g>
</g>
<defs>
<linearGradient id="paint0_linear_567_8521" x1="749" y1="118" x2="-55" y2="118" gradientUnits="userSpaceOnUse">
<stop stop-color="#101B3B"/>
<stop offset="0.833002" stop-color="#273566"/>
</linearGradient>
<clipPath id="clip0_567_8521">
<rect width="493" height="236" rx="9" fill="white"/>
</clipPath>
</defs>
</svg>
