<svg width="513" height="259" viewBox="0 0 513 259" fill="none" xmlns="http://www.w3.org/2000/svg">
<g clip-path="url(#clip0_468_359)">
<path d="M186.6 258.2C200.9 249.7 214.2 240.2 225.4 228.1C236.5 216.2 245.8 202.8 252.5 187.3C254.4 187.2 256.3 187 258.1 186.9C270.8 186.7 283.6 187.5 296.2 186.1C328.7 182.6 351.1 149.6 343.8 117C338.2 92.1998 315.8 73.1998 291 72.5998C278.8 72.2998 266.7 72.4998 254.1 72.4998C241.1 42.2998 220.6 18.9998 191.9 2.19978C193.6 1.79978 194.3 1.49978 195 1.49978C228.9 1.49978 262.7 0.599781 296.5 1.79978C330.6 2.99978 359.2 17.9998 382.3 43.8998C386.3 48.3998 389.8 53.3998 393.6 58.0998C381.3 80.6998 374.7 104.1 374.7 129.6C374.7 155.1 381.1 178.5 393.7 201.5C389 207.3 384.3 213.4 379.2 219C363.5 236.2 344.1 247.7 322.1 253.7C311.1 256.7 299.4 257.9 288 258.1C255.5 258.7 223 258.3 190.5 258.3C189.2 258.5 187.9 258.3 186.6 258.2Z" fill="#DD2428"/>
<path d="M512.8 1.2002V72.5002C495.7 73.4002 481.4 80.2002 470.5 93.4002C462.4 103.2 458.5 114.7 457.7 127.7C456.1 153.1 475.7 185.6 512.7 187.4V257.8C482.3 259.7 437.7 243.4 410.8 204C380.1 159.2 381.8 101.4 407.3 61.3002C431.9 22.5002 467.3 3.0002 512.8 1.2002Z" fill="#444750"/>
<path d="M249.1 114.5H179.2C174.5 96.8998 164 84.1998 148.1 76.3998C136.6 70.7998 124.4 70.0998 112 72.7998C88.5001 77.8998 69.8001 102.2 69.4001 128C69.0001 152.9 86.5 176.7 110.7 183.3C125.2 187.2 139.5 185.7 152.6 177.8C165.4 170.1 174.2 158.9 178.7 144.3H248.7C246.6 188.1 207.9 247.5 140.2 255.8C67.9 264.7 3.60005 209.1 0.200053 134.6C-3.39995 59.1998 54.9 -1.80022 128.9 -0.000224583C199.4 1.79978 246.1 61.4998 249.1 114.5Z" fill="#444750"/>
</g>
<defs>
<clipPath id="clip0_468_359">
<rect width="512.8" height="258.6" fill="white"/>
</clipPath>
</defs>
</svg>
