<svg width="1236" height="447" viewBox="0 0 1236 447" fill="none" xmlns="http://www.w3.org/2000/svg">
<g clip-path="url(#clip0_152_289)">
<path d="M783.315 172.954C783.315 172.954 787.264 168.491 786.834 158.963C786.405 149.436 780.139 145.917 780.139 145.917C777.65 137.934 764.432 137.248 755.419 138.278C746.321 139.222 746.75 133.042 746.75 133.042C743.66 135.96 745.72 140.166 745.72 140.166C740.828 140.338 740.742 136.046 740.742 136.046C736.278 142.398 739.542 147.014 739.542 147.014C739.542 147.014 736.83 157.863 739.524 169.069C739.524 169.069 740.967 168.588 741.689 169.309C741.689 169.309 741.085 157.848 743.66 154.414C746.235 150.981 750.355 158.534 756.707 156.303C762.973 154.071 770.955 152.869 773.616 158.792C776.191 164.714 771.384 172.096 771.556 175.701C771.556 175.701 772.672 172.01 776.792 171.066C780.74 170.293 783.315 172.954 783.315 172.954Z" fill="#242A3D"/>
<path d="M780.482 170.551C780.482 170.551 785.032 172.611 785.032 178.362C785.117 184.198 778.937 186.859 773.53 185.572L774.903 194.155L755.505 205.399L751.385 194.498" stroke="#242A3D" stroke-width="1.71667" stroke-linecap="round" stroke-linejoin="round"/>
<path d="M766.921 189.177C766.921 189.177 756.878 198.275 750.269 193.554C742.887 188.147 741.428 182.138 741.428 176.388C741.428 170.637 741.085 159.993 741.085 159.993" stroke="#242A3D" stroke-width="1.71667" stroke-linecap="round" stroke-linejoin="round"/>
<path d="M741.248 169.421C741.248 169.421 739.114 168.22 736.646 171.022C734.177 173.824 734.112 182.961 742.049 182.895" stroke="#242A3D" stroke-width="1.71667" stroke-linecap="round" stroke-linejoin="round"/>
<path d="M774.303 179.907L780.225 175.787" stroke="#242A3D" stroke-width="1.71667" stroke-linecap="round" stroke-linejoin="round"/>
<path d="M778.422 180.765L776.877 178.19" stroke="#242A3D" stroke-width="1.71667" stroke-linecap="round" stroke-linejoin="round"/>
<path d="M738.507 174.685L741.315 176.024" stroke="#242A3D" stroke-width="1.71667" stroke-linecap="round" stroke-linejoin="round"/>
<path d="M751.557 194.927L711.816 200.85L696.624 156.217L676.11 161.796C676.11 161.796 685.294 203.682 688.212 214.583C691.13 225.484 701.173 230.033 710.958 229.347C719.112 228.746 721.258 228.746 721.344 228.574" stroke="#242A3D" stroke-width="1.71667" stroke-linecap="round" stroke-linejoin="round"/>
<path d="M775.333 194.069L796.791 190.807" stroke="#242A3D" stroke-width="1.71667" stroke-linecap="round" stroke-linejoin="round"/>
<path d="M836.988 195.066C836.988 195.066 834.594 204.64 823.399 209.777C814.644 213.897 796.791 221.536 796.791 221.536C800.568 264.71 838.678 300.331 838.678 300.331C838.678 300.331 832.498 291.919 820.91 302.992C809.323 314.064 809.494 329.686 809.494 329.686C768.552 283.336 787.779 192.181 787.779 192.181L795.504 235.183L785.976 242.823L795.246 254.668C795.246 254.668 789.753 275.439 788.809 288.829" stroke="#242A3D" stroke-width="1.71667" stroke-linecap="round" stroke-linejoin="round"/>
<path d="M734.218 289.087L720.399 247.715L729.068 239.132L720.399 227.201L742.716 196.387C742.716 196.387 720.485 237.758 737.308 302.648L789.581 291.318" stroke="#242A3D" stroke-width="1.71667" stroke-linecap="round" stroke-linejoin="round"/>
<path d="M821.597 314.322L832.669 323.677C832.669 323.677 831.038 316.897 835.931 311.918C840.823 306.94 840.737 302.219 839.364 300.073C839.364 300.073 834.987 295.095 827.862 298.185C820.738 301.275 819.966 305.481 819.966 305.481L821.597 314.322Z" fill="#242A3D"/>
<path d="M755.677 205.742L751.9 208.232C751.9 208.232 746.321 236.728 722.202 240.934C697.997 245.14 689.843 259.217 689.843 259.217L691.388 275.525L708.297 267.972C708.297 267.972 710.529 254.496 726.15 248.316C745.034 240.848 754.99 224.282 756.535 209.262L755.677 205.742Z" fill="#242A3D"/>
<path d="M698.512 161.796L677.826 166.86" stroke="#242A3D" stroke-width="1.71667" stroke-linecap="round" stroke-linejoin="round"/>
<path d="M737.036 309.155L791.298 297.155" stroke="#242A3D" stroke-width="1.71667" stroke-linecap="round" stroke-linejoin="round"/>
<path d="M766.749 302.562L758.509 304.365C757.565 304.537 756.707 304.022 756.535 303.077L756.02 300.502C755.848 299.558 756.363 298.7 757.308 298.528L765.548 296.726C766.492 296.554 767.35 297.069 767.522 298.013L768.037 300.588C768.294 301.447 767.693 302.391 766.749 302.562Z" stroke="#242A3D" stroke-width="1.71667" stroke-linecap="round" stroke-linejoin="round"/>
<path d="M769.496 318.27C769.496 318.27 791.641 361.616 797.735 372.86C803.743 384.104 825.717 392.087 846.059 370.285C866.402 348.569 891.723 309.515 891.723 309.515L875.071 294.666L825.717 336.638L819.794 304.108" stroke="#242A3D" stroke-width="1.71667" stroke-linecap="round" stroke-linejoin="round"/>
<path d="M825.717 336.638L827.863 348.312" stroke="#242A3D" stroke-width="1.71667" stroke-linecap="round" stroke-linejoin="round"/>
<path d="M779.109 336.982L766.921 409.253" stroke="#242A3D" stroke-width="1.71667" stroke-linecap="round" stroke-linejoin="round"/>
<path d="M737.793 303.029L731.558 353.891" stroke="#242A3D" stroke-width="1.71667" stroke-linecap="round" stroke-linejoin="round"/>
<path d="M755.591 206.343C755.591 206.343 748.123 251.835 760.655 297.155" stroke="#242A3D" stroke-width="1.71667" stroke-linecap="round" stroke-linejoin="round"/>
<path d="M724.777 260.933C724.777 260.933 717.593 303.792 701.714 310.315C701.714 310.315 714.218 324.334 735.056 323.576" stroke="#242A3D" stroke-width="1.71667" stroke-linecap="round" stroke-linejoin="round"/>
<path d="M758.853 170.122C758.853 170.122 760.312 168.148 762.544 170.122" stroke="#242A3D" stroke-width="1.71667" stroke-linecap="round" stroke-linejoin="round"/>
<path d="M743.918 169.692C743.918 169.692 745.377 167.718 747.609 169.692" stroke="#242A3D" stroke-width="1.71667" stroke-linecap="round" stroke-linejoin="round"/>
<path d="M757.651 163.083C757.651 163.083 760.483 161.109 765.033 163.083" stroke="#242A3D" stroke-width="1.71667" stroke-linecap="round" stroke-linejoin="round"/>
<path d="M741.085 161.453C741.085 161.453 744.261 160.251 747.437 162.483" stroke="#242A3D" stroke-width="1.71667" stroke-linecap="round" stroke-linejoin="round"/>
<path d="M747.094 181.538L761.6 180.765C761.6 180.765 762.544 187.803 754.39 188.147C747.523 188.49 747.094 181.538 747.094 181.538Z" stroke="#242A3D" stroke-width="1.71667" stroke-linecap="round" stroke-linejoin="round"/>
<path d="M751.128 173.984L750.355 175.787" stroke="#242A3D" stroke-width="1.71667" stroke-linecap="round" stroke-linejoin="round"/>
<path d="M748.295 185.228C748.295 185.228 752.072 183.34 754.39 185.572C754.39 185.572 757.737 182.825 760.655 185.142" stroke="#242A3D" stroke-width="1.71667" stroke-linecap="round" stroke-linejoin="round"/>
<path d="M875.071 294.666L889.748 276.469C890.864 275.096 892.838 274.924 894.126 276.04L923.309 299.816C925.112 301.275 924.768 304.193 922.622 305.138C919.962 306.253 916.357 307.112 912.666 305.567C905.627 302.563 902.28 297.756 900.048 299.215C897.902 300.674 890.95 308.914 890.95 308.914L875.071 294.666Z" stroke="#242A3D" stroke-width="1.71667" stroke-linecap="round" stroke-linejoin="round"/>
<path d="M889.319 277.07L899.791 285.911" stroke="#242A3D" stroke-width="1.71667" stroke-linecap="round" stroke-linejoin="round"/>
<path d="M905.284 301.189L906.743 297.155" stroke="#242A3D" stroke-width="1.71667" stroke-linecap="round" stroke-linejoin="round"/>
<path d="M909.404 303.421L910.949 299.472" stroke="#242A3D" stroke-width="1.71667" stroke-linecap="round" stroke-linejoin="round"/>
<path d="M912.837 305.138L914.297 301.189" stroke="#242A3D" stroke-width="1.71667" stroke-linecap="round" stroke-linejoin="round"/>
<path d="M678.684 161.109C678.684 161.109 668.985 141.11 672.161 136.99C675.337 132.87 679.199 138.106 680.229 140.338C681.259 142.569 678.684 143.256 676.195 140.938" stroke="#242A3D" stroke-width="1.71667" stroke-linecap="round" stroke-linejoin="round"/>
<path d="M674.564 135.445C674.564 135.445 677.568 130.295 681.259 132.87C684.95 135.445 687.954 141.711 686.409 143.084C684.864 144.458 680.487 140.853 680.487 140.853" stroke="#242A3D" stroke-width="1.71667" stroke-linecap="round" stroke-linejoin="round"/>
<path d="M680.144 132.355C680.144 132.355 681.259 129.866 684.693 131.325C688.126 132.698 692.418 138.707 692.246 141.196C692.074 143.771 688.04 142.741 686.667 140.853" stroke="#242A3D" stroke-width="1.71667" stroke-linecap="round" stroke-linejoin="round"/>
<path d="M691.731 157.418C691.13 154.414 692.847 152.183 694.392 147.118C695.937 142.054 690.959 142.655 686.495 143.599C681.946 144.543 679.543 146.947 683.062 147.719C686.581 148.492 689.242 147.033 689.242 147.033C689.242 147.033 684.521 148.492 683.062 151.925" stroke="#242A3D" stroke-width="1.71667" stroke-linecap="round" stroke-linejoin="round"/>
<path d="M870.522 194.37H803.057C799.795 194.37 797.134 191.71 797.134 188.448V145.789C797.134 142.527 799.795 139.866 803.057 139.866H870.522C873.783 139.866 876.444 142.527 876.444 145.789V188.448C876.53 191.71 873.869 194.37 870.522 194.37Z" fill="#F8F8F4"/>
<path d="M870.522 194.37H803.057C799.795 194.37 797.134 191.71 797.134 188.448V145.789C797.134 142.527 799.795 139.866 803.057 139.866H870.522C873.783 139.866 876.444 142.527 876.444 145.789V188.448C876.53 191.71 873.869 194.37 870.522 194.37Z" stroke="#242A3D" stroke-width="1.71667" stroke-linecap="round" stroke-linejoin="round"/>
<path d="M870.522 194.37H811.297C808.035 194.37 805.374 191.71 805.374 188.448V145.789C805.374 142.527 808.035 139.866 811.297 139.866H870.522C873.783 139.866 876.444 142.527 876.444 145.789V188.448C876.53 191.71 873.869 194.37 870.522 194.37Z" fill="#F8F8F4"/>
<path d="M870.522 194.37H811.297C808.035 194.37 805.374 191.71 805.374 188.448V145.789C805.374 142.527 808.035 139.866 811.297 139.866H870.522C873.783 139.866 876.444 142.527 876.444 145.789V188.448C876.53 191.71 873.869 194.37 870.522 194.37Z" stroke="#242A3D" stroke-width="1.71667" stroke-linecap="round" stroke-linejoin="round"/>
<path d="M805.374 160.552L840.909 175.659L876.53 160.552" stroke="#242A3D" stroke-width="1.71667" stroke-linecap="round" stroke-linejoin="round"/>
<path d="M843.742 181.495H838.163C837.133 181.495 836.274 180.637 836.274 179.607V166.818C836.274 165.788 837.133 164.93 838.163 164.93H843.742C844.772 164.93 845.63 165.788 845.63 166.818V179.607C845.63 180.637 844.772 181.495 843.742 181.495Z" fill="#242A3D"/>
<path d="M844.441 131.626H857.904C858.505 131.626 859.02 132.141 859.02 132.742V139.866H862.711V131.111C862.711 129.309 861.252 127.764 859.363 127.764H822.627C820.824 127.764 819.279 129.223 819.279 131.111V139.866H822.97V132.742C822.97 132.141 823.485 131.626 824.086 131.626H831.051" stroke="#242A3D" stroke-width="1.71667" stroke-linecap="round" stroke-linejoin="round"/>
<path d="M848.806 139.866C848.806 139.866 850.698 136.128 852.049 132.006M853.179 127.592C853.536 125.42 853.471 123.491 852.582 122.356C849.492 118.408 845.887 123.386 844.857 125.532C843.827 127.678 846.316 128.279 848.72 126.133L853.179 127.592Z" stroke="#242A3D" stroke-width="1.71667" stroke-linecap="round" stroke-linejoin="round"/>
<path d="M850.265 120.811C850.265 120.811 847.432 115.919 843.913 118.408C840.394 120.897 837.476 126.905 839.021 128.107C840.566 129.395 844.686 125.961 844.686 125.961" stroke="#242A3D" stroke-width="1.71667" stroke-linecap="round" stroke-linejoin="round"/>
<path d="M844.943 117.893C844.943 117.893 843.913 115.575 840.566 116.863C837.304 118.236 833.184 123.901 833.356 126.305C833.527 128.794 837.39 127.764 838.677 126.047" stroke="#242A3D" stroke-width="1.71667" stroke-linecap="round" stroke-linejoin="round"/>
<path d="M833.356 139.866C833.528 137.291 832.326 136.605 831.296 132.055C830.18 127.077 834.558 127.764 838.849 128.622C843.141 129.48 845.544 131.884 842.111 132.57C838.763 133.343 836.188 131.97 836.188 131.97C836.188 131.97 840.738 133.343 842.111 136.69" stroke="#242A3D" stroke-width="1.71667" stroke-linecap="round" stroke-linejoin="round"/>
<path d="M775.333 194.069L772.243 216.729L761.514 206.858L756.707 209.862L755.591 206.343L750.355 209.433L749.669 204.197L740.399 206L751.557 194.927" stroke="#242A3D" stroke-width="1.71667" stroke-linecap="round" stroke-linejoin="round"/>
<path d="M417.579 168.577C417.579 168.577 408.738 185.658 409.768 197.588C410.712 208.575 423.931 216.042 438.351 210.206" stroke="#242A3D" stroke-width="1.71667" stroke-linecap="round" stroke-linejoin="round"/>
<path d="M418.952 210.206C418.952 210.206 417.407 216.3 409.253 215.785C400.584 215.27 395.434 208.06 400.241 199.305C405.047 190.55 411.828 182.653 413.802 173.555C415.777 164.457 422.643 150.208 441.956 154.328C461.268 158.363 461.526 175.529 463.071 183.512C464.616 191.494 474.057 200.764 472.427 210.978C470.796 221.193 456.977 227.201 448.393 218.875C439.81 210.549 444.273 200.678 444.273 200.678C444.273 200.678 450.367 200.507 451.569 193.383C452.771 186.258 443.93 182.31 441.097 192.009C441.097 192.009 440.497 187.117 441.87 183.769C441.87 183.769 424.274 178.104 419.382 166.345C419.382 166.345 410.712 182.482 409.768 193.983C408.738 205.399 418.952 210.206 418.952 210.206Z" fill="#242A3D"/>
<path d="M419.21 166.259C419.21 166.259 422.386 185.143 443.071 185.829" stroke="#242A3D" stroke-width="1.71667" stroke-linecap="round" stroke-linejoin="round"/>
<path d="M406.593 171.066C406.593 171.066 413.288 173.469 419.811 161.453" stroke="#242A3D" stroke-width="1.71667" stroke-linecap="round" stroke-linejoin="round"/>
<path d="M465.903 171.838C471.64 171.838 476.289 167.189 476.289 161.453C476.289 155.716 471.64 151.067 465.903 151.067C460.167 151.067 455.518 155.716 455.518 161.453C455.518 167.189 460.167 171.838 465.903 171.838Z" fill="#242A3D"/>
<path d="M443.586 195.357L448.05 190.636" stroke="#242A3D" stroke-width="1.71667" stroke-linecap="round" stroke-linejoin="round"/>
<path d="M445.217 193.812L446.848 195.786" stroke="#242A3D" stroke-width="1.71667" stroke-linecap="round" stroke-linejoin="round"/>
<path d="M419.382 210.635C419.382 210.635 436.978 218.875 450.282 209.09L456.977 214.412C456.977 214.412 449.338 223.338 434.231 222.738C419.124 222.137 414.489 216.3 414.489 216.3L419.382 210.635Z" stroke="#242A3D" stroke-width="1.71667" stroke-linecap="round" stroke-linejoin="round"/>
<path d="M419.811 219.733L422.815 211.923" stroke="#242A3D" stroke-width="1.71667" stroke-linecap="round" stroke-linejoin="round"/>
<path d="M452.17 218.188L447.192 210.978" stroke="#242A3D" stroke-width="1.71667" stroke-linecap="round" stroke-linejoin="round"/>
<path d="M442.042 213.038L444.617 221.536" stroke="#242A3D" stroke-width="1.71667" stroke-linecap="round" stroke-linejoin="round"/>
<path d="M428.909 213.468L427.364 221.793" stroke="#242A3D" stroke-width="1.71667" stroke-linecap="round" stroke-linejoin="round"/>
<path d="M435.69 213.897V222.738" stroke="#242A3D" stroke-width="1.71667" stroke-linecap="round" stroke-linejoin="round"/>
<path d="M414.489 216.214C414.489 216.214 393.889 218.961 378.697 221.793C378.697 221.793 362.045 188.061 355.951 175.357C355.951 175.357 345.737 183.168 334.922 183.941C334.922 183.941 348.827 223.596 353.547 234.582C358.268 245.569 366.766 249.689 375.177 249.775C379.984 249.861 399.554 247.372 399.554 247.372L390.284 317.068C389.597 321.875 392.516 326.51 397.237 327.969C408.652 331.574 431.913 336.209 465.131 329.6" stroke="#242A3D" stroke-width="1.71667" stroke-linecap="round" stroke-linejoin="round"/>
<path d="M352.003 170.637C352.26 171.323 348.569 173.555 343.677 175.529C338.784 177.503 334.578 178.533 334.235 177.847" stroke="#242A3D" stroke-width="1.71667" stroke-linecap="round" stroke-linejoin="round"/>
<path d="M335.952 183.855L334.235 177.847C334.235 177.847 333.634 176.302 334.922 175.1" stroke="#242A3D" stroke-width="1.71667" stroke-linecap="round" stroke-linejoin="round"/>
<path d="M355.092 175.958L352.002 170.637C352.002 170.637 351.487 169.263 349.599 169.607" stroke="#242A3D" stroke-width="1.71667" stroke-linecap="round" stroke-linejoin="round"/>
<path d="M398.181 257.929L400.927 238.96" stroke="#242A3D" stroke-width="1.71667" stroke-linecap="round" stroke-linejoin="round"/>
<path d="M393.202 325.566L385.22 393.632C384.362 400.756 384.276 408.052 384.877 415.176L387.537 445.046" stroke="#242A3D" stroke-width="1.71667" stroke-linecap="round" stroke-linejoin="round"/>
<path d="M420.24 445.046L417.751 408.052L435.69 363.676" stroke="#242A3D" stroke-width="1.71667" stroke-linecap="round" stroke-linejoin="round"/>
<path d="M432.342 344.363L450.882 445.046" stroke="#242A3D" stroke-width="1.71667" stroke-linecap="round" stroke-linejoin="round"/>
<path d="M479.379 347.711L487.705 445.046" stroke="#242A3D" stroke-width="1.71667" stroke-linecap="round" stroke-linejoin="round"/>
<path d="M435.947 182.739C435.947 182.739 434.917 180.508 432.085 180.508" stroke="#242A3D" stroke-width="1.71667" stroke-linecap="round" stroke-linejoin="round"/>
<path d="M422.472 175.958C422.472 175.958 420.669 174.242 418.094 175.186" stroke="#242A3D" stroke-width="1.71667" stroke-linecap="round" stroke-linejoin="round"/>
<path d="M431.158 187.694C431.581 186.587 431.277 185.443 430.48 185.138C429.683 184.834 428.694 185.485 428.271 186.592C427.848 187.699 428.152 188.844 428.949 189.147C429.746 189.452 430.735 188.802 431.158 187.694Z" fill="#242A3D"/>
<path d="M420.305 182.506C420.728 181.398 420.424 180.254 419.627 179.95C418.83 179.646 417.842 180.296 417.418 181.404C416.995 182.511 417.299 183.655 418.096 183.959C418.893 184.264 419.882 183.613 420.305 182.506Z" fill="#242A3D"/>
<path d="M419.982 186.602C419.982 186.602 418.781 187.46 417.493 187.718C416.206 187.975 415.777 189.606 416.292 190.893" stroke="#242A3D" stroke-width="1.71667" stroke-linecap="round" stroke-linejoin="round"/>
<path d="M419.982 199.477C419.982 199.477 424.703 201.193 428.137 196.73" stroke="#242A3D" stroke-width="1.71667" stroke-linecap="round" stroke-linejoin="round"/>
<path d="M417.751 229.432L403.674 329.772" stroke="#242A3D" stroke-width="1.71667" stroke-linecap="round" stroke-linejoin="round"/>
<path d="M430.025 233.724L422.214 332.433" stroke="#242A3D" stroke-width="1.71667" stroke-linecap="round" stroke-linejoin="round"/>
<path d="M445.475 242.222L441.956 332.433" stroke="#242A3D" stroke-width="1.71667" stroke-linecap="round" stroke-linejoin="round"/>
<path d="M462.384 267.886V329.772" stroke="#242A3D" stroke-width="1.71667" stroke-linecap="round" stroke-linejoin="round"/>
<path d="M393.031 236.986L382.387 237.93C376.121 238.531 370.199 235.012 367.624 229.261L349.256 188.061" stroke="#242A3D" stroke-width="1.71667" stroke-linecap="round" stroke-linejoin="round"/>
<path d="M456.976 214.412C456.976 214.412 472.512 221.536 489.25 243.595C505.3 264.882 512.682 274.323 507.532 286.254L498.605 305.138C490.537 322.819 479.379 347.625 479.379 347.625C467.105 348.913 462.298 338.784 462.298 338.784L482.726 279.388L461.268 250.633" stroke="#242A3D" stroke-width="1.71667" stroke-linecap="round" stroke-linejoin="round"/>
<path d="M460.41 334.407C460.41 334.407 462.642 342.046 469.766 346.08" stroke="#242A3D" stroke-width="1.71667" stroke-linecap="round" stroke-linejoin="round"/>
<path d="M350.801 172.01C350.801 172.01 348.913 168.319 348.398 166.259C347.883 164.285 351.659 158.706 351.574 156.045C351.488 153.384 347.969 154.157 346.424 156.217C344.879 158.277 344.364 159.822 341.617 161.195C338.87 162.568 337.239 166.173 338.613 169.263" stroke="#242A3D" stroke-width="1.71667" stroke-linecap="round" stroke-linejoin="round"/>
<path d="M335.951 178.104C335.951 178.104 334.492 172.783 331.746 168.577C328.999 164.371 325.48 157.676 324.364 155.873C322.819 153.298 325.823 150.723 328.226 153.899C330.63 157.075 333.72 160.68 333.72 160.68C333.72 160.68 328.656 150.294 327.797 147.891C326.939 145.573 330.63 143.17 332.518 146.432C334.406 149.693 338.612 158.191 338.612 158.191C338.612 158.191 335.951 147.29 335.608 145.831C334.836 142.827 339.299 141.11 340.586 144.543C341.788 147.977 344.706 158.105 344.706 158.105" stroke="#242A3D" stroke-width="1.71667" stroke-linecap="round" stroke-linejoin="round"/>
<path d="M433.544 350.629L410.541 397.065C408.138 401.872 407.108 407.193 407.451 412.429L409.597 445.218" stroke="#242A3D" stroke-width="1.71667" stroke-linecap="round" stroke-linejoin="round" stroke-dasharray="3.43 3.43"/>
<path d="M1186.39 118.201L1182.7 107.807C1181.24 102.227 1180.9 96.82 1182.53 91.0692H1143.99C1150.34 113.901 1126.39 131.754 1120.98 172.096" stroke="#242A3D" stroke-width="1.71667" stroke-linecap="round" stroke-linejoin="round"/>
<path d="M1120.57 208.136L1123.04 219.304C1125.28 231.75 1128.37 242.479 1130.68 249.689C1132.49 255.182 1137.55 258.959 1143.39 258.959H1183.21C1189.05 258.959 1194.11 255.182 1195.92 249.689C1200.89 234.067 1209.48 201.451 1205.62 172.096C1203.56 156.989 1198.92 144.972 1194.29 134.758" stroke="#242A3D" stroke-width="1.71667" stroke-linecap="round" stroke-linejoin="round"/>
<path d="M1186.99 83.8592H1139.52C1137.55 83.8592 1135.92 85.49 1135.92 87.4642C1135.92 89.4384 1137.55 91.0692 1139.52 91.0692H1186.99C1188.96 91.0692 1190.59 89.4384 1190.59 87.4642C1190.59 85.49 1188.96 83.8592 1186.99 83.8592Z" stroke="#242A3D" stroke-width="1.71667" stroke-linecap="round" stroke-linejoin="round"/>
<path d="M1196.95 246.084H1140.64" stroke="#242A3D" stroke-width="1.71667" stroke-linecap="round" stroke-linejoin="round"/>
<path d="M1173.08 83.8592C1173.08 83.8592 1174.2 52.3583 1197.72 42.6592C1197.72 42.6592 1183.64 52.7017 1182.01 83.8592" stroke="#242A3D" stroke-width="1.71667" stroke-linecap="round" stroke-linejoin="round"/>
<path d="M1163.21 83.8592C1163.21 83.8592 1159.61 30.385 1202.87 9.78503C1202.87 9.78503 1190.85 14.0767 1184.41 52.53" stroke="#242A3D" stroke-width="1.71667" stroke-linecap="round" stroke-linejoin="round"/>
<path d="M1144.42 83.8591C1144.42 83.8591 1143.64 55.4483 1119.95 44.3758C1119.95 44.3758 1154.46 53.9033 1156.52 83.8591" stroke="#242A3D" stroke-width="1.71667" stroke-linecap="round" stroke-linejoin="round"/>
<path d="M1144.59 58.71C1144.59 58.71 1135.15 23.9475 1115.58 16.5658C1115.58 16.5658 1158.84 24.4625 1164.24 68.0658" stroke="#242A3D" stroke-width="1.71667" stroke-linecap="round" stroke-linejoin="round"/>
<path d="M1150.34 36.4792C1150.34 36.4792 1148.36 14.2484 1133.43 0.858398C1133.43 0.858398 1164.42 9.6134 1169.65 44.3759" stroke="#242A3D" stroke-width="1.71667" stroke-linecap="round" stroke-linejoin="round"/>
<path d="M324.965 319.3V444.96" stroke="#242A3D" stroke-width="1.71667" stroke-linecap="round" stroke-linejoin="round"/>
<path d="M0 192.438H324.965V279.473" stroke="#242A3D" stroke-width="1.71667" stroke-linecap="round" stroke-linejoin="round"/>
<path d="M0 192.438H177.933V294.408V313.549V445.046" stroke="#242A3D" stroke-width="1.71667" stroke-linecap="round" stroke-linejoin="round"/>
<path d="M290.288 444.188H212.695V372.688C212.695 351.23 230.033 333.892 251.491 333.892C272.95 333.892 290.288 351.23 290.288 372.688V444.188Z" stroke="#242A3D" stroke-width="1.71667" stroke-linecap="round" stroke-linejoin="round"/>
<path d="M247.2 334.75C227.801 336.896 212.695 353.376 212.695 373.289V444.788H281.705V373.289C281.705 353.29 266.598 336.896 247.2 334.75Z" fill="#242A3D"/>
<path d="M69.5249 222.48H22.0591V237.758H69.5249V222.48Z" stroke="#242A3D" stroke-width="1.71667" stroke-linecap="round" stroke-linejoin="round"/>
<path d="M0 247.028H39.9125V262.307H0" stroke="#242A3D" stroke-width="1.71667" stroke-linecap="round" stroke-linejoin="round"/>
<path d="M99.4807 247.028H52.0149V262.307H99.4807V247.028Z" stroke="#242A3D" stroke-width="1.71667" stroke-linecap="round" stroke-linejoin="round"/>
<path d="M129.437 222.48H81.9707V237.758H129.437V222.48Z" stroke="#242A3D" stroke-width="1.71667" stroke-linecap="round" stroke-linejoin="round"/>
<path d="M176.645 63.1734C176.645 63.1734 168.92 61.6284 164.714 51.9292C160.508 42.2301 163.856 35.1917 165.315 32.9601C165.315 32.9601 159.907 35.6209 158.362 34.1617C156.731 32.6167 159.821 30.3851 165.401 31.5009C165.401 31.5009 159.135 26.9517 161.624 24.4626C164.113 21.9734 166.345 29.7842 166.345 29.7842C166.345 29.7842 167.375 18.8834 180.593 14.4201C193.811 9.95673 203.768 17.5101 203.768 17.5101C203.768 17.5101 211.665 15.2784 214.583 20.2567C216.901 24.2051 211.321 26.8659 211.321 26.8659V33.6467L209.261 27.8101C209.261 27.8101 206.257 31.1576 194.584 29.9559C194.584 29.9559 195.786 32.4451 193.811 34.4192C191.837 36.3934 185.4 33.8184 185.4 33.8184C185.4 33.8184 188.061 38.9684 185.314 43.3459C182.567 47.7234 183.769 50.7276 183.769 50.7276C183.769 50.7276 179.649 45.1484 174.842 48.5817C169.864 52.1009 173.297 59.2251 177.503 60.4267C177.761 61.0276 176.645 63.1734 176.645 63.1734Z" fill="#242A3D"/>
<path d="M209.862 27.3808C209.862 27.3808 212.008 38.3675 213.896 47.2941C215.785 56.2208 211.15 66.7783 202.051 69.2675C192.953 71.7566 187.717 65.92 187.717 65.92" stroke="#242A3D" stroke-width="1.71667" stroke-linecap="round" stroke-linejoin="round"/>
<path d="M177.246 60.5125L173.04 69.9542C173.04 69.9542 186.43 82.3142 202.996 73.0442L202.052 69.3533" stroke="#242A3D" stroke-width="1.71667" stroke-linecap="round" stroke-linejoin="round"/>
<path d="M176.13 52.1008L181.709 55.5342" stroke="#242A3D" stroke-width="1.71667" stroke-linecap="round" stroke-linejoin="round"/>
<path d="M178.276 55.7917L179.306 54.075" stroke="#242A3D" stroke-width="1.71667" stroke-linecap="round" stroke-linejoin="round"/>
<path d="M192.868 38.0242C192.868 38.0242 194.584 36.3075 197.074 37.3375" stroke="#242A3D" stroke-width="1.71667" stroke-linecap="round" stroke-linejoin="round"/>
<path d="M204.283 37.08C204.283 37.08 206 35.3634 208.489 36.3934" stroke="#242A3D" stroke-width="1.71667" stroke-linecap="round" stroke-linejoin="round"/>
<path d="M196.988 46.2642C197.794 46.2642 198.447 45.3415 198.447 44.2042C198.447 43.0669 197.794 42.1442 196.988 42.1442C196.182 42.1442 195.529 43.0661 195.529 44.2042C195.529 45.3424 196.182 46.2642 196.988 46.2642Z" fill="#242A3D"/>
<path d="M208.575 45.32C209.381 45.32 210.034 44.3982 210.034 43.26C210.034 42.1227 209.381 41.2 208.575 41.2C207.769 41.2 207.116 42.1227 207.116 43.26C207.116 44.3982 207.769 45.32 208.575 45.32Z" fill="#242A3D"/>
<path d="M205.657 47.2084C205.657 47.2084 206.515 48.3242 207.717 48.8392C208.918 49.3542 208.918 51.0709 208.06 52.1009" stroke="#242A3D" stroke-width="1.71667" stroke-linecap="round" stroke-linejoin="round"/>
<path d="M133.9 105.146L166.002 117.42L163.942 122.999L132.269 110.382C141.968 75.7908 172.954 69.9542 172.954 69.9542" stroke="#242A3D" stroke-width="1.71667" stroke-linecap="round" stroke-linejoin="round"/>
<path d="M159.13 121.156L157.04 133.029C157.04 133.029 180.913 125.074 186.199 122.922C191.485 120.77 190.849 114.694 193.073 110.99C195.296 107.286 198.025 109.42 197.627 112.105C197.229 114.79 196.731 117.405 196.731 117.405C196.731 117.405 201.58 110.798 203.237 108.327C204.823 105.956 208.159 108.07 206.702 110.68C205.244 113.29 201.852 118.768 201.852 118.768C201.852 118.768 207.582 109.74 208.403 108.463C209.308 107.17 213.151 107.713 211.271 111.879C209.39 116.045 206.501 120.912 206.501 120.912C206.501 120.912 211.032 113.49 211.534 112.878C212.763 111.442 215.239 112.138 213.776 115.708C212.313 119.278 197.322 141.53 179.202 151.958C161.081 162.386 140.505 157.652 134.289 143.093C128.074 128.533 134.446 111.186 134.446 111.186" stroke="#242A3D" stroke-width="1.71667" stroke-linecap="round" stroke-linejoin="round"/>
<path d="M156.786 133.074L149.814 136.046" stroke="#242A3D" stroke-width="1.71667" stroke-linecap="round" stroke-linejoin="round"/>
<path d="M186.184 122.837L185.53 90.4434L208.471 93.0239L220.222 82.0628L220.01 121.408L209.283 130.271L204.774 129.41" stroke="#242A3D" stroke-width="1.71667" stroke-linecap="round" stroke-linejoin="round"/>
<path d="M188.906 90.8071L189.399 87.6698L207.89 89.7272L216.807 81.9675L219.104 83.1315" stroke="#242A3D" stroke-width="1.71667" stroke-linecap="round" stroke-linejoin="round"/>
<path d="M208.471 93.0239L208.751 107.965" stroke="#242A3D" stroke-width="1.71667" stroke-linecap="round" stroke-linejoin="round"/>
<path d="M209.076 123.161L209.283 130.271" stroke="#242A3D" stroke-width="1.71667" stroke-linecap="round" stroke-linejoin="round"/>
<path d="M202.996 73.0443C202.996 73.0443 219.304 75.4476 236.471 81.6276L234.754 114.416H225.741L230.376 158.62C230.376 158.62 197.846 167.118 151.238 160.766" stroke="#242A3D" stroke-width="1.71667" stroke-linecap="round" stroke-linejoin="round"/>
<path d="M231.664 79.9968L229.432 114.416" stroke="#242A3D" stroke-width="1.71667" stroke-linecap="round" stroke-linejoin="round"/>
<path d="M169.263 70.9841C169.263 70.9841 175.529 79.3958 189.091 79.9966C202.653 80.5975 206.429 73.645 206.429 73.645" stroke="#242A3D" stroke-width="1.71667" stroke-linecap="round" stroke-linejoin="round"/>
<path d="M236.3 84.5459L241.965 85.9192C241.965 85.9192 224.025 61.8859 222.395 60.5984C220.678 59.2251 216.987 58.6242 215.185 58.4526C213.382 58.2809 214.155 54.2467 217.33 54.5042C220.592 54.6759 222.309 55.0192 223.854 53.9034C225.399 52.7876 229.004 52.3584 230.377 53.9034" stroke="#242A3D" stroke-width="1.71667" stroke-linecap="round" stroke-linejoin="round"/>
<path d="M234.926 107.463C234.926 107.463 243.938 108.922 253.723 106.948C266.513 104.287 264.968 87.9791 259.474 80.0825C253.895 72.1858 233.638 48.6675 233.638 48.6675" stroke="#242A3D" stroke-width="1.71667" stroke-linecap="round" stroke-linejoin="round"/>
<path d="M223.113 53.7094C225.635 52.4991 225.783 47.568 223.444 42.6961C221.105 37.8242 217.165 34.8569 214.643 36.0672C212.122 37.2774 211.975 42.2077 214.313 47.0796C216.652 51.9515 220.592 54.9196 223.113 53.7094Z" stroke="#242A3D" stroke-width="1.71667" stroke-linecap="round" stroke-linejoin="round"/>
<path d="M217.158 36.05C216.729 38.1959 217.158 41.2859 218.703 44.3759C220.334 47.8092 222.823 50.2984 224.969 51.0709C225.398 48.925 224.969 45.8351 223.424 42.745C221.793 39.2259 219.304 36.7367 217.158 36.05Z" fill="#242A3D"/>
<path d="M214.669 36.05L237.758 24.9775C240.247 23.7758 244.196 26.78 246.513 31.5867C248.831 36.3933 248.745 41.3717 246.17 42.5733L223.081 53.6458" stroke="#242A3D" stroke-width="1.71667" stroke-linecap="round" stroke-linejoin="round"/>
<path d="M230.033 28.6683C232.523 27.4658 236.471 30.4708 238.788 35.2775C241.106 40.17 241.02 45.0625 238.445 46.2642" stroke="#242A3D" stroke-width="1.71667" stroke-linecap="round" stroke-linejoin="round"/>
<path d="M222.48 32.2734C224.969 31.0717 228.918 34.0759 231.235 38.8826C233.553 43.6892 233.467 48.6676 230.892 49.8692" stroke="#242A3D" stroke-width="1.71667" stroke-linecap="round" stroke-linejoin="round"/>
<path d="M246.513 31.6725C246.513 31.6725 253.638 29.0117 257.414 36.05C261.191 43.0884 252.264 62.5725 268.143 78.3659C284.023 94.1592 299.902 113.472 283.851 136.303C267.714 159.135 289.001 168.748 301.704 171.753C317.583 175.529 315.867 192.438 315.867 192.438" stroke="#242A3D" stroke-width="1.71667" stroke-linecap="round" stroke-linejoin="round"/>
<path d="M246.513 31.6725C246.513 31.6725 253.638 29.0117 257.414 36.05C261.191 43.0884 252.264 62.5725 268.143 78.3659C284.023 94.1592 299.902 113.472 283.851 136.303C267.714 159.135 289.001 168.748 301.704 171.753C317.583 175.529 315.867 192.438 315.867 192.438" stroke="#242A3D" stroke-width="8.58333" stroke-linecap="round" stroke-linejoin="round" stroke-dasharray="0.86 201.71"/>
<path d="M230.291 158.706C230.291 158.706 261.792 177.074 273.98 184.542C286.082 192.009 297.327 207.974 284.366 226.343C271.405 244.711 212.523 205.056 192.181 195.185C171.838 185.4 178.619 162.826 178.619 162.826C178.619 162.826 205.657 163.427 230.291 158.706Z" fill="#242A3D"/>
<path d="M279.851 191.981C293.177 200.31 291.095 216.134 285.889 223.214C272.928 241.582 215.62 292.71 215.62 292.71C215.62 292.71 203.088 285.328 194.677 276.487L250.317 205.919C250.317 205.919 266.524 183.652 279.851 191.981Z" fill="#242A3D"/>
<path d="M189.698 284.041C189.698 284.041 201.458 294.684 209.268 299.834C209.268 299.834 204.462 309.361 207.981 314.511C211.414 319.661 216.736 324.125 216.908 331.936C216.993 335.283 215.792 338.03 214.418 340.09C212.702 342.665 209.011 343.094 206.693 340.948L169.871 307.216C167.725 305.241 167.639 301.808 169.785 299.748C174.42 295.113 182.746 287.646 189.698 284.041Z" fill="#F8F8F4"/>
<path d="M189.698 284.041C189.698 284.041 201.458 294.684 209.268 299.834C209.268 299.834 204.462 309.361 207.981 314.511C211.414 319.661 216.736 324.125 216.908 331.936C216.993 335.283 215.792 338.03 214.418 340.09C212.702 342.665 209.011 343.094 206.693 340.948L169.871 307.216C167.725 305.241 167.639 301.808 169.785 299.748C174.42 295.113 182.746 287.646 189.698 284.041Z" stroke="#242A3D" stroke-width="1.71667" stroke-linecap="round" stroke-linejoin="round"/>
<path d="M207.723 298.89L215.277 289.706" stroke="#242A3D" stroke-width="1.71667" stroke-linecap="round" stroke-linejoin="round"/>
<path d="M191.329 285.5L200.685 274.599" stroke="#242A3D" stroke-width="1.71667" stroke-linecap="round" stroke-linejoin="round"/>
<path d="M212.616 341.635L168.841 300.864" stroke="#242A3D" stroke-width="1.71667" stroke-linecap="round" stroke-linejoin="round"/>
<path d="M184.12 306.1C187.344 306.1 189.956 303.487 189.956 300.263C189.956 297.039 187.344 294.426 184.12 294.426C180.896 294.426 178.283 297.039 178.283 300.263C178.283 303.487 180.896 306.1 184.12 306.1Z" stroke="#242A3D" stroke-width="1.71667" stroke-linecap="round" stroke-linejoin="round"/>
<path d="M209.44 316.571L203.089 317.859" stroke="#242A3D" stroke-width="1.71667" stroke-linecap="round" stroke-linejoin="round"/>
<path d="M212.101 320.434L206.608 321.55" stroke="#242A3D" stroke-width="1.71667" stroke-linecap="round" stroke-linejoin="round"/>
<path d="M214.762 324.296L210.298 325.24" stroke="#242A3D" stroke-width="1.71667" stroke-linecap="round" stroke-linejoin="round"/>
<path d="M203.689 296.057C203.689 296.057 198.282 305.756 200.685 313.567C203.088 321.378 215.534 325.841 215.963 336.914" stroke="#242A3D" stroke-width="1.71667" stroke-linecap="round" stroke-linejoin="round"/>
<path d="M207.38 304.984C207.38 304.984 190.728 294.169 185.063 286.787" stroke="#242A3D" stroke-width="1.71667" stroke-linecap="round" stroke-linejoin="round"/>
<path d="M151.239 160.852C151.239 160.852 141.969 188.061 163.513 201.108C187.804 215.871 242.651 230.205 242.651 230.205L301.19 287.971C301.19 287.971 311.404 283.164 320.588 270.461L269.86 209.433C264.281 202.91 257.415 197.588 249.775 193.812L211.665 174.928L203.597 163.255C203.597 163.255 161.281 162.998 151.239 160.852Z" fill="#242A3D"/>
<path d="M207.803 178.276L217.588 169.349" stroke="#E4E4E4" stroke-width="1.71667" stroke-linecap="round" stroke-linejoin="round"/>
<path d="M211.665 174.928L249.518 193.297C258.53 197.674 266.427 204.026 272.693 211.837L284.366 226.343" stroke="#E4E4E4" stroke-width="1.71667" stroke-linecap="round" stroke-linejoin="round"/>
<path d="M264.624 251.663L242.651 230.205" stroke="#E4E4E4" stroke-width="1.71667" stroke-linecap="round" stroke-linejoin="round"/>
<path d="M308.657 295.696C308.657 295.696 320.502 285.224 326.51 278.014C326.51 278.014 335.437 283.851 340.93 281.018C346.423 278.186 351.488 273.379 359.213 274.152C362.56 274.495 365.135 275.954 367.023 277.585C369.427 279.645 369.341 283.25 367.023 285.31L329.343 318.098C327.111 320.073 323.678 319.729 321.875 317.326C317.927 312.09 311.403 302.992 308.657 295.696Z" stroke="#242A3D" stroke-width="1.71667" stroke-linecap="round" stroke-linejoin="round"/>
<path d="M325.394 279.473L317.154 270.89" stroke="#242A3D" stroke-width="1.71667" stroke-linecap="round" stroke-linejoin="round"/>
<path d="M310.287 294.237L300.588 283.679" stroke="#242A3D" stroke-width="1.71667" stroke-linecap="round" stroke-linejoin="round"/>
<path d="M368.483 279.473L322.991 318.356" stroke="#242A3D" stroke-width="1.71667" stroke-linecap="round" stroke-linejoin="round"/>
<path d="M324.192 308.914C327.416 308.914 330.029 306.301 330.029 303.078C330.029 299.855 327.416 297.241 324.192 297.241C320.968 297.241 318.356 299.855 318.356 303.078C318.356 306.301 320.968 308.914 324.192 308.914Z" stroke="#242A3D" stroke-width="1.71667" stroke-linecap="round" stroke-linejoin="round"/>
<path d="M343.248 279.731L343.763 286.168" stroke="#242A3D" stroke-width="1.71667" stroke-linecap="round" stroke-linejoin="round"/>
<path d="M347.368 277.585L347.797 283.164" stroke="#242A3D" stroke-width="1.71667" stroke-linecap="round" stroke-linejoin="round"/>
<path d="M351.488 275.353L351.917 279.903" stroke="#242A3D" stroke-width="1.71667" stroke-linecap="round" stroke-linejoin="round"/>
<path d="M322.133 283.164C322.133 283.164 331.145 289.602 339.213 288.057C347.196 286.512 353.118 274.667 364.105 275.525" stroke="#242A3D" stroke-width="1.71667" stroke-linecap="round" stroke-linejoin="round"/>
<path d="M331.489 280.503C331.489 280.503 318.871 295.868 310.889 300.674" stroke="#242A3D" stroke-width="1.71667" stroke-linecap="round" stroke-linejoin="round"/>
<path d="M151.238 160.852L151.839 157.676" stroke="#242A3D" stroke-width="1.71667" stroke-linecap="round" stroke-linejoin="round"/>
<path d="M202.738 57.2509C201.794 57.1651 200.507 57.0792 199.133 55.3626C197.846 53.7317 195.013 54.0751 194.67 56.7359C194.327 59.3967 198.361 62.7442 202.738 62.3151C207.03 61.8859 207.287 59.2251 206.515 57.9376C205.828 56.7359 203.682 57.3367 202.738 57.2509Z" stroke="#242A3D" stroke-width="1.71667" stroke-linecap="round" stroke-linejoin="round"/>
<path d="M197.76 61.1133C197.76 61.1133 199.82 59.3108 202.138 59.9975C204.541 60.6842 204.713 61.8858 204.713 61.8858" stroke="#242A3D" stroke-width="1.71667" stroke-linecap="round" stroke-linejoin="round"/>
<path d="M92.8713 192.438H75.7047C66.1772 192.438 58.1088 185.486 56.7355 176.044L49.6113 127.033H119.05L111.84 176.044C110.467 185.486 102.399 192.438 92.8713 192.438Z" stroke="#242A3D" stroke-width="1.71667" stroke-linecap="round" stroke-linejoin="round"/>
<path d="M51.0708 137.333H117.506" stroke="#242A3D" stroke-width="1.71667" stroke-linecap="round" stroke-linejoin="round"/>
<path d="M86.5201 127.033C86.5201 127.033 83.7734 84.2025 100.082 71.9283C116.39 59.6542 134.673 71.7567 132.698 95.8758C132.698 95.8758 132.613 85.3183 121.54 83.2583C110.468 81.1983 95.5326 84.975 95.7042 76.3058" stroke="#242A3D" stroke-width="1.71667" stroke-linecap="round" stroke-linejoin="round"/>
<path d="M26.4367 122.827C26.4367 122.827 24.6342 86.0908 45.32 73.0441" stroke="#242A3D" stroke-width="1.71667" stroke-linecap="round" stroke-linejoin="round"/>
<path d="M43.0883 92.7C41.5433 92.7 40.2558 91.4125 40.2558 89.8675C40.2558 88.3225 41.5433 87.035 43.0883 87.035C44.6333 87.035 45.9208 88.3225 45.9208 89.8675C45.9208 91.4125 44.6333 92.7 43.0883 92.7ZM30.9858 77.6791C29.4408 77.6791 28.1533 76.3916 28.1533 74.8466C28.1533 73.3016 29.4408 72.0141 30.9858 72.0141C32.5308 72.0141 33.8183 73.3016 33.8183 74.8466C33.8183 76.3916 32.5308 77.6791 30.9858 77.6791ZM59.4825 89.7816C59.4825 86.9491 61.7141 84.7175 64.5466 84.7175C64.9758 84.7175 65.405 84.8033 65.7483 84.8891C65.4908 80.7691 64.0316 77.1641 61.4566 74.8466C53.8175 67.8083 45.2341 73.0441 45.2341 73.0441C37.5091 62.4866 22.7458 64.9758 18.3683 78.1083C21.115 78.1083 23.3466 80.4258 23.3466 83.1725C23.3466 86.005 21.115 88.2366 18.2825 88.2366C17.8533 88.2366 17.4241 88.1508 17.0808 88.065C17.3383 104.459 26.4366 122.827 26.4366 122.827C26.9516 117.248 30.2133 116.647 37.9383 113.987C37.595 113.214 37.4233 112.356 37.4233 111.412C37.4233 107.892 40.2558 105.06 43.775 105.06C46.5216 105.06 48.925 106.862 49.7833 109.352C50.0408 109.266 50.2125 109.18 50.47 109.008C57.5941 105.661 61.9716 100.425 64.2033 94.8458C61.5425 94.5883 59.4825 92.4425 59.4825 89.7816Z" stroke="#242A3D" stroke-width="1.71667" stroke-linecap="round" stroke-linejoin="round"/>
<path d="M9.87085 18.1967C9.87085 18.1967 55.7058 13.9909 73.13 39.14" stroke="#242A3D" stroke-width="1.71667" stroke-linecap="round" stroke-linejoin="round"/>
<path d="M48.496 37.4234C48.4102 35.4492 49.9552 33.8184 51.9293 33.7326C53.9035 33.6467 55.5343 35.1917 55.6202 37.1659C55.706 39.1401 54.161 40.7709 52.1868 40.8567C50.2127 40.9426 48.5818 39.3117 48.496 37.4234ZM66.6068 21.4584C66.521 19.4842 68.066 17.8534 70.0402 17.7676C72.0143 17.6817 73.6452 19.2267 73.731 21.2009C73.8168 23.1751 72.2718 24.8059 70.2977 24.8917C68.3235 24.9776 66.6927 23.4326 66.6068 21.4584ZM52.9593 57.6801C56.4785 57.5084 59.3968 60.2551 59.5685 63.7742C59.5685 64.2892 59.5685 64.8042 59.3968 65.3192C64.5468 64.8042 69.0102 62.7442 71.7568 59.3967C80.0827 49.4401 73.0443 39.0542 73.0443 39.0542C85.8335 28.9259 81.8852 10.5576 65.2335 5.7509C65.3193 9.18424 62.6585 12.1026 59.1393 12.2742C55.6202 12.4459 52.7018 9.69924 52.5302 6.18007C52.5302 5.66507 52.5302 5.15007 52.7018 4.63507C32.1877 5.83674 9.78516 18.1967 9.78516 18.1967C16.7377 18.5401 17.7677 22.5742 21.4585 32.1017C22.4027 31.5867 23.5185 31.3292 24.6343 31.2434C29.0118 31.0717 32.7027 34.4192 32.9602 38.8826C33.1318 42.3159 30.986 45.4059 27.9818 46.6076C28.1535 46.8651 28.2393 47.1226 28.411 47.4659C32.9602 56.1351 39.8268 61.4567 46.8652 63.8601C47.0368 60.5126 49.6977 57.8517 52.9593 57.6801Z" stroke="#242A3D" stroke-width="1.71667" stroke-linecap="round" stroke-linejoin="round"/>
<path d="M156.646 10.9008C156.646 10.9008 107.034 15.7933 93.644 46.0925" stroke="#242A3D" stroke-width="1.71667" stroke-linecap="round" stroke-linejoin="round"/>
<path d="M116.218 43.6034C114.073 43.9467 112.184 42.4876 111.841 40.3417C111.498 38.1959 112.957 36.3076 115.103 35.9642C117.248 35.6209 119.137 37.0801 119.48 39.2259C119.823 41.3717 118.364 43.3459 116.218 43.6034ZM93.7301 30.3851C91.5843 30.7284 89.6959 29.2692 89.3526 27.1234C89.0093 24.9776 90.4684 23.0892 92.6143 22.7459C94.7601 22.4026 96.6484 23.8617 96.9918 26.0076C97.3351 28.1534 95.8759 30.0417 93.7301 30.3851ZM126.604 67.0359C133.557 63.0017 139.823 55.9634 142.827 45.7492C142.913 45.4059 142.998 45.0626 143.084 44.8051C139.565 44.1184 136.733 41.3717 136.132 37.5951C135.445 32.8742 138.707 28.4967 143.428 27.8101C144.629 27.6384 145.831 27.7242 147.033 28.0676C149.007 17.1667 149.264 12.7034 156.646 10.9009C156.646 10.9009 130.295 2.40341 108.236 5.32174C108.408 5.83674 108.579 6.35174 108.665 6.95257C109.18 10.7292 106.605 14.1626 102.914 14.7634C99.2234 15.2784 95.7043 12.7892 95.1034 9.09841C78.3659 17.5959 78.0226 37.9384 93.6443 46.1784C93.6443 46.1784 88.3226 58.7101 99.2234 67.5509C102.828 70.4692 107.978 71.7567 113.558 71.2417C113.386 70.7267 113.214 70.2117 113.128 69.6109C112.613 65.8342 115.188 62.4009 118.879 61.8001C122.484 61.2851 125.832 63.6026 126.604 67.0359Z" stroke="#242A3D" stroke-width="1.71667" stroke-linecap="round" stroke-linejoin="round"/>
<path d="M73.1301 39.0541C73.1301 39.0541 92.786 46.0925 82.7435 127.033" stroke="#242A3D" stroke-width="1.71667" stroke-linecap="round" stroke-linejoin="round"/>
<path d="M45.3196 73.0442C45.3196 73.0442 49.8687 65.405 60.1687 67.8084C79.9962 72.4434 80.3396 127.033 80.3396 127.033" stroke="#242A3D" stroke-width="1.71667" stroke-linecap="round" stroke-linejoin="round"/>
<path d="M93.6442 46.0925C93.6442 46.0925 84.46 55.7917 82.2283 86.9492C79.9967 118.107 81.1983 127.033 81.1983 127.033" stroke="#242A3D" stroke-width="1.71667" stroke-linecap="round" stroke-linejoin="round"/>
<path d="M418.091 75.5218L353.884 52.1847C350.622 50.9835 347.017 52.7008 345.816 55.9626L338.438 76.3062C337.236 79.568 338.954 83.1728 342.215 84.374L346.937 86.0899L342.218 99.1373L357.237 89.8651L406.508 107.797C409.77 108.998 413.375 107.281 414.576 104.019L421.954 83.6754C423.07 80.2419 421.353 76.6371 418.091 75.5218Z" stroke="#242A3D" stroke-width="1.71667" stroke-linecap="round" stroke-linejoin="round"/>
<path d="M354.83 63.858L409.852 83.8489" stroke="#242A3D" stroke-width="1.71667" stroke-linecap="round" stroke-linejoin="round" stroke-dasharray="58.36 58.37"/>
<path d="M351.312 73.6435L386.334 86.4274" stroke="#242A3D" stroke-width="1.71667" stroke-linecap="round" stroke-linejoin="round" stroke-dasharray="36.9 36.91"/>
<path d="M422.811 71.487L426.243 60.3282" stroke="#242A3D" stroke-width="1.71667" stroke-linecap="round" stroke-linejoin="round" stroke-dasharray="11.15 11.16"/>
<path d="M426.769 76.2628L436.571 69.9204" stroke="#242A3D" stroke-width="1.71667" stroke-linecap="round" stroke-linejoin="round" stroke-dasharray="11.15 11.16"/>
<path d="M428.64 81.9434L440.056 84.3894" stroke="#242A3D" stroke-width="1.71667" stroke-linecap="round" stroke-linejoin="round" stroke-dasharray="11.15 11.16"/>
<path d="M315.515 56.3953C316.716 59.6571 320.407 61.3744 323.668 60.1732C326.93 58.972 328.648 55.2814 327.446 52.0196C326.245 48.7577 322.555 47.0405 319.293 48.2417C316.031 49.4429 312.34 47.7257 311.139 44.4638C309.938 41.202 311.655 37.5114 314.917 36.3102C318.179 35.109 321.869 36.8263 323.071 40.0881" stroke="#242A3D" stroke-width="1.71667" stroke-linecap="round" stroke-linejoin="round"/>
<path d="M314.917 36.3102L313.63 32.6191" stroke="#242A3D" stroke-width="1.71667" stroke-linecap="round" stroke-linejoin="round"/>
<path d="M324.955 63.8642L323.668 60.259" stroke="#242A3D" stroke-width="1.71667" stroke-linecap="round" stroke-linejoin="round"/>
<path d="M559.376 258.101C559.376 258.101 559.89 244.882 547.531 244.882C534.398 244.882 532.51 260.504 535.943 265.053C535.943 265.053 531.909 271.92 537.746 276.297C543.582 280.675 551.05 274.667 551.05 274.667L559.376 258.101Z" fill="#242A3D"/>
<path d="M563.839 294.838C563.839 294.838 548.646 291.662 547.616 278.272C546.586 264.882 555.685 261.105 555.685 261.105C555.685 261.105 556.801 247.629 571.65 246.513C586.499 245.312 598.001 254.925 596.284 271.148C596.284 271.148 593.108 255.783 575.684 259.303C575.684 259.303 578.86 268.916 570.877 275.525L569.847 283.422C569.847 283.422 566.328 277.499 561.178 281.104C556.715 284.28 557.831 291.404 564.268 292.348L563.839 294.838Z" fill="#242A3D"/>
<path d="M561.693 285.138L568.045 285.997" stroke="#242A3D" stroke-width="1.71667" stroke-linecap="round" stroke-linejoin="round"/>
<path d="M564.869 288.228L565.041 285.739" stroke="#242A3D" stroke-width="1.71667" stroke-linecap="round" stroke-linejoin="round"/>
<path d="M573.367 267.285C573.367 267.285 576.8 265.483 580.233 267.285" stroke="#242A3D" stroke-width="1.71667" stroke-linecap="round" stroke-linejoin="round"/>
<path d="M585.984 264.968C585.984 264.968 587.1 261.963 591.134 262.307" stroke="#242A3D" stroke-width="1.71667" stroke-linecap="round" stroke-linejoin="round"/>
<path d="M577.229 276.383C577.229 276.383 577.487 275.268 578.946 274.838C580.405 274.409 581.521 275.353 581.521 275.353" stroke="#242A3D" stroke-width="1.71667" stroke-linecap="round" stroke-linejoin="round"/>
<path d="M588.988 271.92C588.988 271.92 589.246 270.804 590.705 270.375C592.164 269.946 593.28 270.89 593.28 270.89" stroke="#242A3D" stroke-width="1.71667" stroke-linecap="round" stroke-linejoin="round"/>
<path d="M587.529 277.499C587.529 277.499 588.302 278.701 590.705 279.559C592.679 280.246 592.851 282.22 590.962 283.937" stroke="#242A3D" stroke-width="1.71667" stroke-linecap="round" stroke-linejoin="round"/>
<path d="M596.198 269.603C596.198 269.603 597.743 276.04 599.717 281.791C601.691 287.542 601.262 300.073 580.147 300.76" stroke="#242A3D" stroke-width="1.71667" stroke-linecap="round" stroke-linejoin="round"/>
<path d="M596.113 269.345C596.113 269.345 598.001 275.096 603.924 274.152" stroke="#242A3D" stroke-width="1.71667" stroke-linecap="round" stroke-linejoin="round"/>
<path d="M547.616 278.272C547.616 278.272 545.728 267.113 555.685 261.105C555.685 261.105 556.2 254.839 559.891 251.835" stroke="#E4E4E4" stroke-width="1.71667" stroke-linecap="round" stroke-linejoin="round"/>
<path d="M564.354 292.263L560.406 303.936L579.375 321.188L585.984 305.138L584.181 300.503" stroke="#242A3D" stroke-width="1.71667" stroke-linecap="round" stroke-linejoin="round"/>
<path d="M560.406 303.936H552.681" stroke="#242A3D" stroke-width="1.71667" stroke-linecap="round" stroke-linejoin="round"/>
<path d="M585.984 305.138H591.048" stroke="#242A3D" stroke-width="1.71667" stroke-linecap="round" stroke-linejoin="round"/>
<path d="M603.923 403.073C603.923 403.073 602.035 362.989 598.687 337.239C595.34 311.489 589.761 305.138 589.761 305.138C589.761 305.138 596.284 301.018 606.241 299.387C616.112 297.67 630.875 300.674 626.497 329.6C622.12 358.526 619.202 384.104 621.862 396.207L603.923 403.073Z" fill="#242A3D"/>
<path d="M629.759 276.383C629.759 276.383 619.888 327.54 617.657 338.956C615.425 350.372 622.893 357.238 632.248 357.238C641.69 357.238 645.81 350.372 646.325 340.072C646.84 329.858 648.814 279.302 648.814 279.302C648.814 279.302 637.055 283.508 629.759 276.383Z" fill="#242A3D"/>
<path d="M625.038 300.76L617.657 338.87" stroke="#E4E4E4" stroke-width="1.71667" stroke-linecap="round" stroke-linejoin="round"/>
<path d="M631.819 278.443C631.819 278.443 632.678 271.92 632.764 269.946C632.764 267.972 627.957 263.594 627.528 261.019C627.099 258.444 630.532 258.444 632.42 260.075C634.309 261.62 635.167 262.993 637.999 263.68C640.832 264.367 643.235 267.371 642.634 270.547" stroke="#242A3D" stroke-width="1.71667" stroke-linecap="round" stroke-linejoin="round"/>
<path d="M646.668 280.418C646.668 280.418 647.269 272.864 648.9 268.315C650.531 263.766 652.333 256.642 652.934 254.753C653.878 252.007 650.359 250.204 648.814 253.723C647.269 257.243 645.209 261.363 645.209 261.363C645.209 261.363 647.613 250.462 647.87 248.058C648.213 245.655 644.179 244.282 643.149 247.801C642.119 251.32 640.059 260.247 640.059 260.247C640.059 260.247 640.059 249.346 640.059 247.973C640.145 244.968 635.51 244.453 635.081 247.887C634.738 251.406 634.223 261.534 634.223 261.534" stroke="#242A3D" stroke-width="1.71667" stroke-linecap="round" stroke-linejoin="round"/>
<path d="M630.188 277.585C630.188 277.585 628.729 274.581 632.334 274.323" stroke="#242A3D" stroke-width="1.71667" stroke-linecap="round" stroke-linejoin="round"/>
<path d="M647.097 276.383C647.097 276.383 650.359 278.358 647.87 280.503" stroke="#242A3D" stroke-width="1.71667" stroke-linecap="round" stroke-linejoin="round"/>
<path d="M568.216 399.039C568.216 399.039 573.109 330.973 552.68 303.936C552.68 303.936 538.26 298.271 529.505 307.026C518.69 317.841 525.042 332.948 533.539 345.05C542.037 357.153 543.925 378.353 541.179 392.173C541.179 392.258 557.487 394.748 568.216 399.039Z" fill="#242A3D"/>
<path d="M502.131 311.615C502.131 311.615 498.09 303.507 494.915 299.816C491.739 296.125 487.533 290.117 486.331 288.572C484.529 286.34 487.104 283.422 489.765 286.168C492.425 288.915 495.859 292.005 495.859 292.005C495.859 292.005 489.765 282.649 488.649 280.503C487.533 278.357 490.795 275.611 493.026 278.529C495.258 281.448 500.322 289.087 500.322 289.087C500.322 289.087 496.46 278.958 495.945 277.585C494.829 274.753 498.949 272.607 500.58 275.782C502.21 278.873 506.159 288.228 506.159 288.228C506.159 288.228 508.131 284.255 510.329 284.192C512.528 284.128 512.987 286.016 511.944 289.149C510.901 292.283 509.868 294.238 510.72 295.893C511.571 297.548 515.602 305.192 515.602 305.192C515.602 305.192 507.372 314.026 502.131 311.615Z" fill="#F8F8F4"/>
<path d="M515.772 300.588C515.772 300.588 543.153 344.878 549.247 354.749C555.341 364.62 550.878 373.718 542.037 377.066C533.282 380.413 526.845 375.435 522.811 366.079C518.691 356.638 498.863 310.116 498.863 310.116C498.863 310.116 511.395 309.773 515.772 300.588Z" fill="#242A3D"/>
<path d="M523.326 312.862L549.247 354.749" stroke="#E4E4E4" stroke-width="1.71667" stroke-linecap="round" stroke-linejoin="round"/>
<path d="M514.485 303.249C514.485 303.249 511.309 297.498 510.622 295.61C509.935 293.722 512.854 287.971 512.425 285.396C511.996 282.821 508.734 284.023 507.446 286.254C506.245 288.4 505.901 289.945 503.498 291.576C501.095 293.207 499.893 296.898 501.61 299.644" stroke="#242A3D" stroke-width="1.71667" stroke-linecap="round" stroke-linejoin="round"/>
<path d="M501.352 310.373C501.352 310.373 498.09 303.507 494.915 299.816C491.739 296.125 487.533 290.117 486.331 288.572C484.529 286.34 487.104 283.422 489.765 286.168C492.425 288.915 495.859 292.005 495.859 292.005C495.859 292.005 489.765 282.649 488.649 280.503C487.533 278.357 490.795 275.611 493.026 278.529C495.258 281.448 500.322 289.087 500.322 289.087C500.322 289.087 496.46 278.958 495.945 277.585C494.829 274.753 498.949 272.607 500.58 275.782C502.21 278.873 506.159 288.228 506.159 288.228" stroke="#242A3D" stroke-width="1.71667" stroke-linecap="round" stroke-linejoin="round"/>
<path d="M515.772 301.876C515.772 301.876 516.03 298.614 512.596 299.558" stroke="#242A3D" stroke-width="1.71667" stroke-linecap="round" stroke-linejoin="round"/>
<path d="M499.464 306.683C499.464 306.683 497.146 309.687 500.151 310.803" stroke="#242A3D" stroke-width="1.71667" stroke-linecap="round" stroke-linejoin="round"/>
<path d="M605.726 414.403C605.726 414.403 568.388 395.778 534.999 391.743C500.923 387.623 495.43 422.901 521.008 433.888C537.66 441.012 605.726 445.303 605.726 445.303" stroke="#242A3D" stroke-width="1.71667" stroke-linecap="round" stroke-linejoin="round"/>
<path d="M742.287 406.593C758.681 407.623 768.981 409.168 768.981 410.884C768.981 414.06 732.416 416.721 687.354 416.721C642.291 416.721 605.726 414.146 605.726 410.884C605.726 409.253 615.339 407.708 630.789 406.678" stroke="#242A3D" stroke-width="1.71667" stroke-linecap="round" stroke-linejoin="round"/>
<path d="M768.981 410.884V445.046" stroke="#242A3D" stroke-width="1.71667" stroke-linecap="round" stroke-linejoin="round"/>
<path d="M605.726 410.884V445.046" stroke="#242A3D" stroke-width="1.71667" stroke-linecap="round" stroke-linejoin="round"/>
<path d="M592.507 408.052C592.507 408.052 617.141 396.378 631.39 392.173C645.638 387.967 659.8 385.048 664.006 393.374" stroke="#242A3D" stroke-width="1.71667" stroke-linecap="round" stroke-linejoin="round"/>
<path d="M585.383 288.829C584.439 288.743 583.152 288.658 581.778 286.941C580.491 285.31 577.658 285.653 577.315 288.314C576.972 290.975 581.006 294.323 585.383 293.893C589.675 293.464 589.933 290.803 589.16 289.516C588.473 288.4 586.328 288.915 585.383 288.829Z" stroke="#242A3D" stroke-width="1.71667" stroke-linecap="round" stroke-linejoin="round"/>
<path d="M580.405 292.692C580.405 292.692 582.465 290.889 584.782 291.576C587.186 292.263 587.357 293.464 587.357 293.464" stroke="#242A3D" stroke-width="1.71667" stroke-linecap="round" stroke-linejoin="round"/>
<path d="M753.542 337.005H668.061C665.486 337.005 663.427 334.946 663.427 332.371V307.31C663.427 304.736 665.486 302.676 668.061 302.676H753.542C756.117 302.676 758.176 304.736 758.176 307.31V332.371C758.091 334.946 756.117 337.005 753.542 337.005Z" fill="#F8F8F4"/>
<path d="M753.542 337.005H668.061C665.486 337.005 663.427 334.946 663.427 332.371V307.31C663.427 304.736 665.486 302.676 668.061 302.676H753.542C756.117 302.676 758.176 304.736 758.176 307.31V332.371C758.091 334.946 756.117 337.005 753.542 337.005Z" stroke="#242A3D" stroke-width="1.71648" stroke-linecap="round" stroke-linejoin="round"/>
<path d="M681.192 329.625C686.548 329.625 690.89 325.283 690.89 319.926C690.89 314.57 686.548 310.228 681.192 310.228C675.836 310.228 671.494 314.57 671.494 319.926C671.494 325.283 675.836 329.625 681.192 329.625Z" fill="#242A3D"/>
<path d="M676.901 319.326L680.162 322.587L685.569 317.18" stroke="#E4E4E4" stroke-width="1.71648" stroke-linecap="round" stroke-linejoin="round" stroke-dasharray="12.26 12.26"/>
<path d="M700.845 314.777H747.362" stroke="#242A3D" stroke-width="1.71648" stroke-linecap="round" stroke-linejoin="round"/>
<path d="M700.845 324.99H728.395" stroke="#242A3D" stroke-width="1.71648" stroke-linecap="round" stroke-linejoin="round"/>
<path d="M735.849 409.253H663.32C660.573 409.253 659.114 407.022 660.144 404.189L676.624 358.955C677.654 356.208 680.744 353.891 683.491 353.891H756.02C758.766 353.891 760.226 356.123 759.196 358.955L742.716 404.189C741.771 407.022 738.681 409.253 735.849 409.253Z" fill="#F8F8F4"/>
<path d="M735.849 409.253H663.32C660.573 409.253 659.114 407.022 660.144 404.189L676.624 358.955C677.654 356.208 680.744 353.891 683.491 353.891H756.02C758.766 353.891 760.226 356.123 759.196 358.955L742.716 404.189C741.771 407.022 738.681 409.253 735.849 409.253Z" stroke="#242A3D" stroke-width="1.71667" stroke-linecap="round" stroke-linejoin="round"/>
<path d="M713.653 386.343C717.402 383.214 718.669 378.554 716.482 375.934C714.294 373.313 709.483 373.724 705.733 376.853C701.985 379.981 700.718 384.641 702.905 387.262C705.092 389.882 709.904 389.471 713.653 386.343Z" stroke="#242A3D" stroke-width="1.71667" stroke-linecap="round" stroke-linejoin="round"/>
<path d="M671.989 409.253H634.651C632.505 409.253 630.789 407.537 630.789 405.391H659.8" stroke="#242A3D" stroke-width="1.71667" stroke-linecap="round" stroke-linejoin="round"/>
<path d="M590.877 169.349C590.877 156.903 580.491 146.947 567.959 147.548C556.887 148.063 547.788 157.247 547.273 168.319C547.016 174.242 549.076 179.649 552.681 183.683C554.569 185.829 555.771 188.576 555.771 191.408V196.558H582.379V191.323C582.379 188.49 583.581 185.743 585.469 183.598C588.817 179.907 590.877 174.843 590.877 169.349Z" stroke="#242A3D" stroke-width="1.71667" stroke-linecap="round" stroke-linejoin="round"/>
<path d="M555.084 196.644V202.824C555.084 205.056 556.544 207.03 558.604 207.803L564.612 209.863V211.408C564.612 212.352 565.384 213.124 566.329 213.124H571.908C572.852 213.124 573.624 212.352 573.624 211.408V209.863L579.633 207.803C581.779 207.03 583.152 205.056 583.152 202.824V196.644H555.084Z" fill="#242A3D"/>
<path d="M555.084 201.108H575.856" stroke="#E4E4E4" stroke-width="1.71667" stroke-linecap="round" stroke-linejoin="round"/>
<path d="M582.465 204.884H565.47" stroke="#E4E4E4" stroke-width="1.71667" stroke-linecap="round" stroke-linejoin="round"/>
<path d="M572.304 199.219V169.435C572.304 167.461 573.849 165.916 575.824 165.916H575.909C577.884 165.916 579.429 167.461 579.429 169.435C579.429 171.409 577.884 172.954 575.909 172.954H566.407" stroke="#242A3D" stroke-width="1.71667" stroke-linecap="round" stroke-linejoin="round" stroke-dasharray="55.57 55.58"/>
<path d="M565.511 199.219V169.435C565.511 167.461 563.966 165.916 561.991 165.916H561.906C559.931 165.916 558.386 167.461 558.386 169.435C558.386 171.409 559.931 172.954 561.906 172.954H571.408" stroke="#242A3D" stroke-width="1.71667" stroke-linecap="round" stroke-linejoin="round" stroke-dasharray="55.57 55.58"/>
<path d="M583.066 145.058L589.418 134.072" stroke="#242A3D" stroke-width="1.71667" stroke-linecap="round" stroke-linejoin="round" stroke-dasharray="12.7 12.7"/>
<path d="M544.098 184.027L533.111 190.378" stroke="#242A3D" stroke-width="1.71667" stroke-linecap="round" stroke-linejoin="round" stroke-dasharray="12.7 12.7"/>
<path d="M593.452 155.53L604.439 149.178" stroke="#242A3D" stroke-width="1.71667" stroke-linecap="round" stroke-linejoin="round" stroke-dasharray="12.7 12.7"/>
<path d="M538.518 169.778H527.532" stroke="#242A3D" stroke-width="1.71667" stroke-linecap="round" stroke-linejoin="round" stroke-dasharray="12.7 12.7"/>
<path d="M597.314 169.778H610.018" stroke="#242A3D" stroke-width="1.71667" stroke-linecap="round" stroke-linejoin="round" stroke-dasharray="12.7 12.7"/>
<path d="M544.098 155.53L533.111 149.178" stroke="#242A3D" stroke-width="1.71667" stroke-linecap="round" stroke-linejoin="round" stroke-dasharray="12.7 12.7"/>
<path d="M593.452 184.027L604.439 190.378" stroke="#242A3D" stroke-width="1.71667" stroke-linecap="round" stroke-linejoin="round" stroke-dasharray="12.7 12.7"/>
<path d="M554.484 145.058L548.132 134.072" stroke="#242A3D" stroke-width="1.71667" stroke-linecap="round" stroke-linejoin="round" stroke-dasharray="12.7 12.7"/>
<path d="M568.818 141.282V128.578" stroke="#242A3D" stroke-width="1.71667" stroke-linecap="round" stroke-linejoin="round" stroke-dasharray="12.7 12.7"/>
<path d="M1032.49 407.794H838.162V445.046" stroke="#242A3D" stroke-width="1.71667" stroke-linecap="round" stroke-linejoin="round"/>
<path d="M1073.17 407.794V370.628H878.848V407.794" stroke="#242A3D" stroke-width="1.71667" stroke-linecap="round" stroke-linejoin="round"/>
<path d="M1113.86 370.628V333.377H919.533V370.628" stroke="#242A3D" stroke-width="1.71667" stroke-linecap="round" stroke-linejoin="round"/>
<path d="M1154.63 333.377V296.211H960.218V333.377" stroke="#242A3D" stroke-width="1.71667" stroke-linecap="round" stroke-linejoin="round"/>
<path d="M1195.31 296.211V258.959H1000.99V296.211" stroke="#242A3D" stroke-width="1.71667" stroke-linecap="round" stroke-linejoin="round"/>
<path d="M1032.49 445.046V407.794H1073.17V370.628H1113.86V333.377H1154.63V296.211H1195.32" stroke="#242A3D" stroke-width="1.71667" stroke-linecap="round" stroke-linejoin="round"/>
<path d="M1195.31 258.959H1236" stroke="#242A3D" stroke-width="1.71667" stroke-linecap="round" stroke-linejoin="round"/>
<path d="M1178.41 398.267H1130.94V413.545H1178.41V398.267Z" stroke="#242A3D" stroke-width="1.71667" stroke-linecap="round" stroke-linejoin="round"/>
<path d="M1208.36 374.663H1160.9V389.941H1208.36V374.663Z" stroke="#242A3D" stroke-width="1.71667" stroke-linecap="round" stroke-linejoin="round"/>
<path d="M980.365 31.8443C985.172 20.1709 1000.79 16.4801 1011.61 24.9776C1022.42 33.5609 1017.62 49.0109 1017.62 49.0109C989.463 49.3543 980.622 40.9426 974.357 32.1876C971.009 27.6384 966.889 28.7543 966.889 28.7543C966.889 28.7543 971.181 27.2093 975.215 28.8401C982.597 31.8443 987.146 38.5393 987.146 43.6034" stroke="#242A3D" stroke-width="1.71667" stroke-linecap="round" stroke-linejoin="round"/>
<path d="M979.163 38.0242C979.163 38.0242 976.846 47.6376 975.386 50.2984C973.927 52.9592 972.125 53.6459 972.125 54.8476C972.125 56.0492 974.357 56.9076 974.357 56.9076C974.357 56.9076 972.897 66.5209 982.511 72.1001C989.978 76.4776 999.248 72.1001 999.248 72.1001" stroke="#242A3D" stroke-width="1.71667" stroke-linecap="round" stroke-linejoin="round"/>
<path d="M1004.57 70.04C1009.83 70.04 1014.1 65.7741 1014.1 60.5125C1014.1 55.2509 1009.83 50.985 1004.57 50.985C999.309 50.985 995.043 55.2509 995.043 60.5125C995.043 65.7749 999.309 70.04 1004.57 70.04Z" stroke="#242A3D" stroke-width="1.71667" stroke-linecap="round" stroke-linejoin="round"/>
<path d="M1004.57 66.0917C1007.65 66.0917 1010.15 63.5939 1010.15 60.5125C1010.15 57.4311 1007.65 54.9333 1004.57 54.9333C1001.49 54.9333 998.99 57.4311 998.99 60.5125C998.99 63.5939 1001.49 66.0917 1004.57 66.0917Z" stroke="#242A3D" stroke-width="1.71667" stroke-linecap="round" stroke-linejoin="round"/>
<path d="M1003.54 50.985C1003.54 50.985 1005.94 35.7067 1003.54 27.7242C1001.31 20.3425 996.244 20.4283 996.244 20.4283" stroke="#242A3D" stroke-width="1.71667" stroke-linecap="round" stroke-linejoin="round"/>
<path d="M1010.06 52.7016C1010.06 52.7016 1014.44 30.6424 1008.17 22.8316" stroke="#242A3D" stroke-width="1.71667" stroke-linecap="round" stroke-linejoin="round"/>
<path d="M1003.88 48.41C1003.88 48.41 996.244 47.6375 991.695 45.6633C991.695 45.6633 991.523 48.4958 993.325 49.0108C993.325 49.0108 991.78 54.1608 996.158 56.0492C996.158 56.0492 998.304 51.1567 1003.63 50.8992L1003.88 48.41Z" fill="#242A3D"/>
<path d="M1010.66 49.0967H1017.62C1017.62 49.0967 1020.19 50.47 1019.59 53.1308C1019.59 53.1308 1022.25 56.7358 1019.08 60.255C1019.08 60.255 1021.14 63.2592 1016.93 65.6625C1016.93 65.6625 1016.84 69.2675 1012.55 68.6667C1012.55 68.6667 1011.44 70.555 1009.12 68.8383C1009.12 68.8383 1014.87 66.8642 1013.84 58.3667C1013.84 58.3667 1013.07 54.2467 1009.98 52.6158L1010.66 49.0967Z" fill="#242A3D"/>
<path d="M980.708 45.7492C980.708 45.7492 983.455 45.1484 984.914 47.4659" stroke="#242A3D" stroke-width="1.71667" stroke-linecap="round" stroke-linejoin="round"/>
<path d="M982.425 53.9034C983.369 53.9034 984.142 53.1352 984.142 52.1867C984.142 51.2391 983.369 50.47 982.425 50.47C981.481 50.47 980.708 51.2382 980.708 52.1867C980.708 53.1352 981.481 53.9034 982.425 53.9034Z" fill="#242A3D"/>
<path d="M981.309 63.345L989.463 54.8475C989.463 54.8475 993.24 58.6242 990.322 62.5725C986.116 68.2375 981.309 63.345 981.309 63.345Z" stroke="#242A3D" stroke-width="1.71667" stroke-linecap="round" stroke-linejoin="round"/>
<path d="M984.485 65.1474C984.485 65.1474 984.914 62.7441 987.318 62.6583C987.318 62.6583 988.262 59.4824 991.352 60.0833" stroke="#242A3D" stroke-width="1.71667" stroke-linecap="round" stroke-linejoin="round"/>
<path d="M977.103 45.7492C977.103 45.7492 968.348 41.4575 964.915 36.8225C961.481 32.2733 964.743 28.7542 967.232 28.325C969.121 27.9817 972.125 28.9258 974.528 32.5308C976.931 36.1358 979.163 37.9383 979.163 37.9383L977.103 45.7492Z" fill="#242A3D"/>
<path d="M991.695 73.9025C991.695 73.9025 991.867 77.25 987.918 79.31C987.918 79.31 991.266 85.49 1002.94 84.5459C1014.61 83.6017 1019.51 75.2759 1019.51 75.2759C1015.3 74.8467 1011.61 72.5292 1009.29 69.01L1009.21 68.8384" stroke="#242A3D" stroke-width="1.71667" stroke-linecap="round" stroke-linejoin="round"/>
<path d="M987.918 79.3101L947.577 81.7992L950.323 111.068H977.704" stroke="#242A3D" stroke-width="1.71667" stroke-linecap="round" stroke-linejoin="round"/>
<path d="M985.686 79.5676C985.686 79.5676 975.73 116.562 999.248 151.668C999.248 151.668 971.867 126.776 975.215 80.5976" stroke="#242A3D" stroke-width="1.71667" stroke-linecap="round" stroke-linejoin="round"/>
<path d="M1019.42 75.3617C1019.42 75.3617 1004.48 124.544 1062.16 121.798L1059.25 118.879C1059.25 118.879 1041.91 119.308 1031.61 106.948C1019.85 92.8717 1030.49 75.3617 1030.49 75.3617H1019.42Z" stroke="#242A3D" stroke-width="1.71667" stroke-linecap="round" stroke-linejoin="round"/>
<path d="M1030.49 75.3617C1030.49 75.3617 1043.37 74.9325 1054.87 82.3142C1066.37 89.6959 1074.52 96.0475 1074.52 96.0475L1059.25 118.793L1032.29 103.687" stroke="#242A3D" stroke-width="1.71667" stroke-linecap="round" stroke-linejoin="round"/>
<path d="M1059.25 118.793L1068.86 127.463C1068.86 127.463 1041.99 163.255 999.248 151.582" stroke="#242A3D" stroke-width="1.71667" stroke-linecap="round" stroke-linejoin="round"/>
<path d="M924.189 100.521C924.189 100.521 927.97 104.584 933.968 104.584C939.688 104.584 949.582 104.584 949.582 104.584" stroke="#242A3D" stroke-width="1.71667" stroke-linecap="round" stroke-linejoin="round"/>
<path d="M937.459 84.2316L947.708 84.0256" stroke="#242A3D" stroke-width="1.71667" stroke-linecap="round" stroke-linejoin="round"/>
<path d="M949.292 50.3841C950.579 47.6375 954.098 46.6933 956.588 47.8091C959.077 48.925 960.45 48.3241 962.682 48.2383C964.999 48.1525 967.574 50.0408 965.772 51.6716C964.055 53.3025 958.047 53.9033 956.931 55.3625C955.901 56.9075 942.133 87.8418 942.133 87.8418" stroke="#242A3D" stroke-width="1.71667" stroke-linecap="round" stroke-linejoin="round"/>
<path d="M960.45 48.2383C960.45 48.2383 965.685 40.4275 967.316 37.6808C968.947 34.8483 965.256 32.7025 963.626 35.02C962.853 36.05 956.931 44.2042 956.931 44.2042C956.931 44.2042 960.278 36.3933 961.48 33.2175C962.681 30.0417 958.905 28.84 957.789 30.8142C956.673 32.7883 952.467 42.1442 952.467 42.1442C952.467 42.1442 953.154 37.9383 953.926 34.505C954.699 31.0717 951.18 30.4708 950.321 33.0458C949.72 34.8483 947.145 41.1142 945.858 45.4058C944.57 49.6975 929.043 74.4973 924.048 83.2C919.73 90.719 920.52 97.4449 925.335 101.646" stroke="#242A3D" stroke-width="1.71667" stroke-linecap="round" stroke-linejoin="round"/>
<path d="M1072.81 98.6226C1072.81 98.6226 1098.47 120.253 1100.88 122.055C1103.28 123.858 1109.12 123.514 1112.63 127.205C1115.12 129.78 1116.67 131.497 1116.67 131.497C1116.67 131.497 1121.65 132.012 1122.76 131.926C1123.88 131.84 1124.48 135.102 1120.36 136.475C1116.33 137.848 1109.89 133.471 1109.89 133.471C1109.89 133.471 1116.93 138.106 1120.96 136.475C1120.96 136.475 1122.76 137.333 1121.39 140.423C1120.02 143.513 1111.95 142.569 1106.63 139.05C1106.63 139.05 1111.95 143.17 1119.07 142.054C1119.07 142.054 1118.9 145.831 1114.61 146.689C1110.32 147.548 1105.25 145.402 1101.73 144.028C1098.21 142.655 1095.47 134.93 1091.69 132.613C1089.2 131.153 1061.22 115.961 1061.22 115.961L1072.81 98.6226Z" fill="#F8F8F4"/>
<path d="M1072.81 98.6226C1072.81 98.6226 1098.47 120.253 1100.88 122.055C1103.28 123.858 1109.12 123.514 1112.63 127.205C1115.12 129.78 1116.67 131.497 1116.67 131.497C1116.67 131.497 1121.65 132.012 1122.76 131.926C1123.88 131.84 1124.48 135.102 1120.36 136.475C1116.33 137.848 1109.89 133.471 1109.89 133.471C1109.89 133.471 1116.93 138.106 1120.96 136.475C1120.96 136.475 1122.76 137.333 1121.39 140.423C1120.02 143.513 1111.95 142.569 1106.63 139.05C1106.63 139.05 1111.95 143.17 1119.07 142.054C1119.07 142.054 1118.9 145.831 1114.61 146.689C1110.32 147.548 1105.25 145.402 1101.73 144.028C1098.21 142.655 1095.47 134.93 1091.69 132.613C1089.2 131.153 1061.22 115.961 1061.22 115.961L1072.81 98.6226Z" stroke="#242A3D" stroke-width="1.71667" stroke-linecap="round" stroke-linejoin="round"/>
<path d="M1144.22 129.093C1144.22 129.093 1158.98 135.617 1167.05 140.767C1167.05 140.767 1173.92 132.355 1180.19 133.471C1186.45 134.587 1192.8 137.591 1200.1 134.501C1203.19 133.128 1205.25 130.896 1206.62 128.75C1208.34 126.089 1207.14 122.484 1204.22 121.197L1157.53 100.94C1154.78 99.7384 1151.52 101.112 1150.49 103.944C1148.17 110.21 1144.65 121.111 1144.22 129.093Z" fill="#F8F8F4"/>
<path d="M1144.22 129.093C1144.22 129.093 1158.98 135.617 1167.05 140.767C1167.05 140.767 1173.92 132.355 1180.19 133.471C1186.45 134.587 1192.8 137.591 1200.1 134.501C1203.19 133.128 1205.25 130.896 1206.62 128.75C1208.34 126.089 1207.14 122.484 1204.22 121.197L1157.53 100.94C1154.78 99.7384 1151.52 101.112 1150.49 103.944C1148.17 110.21 1144.65 121.111 1144.22 129.093Z" stroke="#242A3D" stroke-width="1.71667" stroke-linecap="round" stroke-linejoin="round"/>
<path d="M1207.31 126.433L1151.17 102.657" stroke="#242A3D" stroke-width="1.71667" stroke-linecap="round" stroke-linejoin="round"/>
<path d="M1157.01 123.085C1160.28 123.085 1162.93 120.434 1162.93 117.163C1162.93 113.891 1160.28 111.24 1157.01 111.24C1153.74 111.24 1151.09 113.891 1151.09 117.163C1151.09 120.434 1153.74 123.085 1157.01 123.085Z" stroke="#242A3D" stroke-width="1.71667" stroke-linecap="round" stroke-linejoin="round"/>
<path d="M1182.67 133.9L1181.22 127.548" stroke="#242A3D" stroke-width="1.71667" stroke-linecap="round" stroke-linejoin="round"/>
<path d="M1187.4 134.758L1186.11 129.179" stroke="#242A3D" stroke-width="1.71667" stroke-linecap="round" stroke-linejoin="round"/>
<path d="M1192.12 135.617L1191.09 131.153" stroke="#242A3D" stroke-width="1.71667" stroke-linecap="round" stroke-linejoin="round"/>
<path d="M1161.13 137.076C1161.13 137.076 1167.91 128.063 1176.24 127.033C1184.56 126.003 1193.83 135.788 1204.22 131.583" stroke="#242A3D" stroke-width="1.71667" stroke-linecap="round" stroke-linejoin="round"/>
<path d="M1171.09 136.733C1171.09 136.733 1154.09 125.746 1144.91 123.514" stroke="#242A3D" stroke-width="1.71667" stroke-linecap="round" stroke-linejoin="round"/>
<path d="M1164.82 139.393C1164.82 139.393 1142.76 193.039 1139.59 201.279C1136.41 209.519 1127.14 220.592 1115.04 219.218C1105.85 218.188 1096.58 213.124 1080.62 199.391L1105.51 169.092L1117.7 178.705L1147.05 130.295L1164.82 139.393Z" fill="#F8F8F4"/>
<path d="M1164.82 139.393C1164.82 139.393 1142.76 193.039 1139.59 201.279C1136.41 209.519 1127.14 220.592 1115.04 219.218C1105.85 218.188 1096.58 213.124 1080.62 199.391L1105.51 169.092L1117.7 178.705L1147.05 130.295L1164.82 139.393Z" stroke="#242A3D" stroke-width="1.71667" stroke-linecap="round" stroke-linejoin="round"/>
<path d="M1117.61 178.705L1112.46 187.889" stroke="#242A3D" stroke-width="1.71667" stroke-linecap="round" stroke-linejoin="round"/>
<path d="M949.98 159.993C949.036 159.908 999.248 151.582 999.248 151.582C999.248 151.582 1037.62 165.058 1068.86 127.463L1115.12 169.95C1115.12 169.95 1111.6 198.618 1081.82 211.665L1045.86 186.945L973.842 203.253C973.842 203.253 978.82 189.778 971.095 176.302C967.147 169.178 960.537 160.508 949.98 159.993Z" fill="#242A3D"/>
<path d="M1056.5 194.842L1021.14 168.577" stroke="#E4E4E4" stroke-width="1.71667" stroke-linecap="round" stroke-linejoin="round"/>
<path d="M906.034 248.144C906.034 248.144 893.931 237.501 887.837 230.119C887.837 230.119 878.739 236.042 873.159 233.123C867.494 230.205 862.43 225.398 854.534 226.171C851.186 226.514 848.525 228.059 846.551 229.69C844.148 231.75 844.148 235.527 846.551 237.587L884.919 270.976C887.15 272.95 890.669 272.607 892.472 270.203C896.506 264.882 903.201 255.612 906.034 248.144Z" stroke="#242A3D" stroke-width="1.71667" stroke-linecap="round" stroke-linejoin="round"/>
<path d="M845.092 231.578L891.442 271.233" stroke="#242A3D" stroke-width="1.71667" stroke-linecap="round" stroke-linejoin="round"/>
<path d="M890.24 261.62C893.51 261.62 896.163 258.969 896.163 255.698C896.163 252.426 893.51 249.775 890.24 249.775C886.97 249.775 884.318 252.426 884.318 255.698C884.318 258.969 886.97 261.62 890.24 261.62Z" stroke="#242A3D" stroke-width="1.71667" stroke-linecap="round" stroke-linejoin="round"/>
<path d="M870.842 231.922L870.241 238.445" stroke="#242A3D" stroke-width="1.71667" stroke-linecap="round" stroke-linejoin="round"/>
<path d="M866.55 229.69L866.121 235.355" stroke="#242A3D" stroke-width="1.71667" stroke-linecap="round" stroke-linejoin="round"/>
<path d="M862.344 227.373L861.915 232.008" stroke="#242A3D" stroke-width="1.71667" stroke-linecap="round" stroke-linejoin="round"/>
<path d="M892.3 235.355C892.3 235.355 883.116 241.878 874.876 240.419C866.722 238.874 860.713 226.772 849.555 227.63" stroke="#242A3D" stroke-width="1.71667" stroke-linecap="round" stroke-linejoin="round"/>
<path d="M882.773 232.694C882.773 232.694 895.648 248.316 903.716 253.208" stroke="#242A3D" stroke-width="1.71667" stroke-linecap="round" stroke-linejoin="round"/>
<path d="M889.468 232.008C889.468 232.008 926.72 187.546 932.213 180.593C937.706 173.727 943.2 166.946 952.212 165.058C961.31 163.169 966.89 161.968 966.89 161.968C966.89 161.968 981.224 172.353 982.941 196.988L956.504 199.734L903.631 245.998" stroke="#242A3D" stroke-width="1.71667" stroke-linecap="round" stroke-linejoin="round"/>
<path d="M956.589 199.82L962.769 193.64" stroke="#242A3D" stroke-width="1.71667" stroke-linecap="round" stroke-linejoin="round"/>
<path d="M966.289 198.79C966.289 198.79 970.323 203.339 974.529 202.652" stroke="#242A3D" stroke-width="1.71667" stroke-linecap="round" stroke-linejoin="round"/>
<path d="M949.036 165.658C949.036 165.658 948.435 163.942 949.036 162.139C949.637 160.423 951.439 159.393 955.216 160.337" stroke="#242A3D" stroke-width="1.71667" stroke-linecap="round" stroke-linejoin="round"/>
<path d="M1019.42 75.3617C1019.42 75.3617 1023.8 72.3575 1029.72 65.1475C1038.22 54.8475 1026.63 39.655 1032.47 34.6767L1040.02 29.87C1040.02 29.87 1034.78 35.8783 1038.82 46.5217C1044.48 61.3708 1036.41 71.07 1030.58 75.2758" stroke="#242A3D" stroke-width="1.71667" stroke-linecap="round" stroke-linejoin="round"/>
<path d="M1032.47 34.7626L1018.65 42.6592" stroke="#242A3D" stroke-width="1.71667" stroke-linecap="round" stroke-linejoin="round"/>
<path d="M1039.93 29.87C1041.82 28.6683 1044.4 29.1833 1045.6 31.0717L1082.68 88.1508C1083.88 90.0392 1083.36 92.5283 1081.48 93.8158L1073.41 99.1375" stroke="#242A3D" stroke-width="1.71667" stroke-linecap="round" stroke-linejoin="round"/>
<path d="M1046.8 20.4283C1046.8 20.4283 1058.13 16.48 1059.5 3.86249C1059.59 2.83249 1058.56 2.05999 1057.62 2.48916L1019.51 21.115C1018.99 21.3725 1018.73 21.8875 1018.73 22.4025C1018.9 24.1192 1018.82 27.9817 1015.81 29.7842L1036.76 19.055C1040.88 16.9092 1045.94 18.2825 1048.43 22.145L1085.85 80.1683C1088.52 84.2025 1087.4 89.61 1083.45 92.4425L1081.65 93.73" stroke="#242A3D" stroke-width="1.71667" stroke-linecap="round" stroke-linejoin="round"/>
<path d="M967.345 351.746C967.345 351.746 955.676 370.632 953.188 375.268C950.7 379.904 953.02 391.834 953.965 393.035C954.909 394.237 960.746 395.18 961.346 391.832C961.946 388.484 959.113 385.137 960.143 383.506C961.172 381.875 978.077 364.447 978.077 364.447L967.345 351.746Z" fill="#242A3D"/>
<path d="M937.735 327.454C941.34 334.75 956.532 347.883 963.656 352.861C978.763 363.418 979.364 369.427 981.424 375.95C983.827 383.418 987.346 387.881 986.488 394.662C986.23 396.293 985.887 398.181 984.342 398.953C983.57 399.383 982.625 399.297 981.767 399.554C979.707 400.241 978.849 402.988 979.879 404.962C980.909 406.85 983.226 407.794 985.372 407.451C987.518 407.108 989.32 405.648 990.608 403.932C991.895 402.215 992.668 400.155 993.269 398.095C997.131 386.078 992.239 374.491 999.964 364.62C1004.77 358.526 1011.81 354.32 1019.1 351.745C1026.49 349.17 1037.99 342.046 1045.71 347.883C1053.44 353.719 1062.02 345.908 1062.45 341.016C1062.71 337.583 1064.17 328.398 1064.94 325.051C1066.74 317.583 1064 309.773 1061.25 302.563C1055.41 287.027 1066.23 287.198 1057.21 253.552C1056.1 249.26 1051.76 241.92 1049.36 238.23C1045.24 232.05 1038.93 233.896 1042.71 239.561C1046.66 245.398 1050.95 254.41 1052.58 265.311C1054.21 276.212 1051.46 290.288 1046.57 295.009C1041.68 299.73 1014.56 299.73 999.363 305.738C993.097 308.228 987.089 311.232 980.48 312.605C973.956 313.978 966.575 313.463 961.253 309.429C956.103 316.983 937.735 327.454 937.735 327.454Z" fill="#242A3D"/>
<path d="M984.6 407.022C982.712 407.022 981.081 406.078 980.308 404.704C979.879 403.846 979.793 402.73 980.222 401.7C980.566 400.842 981.166 400.155 981.939 399.898C982.282 399.812 982.626 399.726 982.969 399.64C983.398 399.554 983.913 399.468 984.342 399.297C984.686 399.64 984.943 399.898 985.372 399.983C985.544 400.069 985.802 400.069 986.059 400.069C986.574 400.069 987.089 399.898 987.604 399.726L992.84 397.923C992.239 399.812 991.466 401.786 990.265 403.503C988.977 405.305 987.089 406.507 985.287 406.85C985.115 407.022 984.857 407.022 984.6 407.022Z" fill="white"/>
<path d="M993.612 397.408C991.638 398.095 989.578 398.782 987.604 399.468C987.175 399.64 986.66 399.726 986.23 399.726C986.059 399.726 985.887 399.726 985.715 399.64C985.286 399.468 984.943 399.125 984.6 398.782C984.6 398.782 984.514 398.782 984.514 398.868C983.741 399.297 982.797 399.211 981.939 399.468C979.879 400.155 979.02 402.902 980.05 404.876C980.909 406.507 982.797 407.451 984.685 407.451C984.943 407.451 985.286 407.451 985.544 407.365C987.69 407.022 989.492 405.563 990.78 403.846C992.067 402.129 992.84 400.069 993.44 398.009C993.44 397.838 993.526 397.58 993.612 397.408ZM992.239 398.782C991.724 400.413 991.037 402.043 990.007 403.417C988.72 405.133 987.003 406.335 985.286 406.593C985.029 406.593 984.771 406.678 984.514 406.678C982.797 406.678 981.338 405.82 980.651 404.533C980.222 403.76 980.222 402.73 980.565 401.872C980.909 401.099 981.424 400.584 982.025 400.327C982.282 400.241 982.625 400.155 982.969 400.155C983.312 400.069 983.741 400.069 984.17 399.898C984.428 400.155 984.771 400.413 985.2 400.498C985.458 400.584 985.715 400.584 986.059 400.584C986.66 400.584 987.175 400.413 987.69 400.241L990.694 399.211L992.239 398.782Z" fill="#242A3D"/>
<path d="M1069.77 345.903C1072.52 346.202 1074.92 347.957 1076.54 350.2C1078.22 352.344 1079.29 354.944 1080.35 357.461C1078.84 358.335 1078.26 360.443 1079.06 362.045C1079.85 363.561 1081.65 364.377 1083.27 364.179C1083.95 364.06 1084.58 363.687 1084.91 363.105C1087.9 358.308 1087.93 356.473 1086.44 352.987C1084.08 347.477 1080.84 342.47 1077.45 337.576C1076.41 336.104 1074.61 335.288 1072.83 335.601C1068.44 336.376 1063.4 334.997 1059.54 337.333C1055.54 339.868 1052.4 346.261 1050.55 350.596C1056.05 352.154 1063.98 345.18 1069.77 345.903Z" fill="#242A3D"/>
<path d="M1083.37 363.726C1081.76 364.009 1080.13 363.164 1079.46 361.801C1078.78 360.439 1079.31 358.514 1080.58 357.769L1080.9 357.625L1080.75 357.302C1079.7 354.785 1078.63 352.185 1076.93 349.957C1076.03 348.808 1074.54 347.241 1072.45 346.301C1072.99 345.859 1073.7 345.471 1074.59 345.054C1074.83 344.924 1075.06 344.795 1075.32 344.75C1076.53 344.189 1077.82 343.612 1078.78 342.658C1079.08 342.345 1079.37 342.032 1079.57 341.649C1082.53 346.095 1084.47 349.675 1085.97 353.246C1087.01 355.677 1087.27 357.199 1086.31 359.635L1086.11 360.018C1085.58 361.42 1084.72 363.488 1083.37 363.726Z" fill="white"/>
<path d="M1079.56 340.605C1079.31 341.171 1078.97 341.753 1078.53 342.181C1077.41 343.249 1075.86 343.87 1074.4 344.477C1073.43 344.909 1072.4 345.525 1071.66 346.266C1073.62 346.968 1075.27 348.42 1076.59 350.016C1078.28 352.16 1079.35 354.76 1080.4 357.277C1078.9 358.151 1078.31 360.259 1079.12 361.861C1079.91 363.377 1081.81 364.263 1083.5 363.965C1085.19 363.667 1086.12 361.062 1086.72 359.476C1087.75 356.94 1087.45 355.25 1086.4 352.734C1084.62 348.601 1082.16 344.504 1079.56 340.605ZM1079.58 342.255C1082.32 346.393 1084.14 349.819 1085.61 353.221C1086.64 355.568 1086.89 357.005 1085.91 359.356L1085.72 359.739C1085.16 361.057 1084.39 363.11 1083.21 363.319C1081.77 363.572 1080.33 362.781 1079.69 361.672C1079.13 360.464 1079.54 358.823 1080.65 358.192L1081.28 357.819L1080.98 357.088C1079.92 354.572 1078.84 351.886 1077.04 349.589C1076.24 348.51 1074.86 347.097 1073.03 346.112C1073.42 345.869 1073.9 345.61 1074.55 345.322C1074.79 345.193 1075.02 345.064 1075.28 345.019C1076.57 344.442 1077.86 343.866 1078.91 342.897C1079.31 342.653 1079.45 342.454 1079.58 342.255Z" fill="#242A3D"/>
<path d="M1031.98 349.428C1034.38 350.801 1035.84 353.376 1036.53 356.037C1037.22 358.698 1037.13 361.444 1037.04 364.191C1035.33 364.363 1033.95 366.079 1034.04 367.882C1034.13 369.598 1035.41 371.058 1037.04 371.573C1037.73 371.744 1038.42 371.573 1039.02 371.229C1043.74 368.053 1044.43 366.337 1044.43 362.56C1044.51 356.552 1043.48 350.715 1042.37 344.793C1042.02 342.99 1040.65 341.531 1038.93 341.102C1034.55 339.986 1030.52 336.724 1026.06 337.411C1021.42 338.098 1015.93 342.647 1012.5 345.908C1016.96 349.685 1026.92 346.509 1031.98 349.428Z" fill="#242A3D"/>
<path d="M1037.64 371.315C1037.47 371.315 1037.39 371.315 1037.3 371.229C1035.76 370.8 1034.55 369.427 1034.47 367.882C1034.38 366.337 1035.58 364.792 1037.13 364.706H1037.47V364.363C1037.56 361.616 1037.56 358.783 1036.87 356.037C1036.53 354.578 1035.76 352.603 1034.3 350.887C1034.98 350.715 1035.76 350.629 1036.7 350.629C1036.96 350.629 1037.22 350.629 1037.47 350.629C1038.85 350.629 1040.22 350.629 1041.51 350.114C1041.94 349.943 1042.28 349.771 1042.71 349.513C1043.57 354.749 1044 358.869 1043.91 362.646C1043.91 365.307 1043.57 366.852 1041.59 368.654L1041.25 368.998C1040.31 369.942 1038.93 371.315 1037.64 371.315Z" fill="white"/>
<path d="M1043.05 348.569C1042.62 348.998 1042.02 349.428 1041.42 349.599C1039.96 350.114 1038.33 350.028 1036.7 350.028C1035.58 350.028 1034.47 350.2 1033.52 350.543C1034.98 352.003 1036.01 353.977 1036.44 355.951C1037.13 358.612 1037.04 361.358 1036.96 364.105C1035.24 364.277 1033.87 365.993 1033.95 367.796C1034.04 369.513 1035.41 371.058 1037.13 371.487C1037.3 371.487 1037.47 371.573 1037.64 371.573C1039.19 371.573 1040.82 369.856 1041.94 368.74C1043.91 366.852 1044.34 365.221 1044.34 362.388C1044.51 357.925 1043.91 353.204 1043.05 348.569ZM1042.45 350.114C1043.22 355.007 1043.65 358.869 1043.57 362.56C1043.57 365.135 1043.22 366.508 1041.42 368.311L1041.08 368.654C1040.13 369.598 1038.76 370.886 1037.64 370.886C1037.56 370.886 1037.47 370.886 1037.39 370.886C1036.01 370.543 1034.9 369.255 1034.9 367.968C1034.81 366.68 1035.93 365.307 1037.13 365.221L1037.9 365.135V364.363C1037.99 361.616 1037.99 358.698 1037.3 355.951C1036.96 354.578 1036.36 352.775 1035.07 351.144C1035.58 351.058 1036.1 351.058 1036.7 350.973C1036.96 350.973 1037.22 350.973 1037.47 350.973C1038.85 350.973 1040.31 350.973 1041.68 350.458C1042.02 350.372 1042.19 350.286 1042.45 350.114Z" fill="#242A3D"/>
<path d="M947.606 334.836C948.807 332.518 951.211 331.059 953.528 329.772C955.502 328.656 961.854 324.622 966.747 331.059C974.042 340.587 975.673 353.29 977.047 365.049C975.673 362.903 966.317 355.007 963.656 352.947C959.622 349.771 952.584 344.02 946.747 338.355C946.833 337.068 947.091 335.866 947.606 334.836Z" fill="white"/>
<path d="M947.606 334.836C948.807 332.518 951.211 331.059 953.528 329.772C955.502 328.656 961.854 324.622 966.747 331.059C974.042 340.587 975.673 353.29 977.047 365.049C975.673 362.903 966.317 355.007 963.656 352.947C959.622 349.771 952.584 344.02 946.747 338.355C946.833 337.068 947.091 335.866 947.606 334.836Z" stroke="#242A3D" stroke-width="0.858333" stroke-linecap="round" stroke-linejoin="round"/>
<path d="M960.48 290.288C957.905 290.203 953.614 296.554 952.24 302.82C947.262 303.507 938.85 306.768 938.85 306.768C938.85 306.768 929.58 298.7 927.091 300.588C923.486 303.249 931.812 315.609 932.842 318.785C933.958 321.961 933.614 326.768 938.679 331.059C940.481 332.604 948.12 336.81 953.442 335.952C960.48 334.836 970.265 324.879 969.15 317.755C968.12 311.06 964.944 306.597 964.686 303.507C964.515 301.361 964 290.374 960.48 290.288Z" fill="#242A3D"/>
<path d="M955.76 299.387C956.103 296.726 957.391 294.237 959.365 292.434C959.966 291.833 960.91 291.318 961.682 291.662C962.283 292.005 962.541 292.692 962.712 293.378C963.313 295.953 963.656 298.528 963.742 301.103C963.828 302.477 963.742 304.022 962.798 305.138C961.94 306.168 960.395 306.511 959.107 306.082C957.82 305.653 956.79 304.623 956.275 303.335C955.674 302.133 955.588 300.76 955.76 299.387Z" fill="white"/>
<path d="M955.76 299.387C956.103 296.726 957.391 294.237 959.365 292.434C959.966 291.833 960.91 291.318 961.682 291.662C962.283 292.005 962.541 292.692 962.712 293.378C963.313 295.953 963.656 298.528 963.742 301.103C963.828 302.477 963.742 304.022 962.798 305.138C961.94 306.168 960.395 306.511 959.107 306.082C957.82 305.653 956.79 304.623 956.275 303.335C955.674 302.133 955.588 300.76 955.76 299.387Z" stroke="#242A3D" stroke-width="0.858333" stroke-linecap="round" stroke-linejoin="round"/>
<path d="M936.619 312.605C936.962 311.747 936.876 310.803 936.619 309.944C935.761 307.026 933.272 305.051 930.954 303.334C929.752 302.476 927.521 300.759 927.006 301.617C926.491 302.476 927.263 305.737 927.95 307.626C928.722 309.514 929.752 311.318 930.782 313.034C931.211 313.807 931.726 314.664 932.585 314.922C933.443 315.265 934.387 314.751 935.16 314.236C935.761 313.893 936.361 313.378 936.619 312.605Z" fill="white"/>
<path d="M936.619 312.605C936.962 311.747 936.876 310.803 936.619 309.944C935.761 307.026 933.272 305.051 930.954 303.334C929.752 302.476 927.521 300.759 927.006 301.617C926.491 302.476 927.263 305.737 927.95 307.626C928.722 309.514 929.752 311.318 930.782 313.034C931.211 313.807 931.726 314.664 932.585 314.922C933.443 315.265 934.387 314.751 935.16 314.236C935.761 313.893 936.361 313.378 936.619 312.605Z" stroke="#242A3D" stroke-width="0.858333" stroke-linecap="round" stroke-linejoin="round"/>
<path d="M954.73 353.805C954.73 353.805 962.626 340.844 955.588 334.235C948.55 327.626 937.306 339.9 934.645 347.625" stroke="#242A3D" stroke-width="0.858333" stroke-linecap="round" stroke-linejoin="round"/>
<path d="M940.567 348.226C940.567 348.226 933.443 349.943 930.439 344.02C930.439 344.02 927.95 349.084 930.61 354.921C930.61 354.921 929.323 355.264 929.323 356.123C929.323 356.981 930.439 356.552 930.954 355.865C930.954 355.865 930.954 357.324 931.984 357.324C932.928 357.41 932.156 355.779 932.156 355.779C932.156 355.779 937.649 354.921 940.567 348.226Z" stroke="#242A3D" stroke-width="0.858333" stroke-linecap="round" stroke-linejoin="round"/>
<path d="M940.567 348.226C940.567 348.226 938.078 344.878 930.439 344.02" stroke="#242A3D" stroke-width="0.858333" stroke-linecap="round" stroke-linejoin="round"/>
<path d="M930.782 350.372H932.413" stroke="#242A3D" stroke-width="0.858333" stroke-linecap="round" stroke-linejoin="round"/>
<path d="M931.64 351.316L931.469 349.513" stroke="#242A3D" stroke-width="0.858333" stroke-linecap="round" stroke-linejoin="round"/>
<path d="M952.241 359.642C952.241 359.642 952.67 362.732 955.159 361.273C957.648 359.813 954.816 353.805 954.816 353.805C954.816 353.805 949.666 355.522 948.807 357.496C947.949 359.47 950.266 361.358 952.241 359.642Z" stroke="#242A3D" stroke-width="0.858333" stroke-linecap="round" stroke-linejoin="round"/>
<path d="M958.592 354.577L956.275 350.543L951.897 351.83" stroke="#242A3D" stroke-width="0.858333" stroke-linecap="round" stroke-linejoin="round"/>
<path d="M961.425 352.26L957.734 346.938L951.811 349.17" stroke="#242A3D" stroke-width="0.858333" stroke-linecap="round" stroke-linejoin="round"/>
<path d="M963.57 347.968L958.506 342.475L952.069 346.165" stroke="#242A3D" stroke-width="0.858333" stroke-linecap="round" stroke-linejoin="round"/>
<path d="M964.085 340.072L957.39 336.553L952.498 342.218" stroke="#242A3D" stroke-width="0.858333" stroke-linecap="round" stroke-linejoin="round"/>
<path d="M961.253 333.119L953.7 333.033L951.897 340.243" stroke="#242A3D" stroke-width="0.858333" stroke-linecap="round" stroke-linejoin="round"/>
<path d="M932.584 338.012L936.104 344.278L943.485 344.02" stroke="#242A3D" stroke-width="0.858333" stroke-linecap="round" stroke-linejoin="round"/>
<path d="M935.074 334.321L938.593 340.501L945.975 340.243" stroke="#242A3D" stroke-width="0.858333" stroke-linecap="round" stroke-linejoin="round"/>
<path d="M938.936 330.115L941.769 336.638L949.15 337.239" stroke="#242A3D" stroke-width="0.858333" stroke-linecap="round" stroke-linejoin="round"/>
<path fill-rule="evenodd" clip-rule="evenodd" d="M946.575 334.148C948.035 333.805 949.15 332.432 950.695 332.174C951.554 332.002 952.412 332.26 953.356 332.26C955.073 332.26 956.79 331.23 957.476 329.685C958.163 328.14 957.648 326.08 956.189 325.136C954.987 324.363 953.442 324.449 951.983 324.621C950.524 324.792 948.979 325.136 947.52 325.651C945.631 326.252 943.743 327.11 942.455 328.569C942.026 329.084 941.597 329.771 941.425 330.457C941.254 331.144 941.34 331.917 941.769 332.517C942.198 333.204 943.056 333.547 943.743 333.805C944.687 334.062 945.631 334.32 946.575 334.148Z" fill="white"/>
<path d="M948.378 329.513C948.893 329.771 949.58 329.513 949.923 329.084C950.61 328.14 951.554 326.509 950.953 325.823C950.009 324.878 945.031 326.423 945.803 327.711C946.232 328.569 947.52 329.17 948.378 329.513Z" fill="#242A3D"/>
<path fill-rule="evenodd" clip-rule="evenodd" d="M948.378 334.836C948.464 335.093 948.721 335.179 948.979 335.179C950.094 335.265 951.124 334.664 952.155 334.149C952.498 333.978 952.841 333.72 952.755 333.377C952.755 333.119 952.498 332.948 952.326 332.862C952.069 332.776 951.897 332.776 951.639 332.862C951.039 332.948 950.438 332.948 949.837 333.205C949.236 333.463 948.721 333.806 948.464 334.321C948.378 334.493 948.292 334.664 948.378 334.836Z" fill="white"/>
<path d="M943.657 329.343C943.657 329.343 939.022 328.055 935.417 331.746" stroke="white" stroke-width="0.858333" stroke-linecap="round" stroke-linejoin="round"/>
<path d="M943.829 330.973C943.829 330.973 938.593 330.888 936.705 335.179" stroke="white" stroke-width="0.858333" stroke-linecap="round" stroke-linejoin="round"/>
<path d="M944.601 332.517C944.601 332.517 941.082 332.689 940.224 335.779" stroke="white" stroke-width="0.858333" stroke-linecap="round" stroke-linejoin="round"/>
<path d="M953.957 326.338C953.957 326.338 956.275 322.819 961.425 322.905" stroke="white" stroke-width="0.858333" stroke-linecap="round" stroke-linejoin="round"/>
<path d="M954.558 328.313C954.558 328.313 957.82 324.536 963.227 325.995" stroke="white" stroke-width="0.858333" stroke-linecap="round" stroke-linejoin="round"/>
<path d="M960.824 329.943C960.824 329.943 958.077 327.883 954.729 330.201" stroke="white" stroke-width="0.858333" stroke-linecap="round" stroke-linejoin="round"/>
<path d="M943.4 320.158C943.4 320.158 941.082 317.669 938.593 320.502" stroke="white" stroke-width="0.858333" stroke-linecap="round" stroke-linejoin="round"/>
<path d="M951.125 318.184C951.125 318.184 952.069 314.751 956.189 315.609" stroke="white" stroke-width="0.858333" stroke-linecap="round" stroke-linejoin="round"/>
<path d="M967.69 311.318C967.69 311.318 971.381 318.699 966.66 325.995" stroke="white" stroke-width="0.858333" stroke-linecap="round" stroke-linejoin="round"/>
<path d="M1028.29 347.968C1028.29 347.968 1039.96 343.162 1044.51 346.938" stroke="white" stroke-width="0.858333" stroke-linecap="round" stroke-linejoin="round"/>
<path d="M38.7966 445.046C38.7966 445.046 102.914 314.922 110.038 305.481C117.162 296.039 140.681 297.069 155.358 305.481C170.036 313.893 162.74 322.39 155.358 325.652C147.977 328.913 142.569 342.303 137.934 353.118C133.213 363.848 95.9616 445.046 95.9616 445.046" stroke="#242A3D" stroke-width="1.71667" stroke-linecap="round" stroke-linejoin="round"/>
<path d="M122.913 341.788L88.8375 325.738C87.8075 325.223 87.2925 323.935 87.8075 322.905C88.3225 321.875 89.61 321.36 90.64 321.875L124.716 337.926" stroke="#242A3D" stroke-width="1.71667" stroke-linecap="round" stroke-linejoin="round"/>
<path d="M136.904 336.295L130.467 333.205C128.922 332.518 126.003 335.437 123.943 339.814C121.883 344.192 121.454 348.398 122.999 349.084L129.437 352.174" stroke="#242A3D" stroke-width="1.71667" stroke-linecap="round" stroke-linejoin="round"/>
<path d="M135.938 345.593C138.021 341.176 138.459 337.007 136.915 336.279C135.371 335.551 132.432 338.54 130.349 342.957C128.266 347.372 127.828 351.542 129.372 352.27C130.916 352.998 133.855 350.009 135.938 345.593Z" stroke="#242A3D" stroke-width="1.71667" stroke-linecap="round" stroke-linejoin="round"/>
<path d="M92.4422 315.352L86.0047 312.262C84.4597 311.575 81.5414 314.493 79.4814 318.871C77.4214 323.248 76.9922 327.454 78.5372 328.141L84.9747 331.231" stroke="#242A3D" stroke-width="1.71667" stroke-linecap="round" stroke-linejoin="round"/>
<path d="M88.9233 325.738C87.8933 325.223 87.3783 323.935 87.8933 322.905C88.4083 321.875 89.6958 321.36 90.7258 321.875L92.2708 322.648C93.6441 319.043 93.7299 315.953 92.4424 315.352C90.8974 314.665 87.9791 317.583 85.9191 321.961C83.8591 326.338 83.4299 330.544 84.9749 331.231C86.2624 331.832 88.5799 329.772 90.5541 326.424L88.9233 325.738Z" stroke="#242A3D" stroke-width="1.71667" stroke-linecap="round" stroke-linejoin="round"/>
<path d="M135.875 345.589C136.907 343.403 137.117 341.335 136.345 340.971C135.574 340.607 134.112 342.085 133.08 344.272C132.049 346.458 131.838 348.525 132.61 348.889C133.381 349.253 134.843 347.776 135.875 345.589Z" stroke="#242A3D" stroke-width="1.71667" stroke-linecap="round" stroke-linejoin="round"/>
<path d="M100.597 331.231C102.828 333.119 104.116 335.866 104.116 338.784V341.102C104.116 342.99 105.318 344.707 107.034 345.308C109.953 346.338 113.043 344.192 113.043 341.102V337.153" stroke="#242A3D" stroke-width="1.71667" stroke-linecap="round" stroke-linejoin="round"/>
<path d="M91.1549 340.501C91.1549 340.501 83.1724 355.264 95.1891 370.886C107.292 386.508 117.677 392.001 113.042 407.451" stroke="#242A3D" stroke-width="1.71667" stroke-linecap="round" stroke-linejoin="round"/>
<path d="M72.2716 377.667C72.2716 377.667 64.2891 394.662 76.3916 410.283C88.4941 425.905 98.88 428.995 96.9058 442.9" stroke="#242A3D" stroke-width="1.71667" stroke-linecap="round" stroke-linejoin="round"/>
<path d="M874.381 62.4439C874.724 61.1576 874.553 59.6997 873.867 58.3274C872.667 56.0975 870.18 54.8965 867.693 55.3249C865.549 55.7534 864.091 57.1253 863.404 58.9262C861.775 57.9826 859.631 57.8965 857.744 58.9253C855.6 60.1256 854.399 62.6982 854.913 65.1853C855.256 66.6433 856.028 67.844 857.142 68.7018C857.571 69.0449 858 69.2165 858.514 69.3881L868.29 74.5351C868.719 74.7924 869.319 74.5353 869.491 74.1065L873.695 63.9017C874.038 63.473 874.209 62.9585 874.381 62.4439Z" fill="#242A3D"/>
<path d="M878.854 41.4991L840.227 55.57C837.566 56.5138 836.193 59.5178 837.136 62.1787L846.059 86.7284C847.003 89.3894 850.007 90.7632 852.668 89.8194L865.115 85.2721L875.242 91.5394L878.934 80.21L891.381 75.6627C894.042 74.7189 895.416 71.7149 894.472 69.054L885.549 44.5043C884.519 41.9291 881.515 40.5554 878.854 41.4991Z" stroke="#242A3D" stroke-width="1.71667" stroke-linecap="round" stroke-linejoin="round"/>
</g>
<defs>
<clipPath id="clip0_152_289">
<rect width="1236" height="446.333" fill="white"/>
</clipPath>
</defs>
</svg>
