<svg xmlns="http://www.w3.org/2000/svg" width="146" height="227.72" viewBox="0 0 93 145" fill="none">
<path fill-rule="evenodd" clip-rule="evenodd" d="M6.19792 145C2.7891 145 0 142.39 0 139.201V5.79946C0 2.61008 2.7891 0 6.19792 0H86.7695C90.1783 0 92.9667 2.61008 92.9667 5.79946V139.201C92.9667 142.39 90.1783 145 86.7695 145H6.19792Z" fill="#9D0933"/>
<path fill-rule="evenodd" clip-rule="evenodd" d="M10.4004 85.2397H14.0713V86.06H11.3339V88.2731H13.6653V89.0919H11.3339V91.9697H10.4004V85.2397Z" fill="#FEFEFE"/>
<path fill-rule="evenodd" clip-rule="evenodd" d="M15.2949 85.2397H18.821V86.06H16.1464V88.1672H18.3216V88.9868H16.1464V91.1501H18.9658V91.9697H15.2949V85.2397Z" fill="#FEFEFE"/>
<path fill-rule="evenodd" clip-rule="evenodd" d="M22.9138 91.15C24.3929 91.15 25.3599 90.2537 25.3599 88.5951C25.3599 86.9459 24.384 86.0594 22.9138 86.0594H21.7239V91.15H22.9138ZM20.8027 85.2397H22.9787C24.9879 85.2397 26.3091 86.4693 26.3091 88.5951C26.3091 90.731 24.9879 91.9697 22.9787 91.9697H20.8027V85.2397Z" fill="#FEFEFE"/>
<path fill-rule="evenodd" clip-rule="evenodd" d="M28.1426 85.2397H31.6675V86.06H28.9939V88.1672H31.1694V88.9868H28.9939V91.1501H31.8135V91.9697H28.1426V85.2397Z" fill="#FEFEFE"/>
<path fill-rule="evenodd" clip-rule="evenodd" d="M35.3464 88.4712C36.0821 88.4712 36.5411 88.0053 36.5411 87.2504C36.5411 86.7568 36.351 86.4031 36.004 86.2113C35.8237 86.1176 35.6041 86.0593 35.076 86.0593H33.984V88.4712H35.3464ZM33.0371 85.2397H35.1035C35.8132 85.2397 36.1124 85.2966 36.3701 85.3931C37.0593 85.6495 37.5085 86.3271 37.5085 87.2127C37.5085 88.0721 37.0297 88.7951 36.2933 89.0351V89.0514C36.2933 89.0514 36.3701 89.1388 36.4919 89.3583L37.9316 91.9697H36.858L35.4302 89.2908H33.984V91.9697H33.0371V85.2397Z" fill="#FEFEFE"/>
<path fill-rule="evenodd" clip-rule="evenodd" d="M41.2872 86.1658C41.2872 86.1658 41.1443 86.7744 41.0378 87.1188L40.3261 89.2534H42.2515L41.5498 87.1188C41.4413 86.7744 41.307 86.1658 41.307 86.1658H41.2872ZM42.4857 90.0346H40.092L39.4623 91.9697H38.5449L40.8301 85.2397H41.7667L44.0513 91.9697H43.1226L42.4857 90.0346Z" fill="#FEFEFE"/>
<path fill-rule="evenodd" clip-rule="evenodd" d="M46.3355 86.06H44.0508V85.2397H49.5571V86.06H47.2703V91.9697H46.3355V86.06Z" fill="#FEFEFE"/>
<path fill-rule="evenodd" clip-rule="evenodd" d="M50.168 91.9697H51.3916V85.2397H50.168V91.9697Z" fill="#FEFEFE"/>
<path fill-rule="evenodd" clip-rule="evenodd" d="M56.5983 91.1309C57.9333 91.1309 59.0111 90.0241 59.0111 88.5573C59.0111 87.1386 57.9333 86.0697 56.5983 86.0697C55.2618 86.0697 54.1752 87.1386 54.1752 88.5573C54.1752 90.0241 55.2618 91.1309 56.5983 91.1309ZM56.5983 85.2397C58.4917 85.2397 59.9585 86.6873 59.9585 88.5573C59.9585 90.4761 58.4917 91.9697 56.5983 91.9697C54.7049 91.9697 53.2285 90.4761 53.2285 88.5573C53.2285 86.6873 54.7049 85.2397 56.5983 85.2397Z" fill="#FEFEFE"/>
<path fill-rule="evenodd" clip-rule="evenodd" d="M61.1816 85.2397H62.1367L65.1962 89.6161C65.4506 89.9783 65.7701 90.5869 65.7701 90.5869H65.7916C65.7916 90.5869 65.7228 89.9868 65.7228 89.6161V85.2397H66.688V91.9697H65.7422L62.672 87.604C62.4198 87.2326 62.0981 86.6232 62.0981 86.6232H62.0787C62.0787 86.6232 62.1468 87.2241 62.1468 87.604V91.9697H61.1816V85.2397Z" fill="#FEFEFE"/>
<path fill-rule="evenodd" clip-rule="evenodd" d="M74.3401 91.1309C75.6783 91.1309 76.7557 90.0241 76.7557 88.5573C76.7557 87.1386 75.6783 86.0697 74.3401 86.0697C73.0012 86.0697 71.9163 87.1386 71.9163 88.5573C71.9163 90.0241 73.0012 91.1309 74.3401 91.1309ZM74.3401 85.2397C76.2341 85.2397 77.7007 86.6873 77.7007 88.5573C77.7007 90.4761 76.2341 91.9697 74.3401 91.9697C72.4455 91.9697 70.9707 90.4761 70.9707 88.5573C70.9707 86.6873 72.4455 85.2397 74.3401 85.2397Z" fill="#FEFEFE"/>
<path fill-rule="evenodd" clip-rule="evenodd" d="M78.9258 85.2397H82.5967V86.06H79.8605V88.2731H82.1917V89.0919H79.8605V91.9697H78.9258V85.2397Z" fill="#FEFEFE"/>
<path fill-rule="evenodd" clip-rule="evenodd" d="M10.2862 95.6406H13.8689L15.8296 101.327C16.1307 102.192 16.5085 103.548 16.5085 103.548H16.5441C16.5441 103.548 16.9225 102.192 17.223 101.327L19.183 95.6406H22.7657L23.8593 109.101H20.5596L20.1456 103.04C20.0696 102.023 20.1456 100.782 20.1456 100.782H20.1073C20.1073 100.782 19.6549 102.192 19.3538 103.04L17.9402 106.936H15.1124L13.6981 103.04C13.3977 102.192 12.9453 100.782 12.9453 100.782H12.907C12.907 100.782 12.9823 102.023 12.907 103.04L12.4923 109.101H9.17578L10.2862 95.6406Z" fill="#FEFEFE"/>
<path fill-rule="evenodd" clip-rule="evenodd" d="M31.4879 98.7093C31.4879 98.7093 31.1816 100.178 30.932 101.025L30.1457 103.643H32.8492L32.0834 101.025C31.8332 100.178 31.5268 98.7093 31.5268 98.7093H31.4879ZM33.6355 106.277H29.3594L28.5355 109.101H25.084L29.743 95.6406H33.2704L37.9321 109.101H34.4799L33.6355 106.277Z" fill="#FEFEFE"/>
<path fill-rule="evenodd" clip-rule="evenodd" d="M40.2997 105.237C40.2997 105.237 41.8456 106.647 43.5643 106.647C44.2501 106.647 44.9931 106.38 44.9931 105.561C44.9931 103.943 38.8484 104.001 38.8484 99.8114C38.8484 97.2967 40.9665 95.6406 43.6766 95.6406C46.6159 95.6406 48.0652 97.1824 48.0652 97.1824L46.6547 99.9046C46.6547 99.9046 45.2803 98.7058 43.6391 98.7058C42.9519 98.7058 42.1892 99.0106 42.1892 99.7719C42.1892 101.486 48.334 101.181 48.334 105.484C48.334 107.751 46.5975 109.712 43.5235 109.712C40.3181 109.712 38.5449 107.771 38.5449 107.771L40.2997 105.237Z" fill="#FEFEFE"/>
<path fill-rule="evenodd" clip-rule="evenodd" d="M53.087 98.4638H48.9453V95.6406H60.5698V98.4638H56.4281V109.101H53.087V98.4638Z" fill="#FEFEFE"/>
<path fill-rule="evenodd" clip-rule="evenodd" d="M61.793 95.6406H70.0979V98.4643H65.0375V100.912H69.0786V103.735H65.0375V106.277H70.3584V109.101H61.793V95.6406Z" fill="#FEFEFE"/>
<path fill-rule="evenodd" clip-rule="evenodd" d="M77.5785 101.741C78.6434 101.741 79.3095 101.156 79.3095 100.084C79.3095 99.0672 78.9303 98.4651 77.257 98.4651H76.1337V101.741H77.5785ZM72.8047 95.6406H77.5418C78.9303 95.6406 79.5964 95.7348 80.1844 95.9608C81.7269 96.5447 82.6968 97.9189 82.6968 99.8764C82.6968 101.308 82.0118 102.87 80.6606 103.548V103.585C80.6606 103.585 80.8505 103.83 81.1734 104.395L83.8173 109.101H80.1085L77.6938 104.565H76.1337V109.101H72.8047V95.6406Z" fill="#FEFEFE"/>
<path fill-rule="evenodd" clip-rule="evenodd" d="M13.6577 122.57C14.4749 122.57 14.8754 122.002 14.8754 121.35C14.8754 120.7 14.4913 120.164 13.6734 120.164H11.9775V122.57H13.6577ZM13.4176 117.888C14.1236 117.888 14.4258 117.367 14.4258 116.815C14.4258 116.278 14.1236 115.822 13.3705 115.822H11.9775V117.888H13.4176ZM9.17578 113.384H13.3869C15.6749 113.384 17.2787 114.423 17.2787 116.424C17.2787 117.4 16.8134 118.391 15.9484 118.895V118.927C17.2609 119.334 17.7412 120.521 17.7412 121.546C17.7412 124.081 15.6619 125.008 13.3869 125.008H9.17578V113.384Z" fill="#FEFEFE"/>
<path fill-rule="evenodd" clip-rule="evenodd" d="M19.5781 113.384H22.4426V120.611C22.4426 121.81 23.2447 122.45 24.473 122.45C25.7019 122.45 26.5033 121.81 26.5033 120.611V113.384H29.3672V120.611C29.3672 123.184 27.4366 125.008 24.4897 125.008C21.5108 125.008 19.5781 123.184 19.5781 120.611V113.384Z" fill="#FEFEFE"/>
<path fill-rule="evenodd" clip-rule="evenodd" d="M31.2031 125.008H34.2622V113.384H31.2031V125.008Z" fill="#FEFEFE"/>
<path fill-rule="evenodd" clip-rule="evenodd" d="M36.0957 113.384H38.8469V122.569H43.4375V125.008H36.0957V113.384Z" fill="#FEFEFE"/>
<path fill-rule="evenodd" clip-rule="evenodd" d="M49.1566 122.57C51.0567 122.57 52.2206 121.399 52.2206 119.172C52.2206 116.961 51.0099 115.822 49.1566 115.822H48.0242V122.57H49.1566ZM45.2754 113.384H49.2664C52.8022 113.384 55.0644 115.513 55.0644 119.172C55.0644 122.831 52.8022 125.008 49.2664 125.008H45.2754V113.384Z" fill="#FEFEFE"/>
<path fill-rule="evenodd" clip-rule="evenodd" d="M56.2891 113.384H63.4081V115.822H59.069V117.937H62.534V120.375H59.069V122.569H63.6308V125.008H56.2891V113.384Z" fill="#FEFEFE"/>
<path fill-rule="evenodd" clip-rule="evenodd" d="M70.0542 118.651C70.943 118.651 71.4975 118.149 71.4975 117.221C71.4975 116.343 71.1781 115.822 69.7847 115.822H68.8493V118.651H70.0542ZM66.0762 113.384H70.0218C71.1781 113.384 71.7339 113.465 72.2283 113.662C73.5109 114.165 74.318 115.35 74.318 117.041C74.318 118.278 73.7486 119.627 72.6227 120.213V120.245C72.6227 120.245 72.7801 120.456 73.0509 120.943L75.2534 125.008H72.1628L70.1508 121.089H68.8493V125.008H66.0762V113.384Z" fill="#FEFEFE"/>
<path fill-rule="evenodd" clip-rule="evenodd" d="M77.2906 121.312C77.2906 121.312 78.5461 122.475 79.9418 122.475C80.4986 122.475 81.1042 122.255 81.1042 121.578C81.1042 120.242 76.1129 120.29 76.1129 116.828C76.1129 114.753 77.8335 113.384 80.0356 113.384C82.4219 113.384 83.6022 114.657 83.6022 114.657L82.4536 116.906C82.4536 116.906 81.3367 115.917 80.0045 115.917C79.4451 115.917 78.8249 116.168 78.8249 116.797C78.8249 118.212 83.8188 117.96 83.8188 121.516C83.8188 123.387 82.4067 125.008 79.912 125.008C77.3051 125.008 75.8652 123.403 75.8652 123.403L77.2906 121.312Z" fill="#FEFEFE"/>
<path fill-rule="evenodd" clip-rule="evenodd" d="M50.4769 64.4382C50.275 64.4382 50.1777 64.5697 50.1777 65.05C50.1777 65.5298 50.2524 65.6619 50.4769 65.6619C50.6788 65.6619 50.7755 65.5298 50.7755 65.05C50.7755 64.5697 50.7008 64.4382 50.4769 64.4382Z" fill="#FEFEFE"/>
<path fill-rule="evenodd" clip-rule="evenodd" d="M68.9274 35.3C68.4012 35.3 67.9731 35.7872 67.9731 36.3821V59.0926C67.9731 59.6882 67.4833 60.1748 66.883 60.1748H51.366C50.7671 60.1748 50.2773 59.6882 50.2773 59.0926V48.8165C50.2773 48.2216 49.7881 47.735 49.1885 47.735H43.1986C42.5997 47.735 42.1106 48.2216 42.1106 48.8165V59.0926C42.1106 59.6882 41.6194 60.1748 41.0197 60.1748H25.5014C24.9025 60.1748 24.4106 59.6882 24.4106 59.0926V36.3821C24.4106 35.7872 23.9811 35.3 23.4577 35.3C22.9321 35.3 22.926 35.0567 23.4453 34.7589L23.4686 34.7467C23.988 34.4482 24.8352 33.9616 25.3553 33.6639L45.2492 22.2558C45.7686 21.958 46.6172 21.958 47.1365 22.2558L68.9391 34.7589C69.4577 35.0567 69.4529 35.3 68.9274 35.3ZM57.9507 67.7538H56.7522V64.6689H55.8891V63.9261C56.6232 63.92 56.9319 63.7728 57.0869 63.2215H57.9507V67.7538ZM55.5337 66.9088H55.1338V67.7538H54.0121V66.9088H52.3882V66.0127L53.8323 63.3121H55.1338V66.0509H55.5337V66.9088ZM51.9039 65.6549C51.9039 67.0499 51.6905 67.8431 50.3315 67.8431C49.1521 67.8431 48.8949 67.2802 48.8887 66.6778H50.0083C50.0152 66.8332 50.0406 66.9408 50.0989 67.0117C50.151 67.0758 50.2285 67.101 50.3363 67.101C50.5119 67.101 50.6656 66.9606 50.6656 66.6778V65.9555H50.6518C50.5496 66.1667 50.2347 66.3071 49.8862 66.3071C49.2358 66.3071 48.7981 65.9943 48.7981 64.9313C48.7981 63.7019 49.3449 63.2215 50.3246 63.2215C51.3681 63.2215 51.9039 63.6767 51.9039 65.1554V65.6549ZM47.8946 67.7538H46.6947V64.6689H45.8324V63.9261C46.5657 63.92 46.8758 63.7728 47.0309 63.2215H47.8946V67.7538ZM43.3619 67.7538H44.4445V66.487H43.3619V67.7538ZM42.8275 65.0662H42.3699V66.7173C42.3699 66.9149 42.4598 66.9858 42.6457 66.9858H42.8275V67.7538C42.6141 67.779 42.3884 67.792 42.1963 67.792C41.4863 67.792 41.2098 67.6768 41.2098 66.9088V65.0662H40.8229V64.2907H41.2098V63.274H42.3699V64.2907H42.8275V65.0662ZM39.011 67.8431C38.0382 67.8431 37.6444 67.4342 37.6444 66.6778H38.6632C38.6632 66.8127 38.6886 66.9408 38.7469 67.0178C38.8045 67.0948 38.8882 67.1398 38.9904 67.1398C39.1715 67.1398 39.3266 67.0301 39.3266 66.8447C39.3266 66.2308 37.6444 66.5953 37.6444 65.2836C37.6444 64.675 38.089 64.2014 39.0309 64.2014C39.8994 64.2014 40.3385 64.5667 40.3385 65.2897H39.3321C39.3321 64.9953 39.2161 64.9054 39.0234 64.9054C38.8491 64.9054 38.727 65.0076 38.727 65.1752C38.727 65.7442 40.4092 65.3612 40.4092 66.6846C40.4092 67.3565 39.8871 67.8431 39.011 67.8431ZM37.217 67.7538H34.4344V63.184H37.1587V64.1571H35.6322V64.9387H37.0626V65.8723H35.6322V66.7814H37.217V67.7538ZM71.531 30.0004L48.0785 16.5514C47.0425 15.9558 45.3446 15.9558 44.3066 16.5514L20.8534 30.0004C19.8154 30.5953 18.9668 32.0556 18.9668 33.2454V60.1448C18.9668 61.3353 19.8154 62.7949 20.8534 63.3905L44.3066 76.8395C45.3446 77.4351 47.0425 77.4351 48.0785 76.8395L71.531 63.3905C72.5703 62.7949 73.4183 61.3353 73.4183 60.1448V33.2454C73.4183 32.0556 72.5703 30.5953 71.531 30.0004Z" fill="#FEFEFE"/>
<path fill-rule="evenodd" clip-rule="evenodd" d="M53.8379 66.2737H54.4497V65.05H54.4398L53.8379 66.2737Z" fill="#FEFEFE"/>
</svg>