<svg xmlns="http://www.w3.org/2000/svg" width="146" height="82" viewBox="0 0 146 82" fill="none">
<g clip-path="url(#clip0_566_8098)">
<path d="M72.723 4.09625L66.363 0.420247C65.8897 0.144998 65.352 0 64.8045 0C64.257 0 63.7193 0.144998 63.246 0.420247L46.558 10.0542C46.0843 10.3278 45.691 10.7213 45.4175 11.1951C45.144 11.6688 45 12.2062 45 12.7532V20.1352L72.723 4.09625Z" fill="#00A7A7"/>
<path d="M46.558 34.7205L48.958 36.1075L84.6 15.5275V12.7535C84.5971 12.2051 84.4503 11.6671 84.1743 11.1933C83.8982 10.7195 83.5026 10.3264 83.027 10.0535L80.642 8.66748L45 29.2475V32.0215C45.0014 32.5684 45.1459 33.1054 45.4192 33.5791C45.6926 34.0528 46.0852 34.4456 46.558 34.7205Z" fill="#00A7A7"/>
<path d="M56.877 40.6775L63.247 44.3535C63.7216 44.6249 64.2588 44.7677 64.8055 44.7677C65.3522 44.7677 65.8895 44.6249 66.364 44.3535L84.6 33.8175V24.6685L56.877 40.6775Z" fill="#00A7A7"/>
<path d="M88.5617 4.09625L82.2007 0.420247C81.7274 0.144998 81.1897 0 80.6422 0C80.0947 0 79.557 0.144998 79.0837 0.420247L60.8457 10.9562V20.1352L88.5617 4.09625Z" fill="#002951"/>
<path d="M62.4037 34.72L64.8037 36.107L100.448 15.527V12.753C100.446 12.2061 100.302 11.6691 100.029 11.1954C99.7552 10.7217 99.3625 10.3279 98.8897 10.053L96.4897 8.66602L60.8457 29.247V32.021C60.8448 32.5684 60.9883 33.1063 61.2619 33.5804C61.5354 34.0545 61.9293 34.447 62.4037 34.72Z" fill="#002951"/>
<path d="M72.7227 40.6775L79.0827 44.3535C79.5573 44.6249 80.0945 44.7677 80.6412 44.7677C81.188 44.7677 81.7252 44.6249 82.1997 44.3535L98.8877 34.7195C99.3606 34.4446 99.7532 34.0507 100.026 33.5771C100.3 33.1034 100.444 32.5664 100.446 32.0195V24.6685L72.7227 40.6775Z" fill="#002951"/>
<path d="M129.854 51.5425V68.2745H133.463V51.5425H129.854Z" fill="#4C5E84"/>
<path d="M137.996 59.3425L144.696 51.5425H140.043L133.459 59.6175L135.271 61.7175L140.625 68.2795H145.181L137.996 59.3425Z" fill="#4C5E84"/>
<path d="M0 54.2964H5.1V68.0584H5.786L8.612 66.3654V54.2964H13.69V51.2964H0V54.2964Z" fill="#002951"/>
<path d="M28.857 56.5247C28.857 53.4007 26.941 51.3047 22.146 51.3047H15.875V68.0597H19.387V62.3997H22.273L25.673 68.0667H29.58L25.636 61.7137C26.6564 61.2962 27.5184 60.5664 28.0985 59.6288C28.6786 58.6913 28.9469 57.5941 28.865 56.4947L28.857 56.5247ZM22.154 59.3577H19.388V54.2947H21.938C24.22 54.2947 25.1 55.1517 25.1 56.7407C25.1 58.3297 23.982 59.3877 22.117 59.3877" fill="#002951"/>
<path d="M55.6916 58.4107C53.1566 57.5007 51.4486 57.1807 51.4486 55.7787C51.4486 54.6227 52.4106 53.9787 53.9616 53.9787C55.4126 54.0039 56.8256 54.4523 58.0256 55.2687L59.5166 52.6437C57.8546 51.5218 55.8836 50.9483 53.8796 51.0037C50.2926 51.0037 47.7946 52.7937 47.7946 55.9097C47.7946 58.6757 49.6736 59.8687 52.3946 60.7717C54.7806 61.5617 56.2566 61.9497 56.2566 63.2177C56.2566 64.3287 55.2876 65.0817 53.2736 65.0817C51.6576 65.0546 50.0706 64.6458 48.6426 63.8887L47.5566 66.7977C49.3576 67.8183 51.3926 68.3528 53.4626 68.3487C57.3246 68.3487 60.0096 66.4247 60.0096 63.0097C60.0096 60.5097 58.4436 59.3787 55.7146 58.4097" fill="#002951"/>
<path d="M61.2617 54.2964H66.3547V68.0584H67.0477L69.8667 66.3734V54.2964H74.9447V51.2964H61.2617V54.2964Z" fill="#002951"/>
<path d="M86.1373 63.3995L80.5073 51.2906H77.1523V68.0595H80.5154V57.8595L85.0264 67.5755H87.0094L91.5954 57.7755V68.0595H94.9623V51.2896H91.5773L86.1373 63.3995Z" fill="#4C5E84"/>
<path d="M102.772 51.2896L96.4863 68.0595H100.166L104.513 55.2935L108.966 68.0595H112.766L106.306 51.2896H102.772Z" fill="#4C5E84"/>
<path d="M127.238 56.5247C127.238 53.4007 125.322 51.3047 120.527 51.3047H114.264V68.0597H117.776V62.3997H120.654L124.054 68.0667H127.969L123.995 61.7217C125.017 61.3053 125.88 60.5758 126.462 59.6379C127.043 58.7001 127.312 57.6021 127.231 56.5017L127.238 56.5247ZM120.52 59.3647H117.761V54.2947H120.333C122.615 54.2947 123.502 55.1517 123.502 56.7407C123.502 58.3297 122.384 59.3877 120.519 59.3877" fill="#4C5E84"/>
<path d="M41.6523 52.9896V61.8895C41.7233 62.6061 41.7233 63.328 41.6523 64.0445C41.5333 64.6445 40.9523 64.9095 40.4143 65.0515C39.6633 65.24 38.8883 65.3178 38.1143 65.2825C37.4463 65.2547 36.7833 65.1521 36.1383 64.9765C35.8873 64.9301 35.6573 64.8068 35.4793 64.6237C35.3013 64.4406 35.1853 64.2067 35.1463 63.9545C35.0903 63.2673 35.0903 62.5767 35.1463 61.8895V51.2896H34.4603L31.6024 52.9896V63.4285C31.5583 64.3849 31.8196 65.3305 32.3484 66.1285C32.4214 66.2404 32.5012 66.3476 32.5874 66.4495C33.6383 67.6725 35.8083 68.4325 38.2463 68.4255H38.4463C40.8843 68.4255 43.0543 67.6795 44.1063 66.4425C44.1923 66.3406 44.2723 66.2334 44.3453 66.1215C44.8913 65.3262 45.1713 64.3787 45.1453 63.4145V51.2896H44.5713L41.6523 52.9896Z" fill="#002951"/>
<path d="M4.43647 74.8292C4.49917 74.4788 4.60707 74.1379 4.75747 73.8152C4.90367 73.4954 5.10017 73.201 5.33947 72.9432C5.59687 72.6764 5.90668 72.4657 6.24948 72.3242C6.65118 72.1694 7.07897 72.0934 7.50947 72.1002C8.03557 72.0892 8.55478 72.2224 9.01078 72.4852C9.46668 72.748 9.84218 73.1304 10.0965 73.5912L9.08248 74.3372C8.89678 74.0326 8.64098 73.7769 8.33648 73.5912C8.06548 73.457 7.76677 73.3885 7.46447 73.3912C7.18167 73.3831 6.90247 73.4556 6.65947 73.6002C6.42907 73.7408 6.23887 73.9385 6.10747 74.1742C5.95987 74.4219 5.85418 74.6922 5.79448 74.9742C5.72568 75.2828 5.69208 75.5981 5.69448 75.9142C5.65608 76.5722 5.80887 77.2272 6.13447 77.8002C6.27517 78.0201 6.47108 78.1992 6.70278 78.3196C6.93438 78.44 7.19357 78.4974 7.45447 78.4862C7.74317 78.4823 8.02498 78.397 8.26748 78.2402C8.54008 78.0706 8.77767 77.8503 8.96747 77.5912V76.8002H7.47847V75.6862H10.2295V79.5562H9.16347L9.11148 78.8102C8.88348 79.064 8.60648 79.2688 8.29708 79.4123C7.98768 79.5559 7.65237 79.6351 7.31147 79.6452C6.90877 79.654 6.50847 79.583 6.13347 79.4362C5.81367 79.3123 5.52387 79.1218 5.28347 78.8772C5.06457 78.6364 4.88588 78.3619 4.75448 78.0642C4.61098 77.7325 4.50818 77.3846 4.44848 77.0282C4.38718 76.646 4.35738 76.2593 4.35948 75.8722C4.35908 75.5195 4.39258 75.1676 4.45948 74.8212" fill="#4C5E84"/>
<path d="M11.4665 76.1784C11.493 76.0523 11.5263 75.9278 11.5666 75.8054C11.6126 75.6811 11.665 75.5593 11.7235 75.4404C11.8375 75.1979 11.9913 74.9761 12.1785 74.7844C12.375 74.582 12.6109 74.4221 12.8716 74.3144C13.1678 74.1852 13.4885 74.1218 13.8115 74.1284C14.141 74.1222 14.4683 74.1831 14.7735 74.3074C15.0307 74.4179 15.2637 74.5775 15.4595 74.7774C15.638 74.973 15.7863 75.1941 15.8996 75.4334C16.0141 75.6701 16.0968 75.921 16.1455 76.1794C16.2223 76.5445 16.2399 76.9197 16.1975 77.2904C16.2063 77.4226 16.1859 77.5551 16.1375 77.6784C16.0768 77.9364 15.9869 78.1867 15.8695 78.4244C15.7451 78.6579 15.5897 78.8735 15.4075 79.0654C15.2145 79.258 14.9832 79.4079 14.7285 79.5054C14.439 79.6196 14.1297 79.6754 13.8185 79.6694C13.5053 79.6732 13.1941 79.6176 12.9015 79.5054C12.638 79.4031 12.4011 79.2424 12.2085 79.0354C12.0247 78.8449 11.8691 78.6291 11.7466 78.3944C11.6276 78.1574 11.5376 77.9069 11.4785 77.6484C11.4273 77.4029 11.3998 77.1531 11.3965 76.9024C11.3979 76.6519 11.423 76.4021 11.4715 76.1564L11.4665 76.1784ZM12.9625 78.0654C13.0486 78.2159 13.172 78.3417 13.321 78.4305C13.4699 78.5193 13.6392 78.5682 13.8125 78.5724C13.9869 78.5718 14.158 78.5253 14.3086 78.4375C14.4592 78.3497 14.5841 78.2238 14.6705 78.0724C14.8938 77.7129 15.0055 77.2953 14.9915 76.8724C15.0078 76.4495 14.9038 76.0306 14.6916 75.6644C14.6009 75.5163 14.4722 75.3953 14.3188 75.3141C14.1654 75.2328 13.993 75.1942 13.8195 75.2024C13.5775 75.1975 13.3427 75.2855 13.1636 75.4484C12.9734 75.6139 12.8317 75.8278 12.7535 76.0674C12.6692 76.3274 12.6263 76.5991 12.6265 76.8724C12.616 77.2948 12.7331 77.7106 12.9625 78.0654Z" fill="#4C5E84"/>
<path d="M18.7898 76.3353C18.9538 76.8353 19.0508 77.1253 19.0728 77.2073L19.2588 77.9073L19.3928 77.4303L19.4598 77.2213L20.4288 74.2383H21.7858L19.7858 79.5623H18.7198L16.7168 74.2403H18.0768C18.3768 75.1573 18.6058 75.8663 18.7698 76.3583" fill="#4C5E84"/>
<path d="M22.5403 75.5305C22.7157 75.1104 23.015 74.7539 23.3983 74.5085C23.8015 74.2468 24.2749 74.1142 24.7553 74.1285C25.0519 74.123 25.3464 74.1789 25.6203 74.2925C25.8613 74.384 26.0781 74.5294 26.2543 74.7175C26.4255 74.9004 26.5666 75.1093 26.6723 75.3365C26.7817 75.5739 26.8593 75.8248 26.9032 76.0825C26.8953 76.209 26.9131 76.3359 26.9553 76.4555C27.0073 76.5825 26.9553 76.7095 26.9553 76.8435V77.2535H23.5253C23.5192 77.614 23.629 77.9669 23.8383 78.2605C23.9394 78.3871 24.0693 78.4877 24.2171 78.5538C24.365 78.6199 24.5266 78.6496 24.6883 78.6405C24.9471 78.6428 25.2027 78.5839 25.4343 78.4685C25.6891 78.3167 25.8998 78.1009 26.0453 77.8425L26.9403 78.4425C26.7246 78.8471 26.4023 79.1849 26.0083 79.4195C25.5809 79.6242 25.1099 79.7213 24.6363 79.7025C24.3353 79.7035 24.0368 79.6478 23.7563 79.5385C23.5108 79.4434 23.2875 79.2987 23.1003 79.1135C22.9216 78.935 22.773 78.7286 22.6603 78.5025C22.5361 78.2678 22.4458 78.0166 22.3923 77.7565C22.3441 77.5107 22.319 77.2609 22.3173 77.0105C22.3066 76.5006 22.3976 75.9937 22.5852 75.5195L22.5403 75.5305ZM25.4483 75.5195C25.357 75.4123 25.2422 75.3275 25.1128 75.2719C24.9834 75.2162 24.843 75.1911 24.7023 75.1985C24.5607 75.1946 24.42 75.2229 24.2909 75.281C24.1617 75.3392 24.0473 75.4259 23.9563 75.5345C23.7522 75.7706 23.6202 76.0604 23.5763 76.3695H25.7673C25.7514 76.0596 25.6391 75.7625 25.4462 75.5195" fill="#4C5E84"/>
<path d="M29.2054 74.2132L29.2944 74.9212C29.3834 74.8022 29.4584 74.7052 29.5254 74.6302C29.6004 74.5461 29.6827 74.4688 29.7714 74.3992C29.8662 74.3163 29.9749 74.2507 30.0924 74.2052C30.2173 74.159 30.3477 74.1291 30.4804 74.1162H30.5554C30.6666 74.1181 30.777 74.1356 30.8834 74.1682C31.0241 74.2098 31.1586 74.27 31.2834 74.3472L30.9474 75.4282C30.7758 75.3561 30.5951 75.3083 30.4104 75.2862C30.3034 75.2834 30.1969 75.3017 30.097 75.3402C29.9972 75.3786 29.9059 75.4364 29.8284 75.5102C29.6401 75.6963 29.4929 75.9197 29.3964 76.1662V79.5362H28.1914V74.2132H29.2054Z" fill="#4C5E84"/>
<path d="M33.4638 74.2084L33.5088 74.9544C33.6938 74.7152 33.9218 74.5119 34.1798 74.3544C34.4098 74.2276 34.6638 74.1513 34.9258 74.1304H35.0978C35.2828 74.1256 35.4668 74.1533 35.6418 74.2124C35.8338 74.274 36.0098 74.3786 36.1558 74.5184C36.2948 74.6665 36.4058 74.8382 36.4838 75.0254C36.5728 75.2227 36.6348 75.4308 36.6698 75.6444V79.5364H35.4318V76.3274C35.4318 75.6267 35.1558 75.2764 34.6038 75.2764C34.3648 75.2782 34.1368 75.3746 33.9698 75.5444C33.7658 75.7363 33.5998 75.9637 33.4778 76.2154V79.5334H32.3457V74.2084H33.4638Z" fill="#4C5E84"/>
<path d="M39.2958 74.2135L39.3958 74.9595C39.5888 74.733 39.8088 74.5315 40.0518 74.3595C40.2628 74.2265 40.5028 74.1472 40.7518 74.1285H41.2068C41.3648 74.1538 41.5178 74.2016 41.6618 74.2705C41.8288 74.3436 41.9778 74.4501 42.1018 74.5835C42.2368 74.7387 42.3448 74.9151 42.4228 75.1055L42.5648 74.9265L42.6988 74.7775C42.7978 74.672 42.9018 74.5719 43.0118 74.4775C43.1358 74.3756 43.2738 74.2927 43.4218 74.2315C43.5678 74.165 43.7238 74.1247 43.8838 74.1125H44.0998C44.3358 74.1092 44.5708 74.1496 44.7928 74.2315C45.0358 74.3163 45.2458 74.4755 45.3928 74.6865C45.5388 74.8991 45.6448 75.1362 45.7058 75.3865C45.7758 75.6768 45.8098 75.9748 45.8058 76.2735V79.5175H44.5608V76.2985C44.5678 76.0357 44.4978 75.7765 44.3608 75.5525C44.2958 75.4673 44.2108 75.3995 44.1128 75.3552C44.0158 75.3109 43.9088 75.2914 43.8018 75.2985H43.7298C43.4918 75.3147 43.2668 75.415 43.0958 75.5815C42.9078 75.7557 42.7598 75.9695 42.6638 76.2075V79.5705H41.4188V76.2905C41.4248 76.0286 41.3578 75.7701 41.2248 75.5445C41.1628 75.4603 41.0818 75.3921 40.9888 75.3455C40.8958 75.2989 40.7918 75.2752 40.6878 75.2765H40.6058C40.3488 75.318 40.1078 75.4308 39.9118 75.6021C39.7158 75.7734 39.5708 75.9963 39.4948 76.2455V79.5565H38.2598V74.2405L39.2958 74.2135Z" fill="#4C5E84"/>
<path d="M47.2596 75.5305C47.4286 75.1136 47.7196 74.7574 48.0946 74.5085C48.4976 74.2468 48.9716 74.1142 49.4516 74.1285C49.7486 74.123 50.0426 74.1789 50.3166 74.2925C50.5576 74.384 50.7746 74.5294 50.9506 74.7175C51.1216 74.9004 51.2626 75.1094 51.3686 75.3365C51.4786 75.5739 51.5556 75.8248 51.5996 76.0825C51.5916 76.209 51.6096 76.3359 51.6516 76.4555C51.7036 76.5825 51.6516 76.7095 51.6516 76.8435V77.0525C51.6476 77.1191 51.6476 77.1859 51.6516 77.2525H48.2216C48.2156 77.613 48.3256 77.9659 48.5346 78.2595C48.6346 78.3855 48.7636 78.4858 48.9106 78.552C49.0566 78.6181 49.2176 78.6481 49.3776 78.6395C49.6366 78.6437 49.8926 78.585 50.1236 78.4685C50.3826 78.3195 50.5966 78.1032 50.7426 77.8425L51.6376 78.4425C51.4216 78.8471 51.0996 79.1849 50.7056 79.4195C50.2786 79.6242 49.8076 79.7213 49.3336 79.7025C49.0326 79.7035 48.7346 79.6478 48.4536 79.5385C48.2086 79.4434 47.9846 79.2987 47.7976 79.1135C47.6186 78.935 47.4706 78.7286 47.3576 78.5025C47.2336 78.2678 47.1436 78.0166 47.0896 77.7565C47.0376 77.5112 47.0126 77.2611 47.0146 77.0105C47.0036 76.5006 47.0956 75.9937 47.2826 75.5195L47.2596 75.5305ZM50.1456 75.5195C50.0496 75.417 49.9336 75.3356 49.8056 75.2804C49.6766 75.2252 49.5376 75.1974 49.3966 75.1988C49.2566 75.2003 49.1186 75.2308 48.9906 75.2886C48.8626 75.3464 48.7486 75.4301 48.6546 75.5345C48.4506 75.7706 48.3186 76.0604 48.2746 76.3695H50.4666C50.4506 76.0596 50.3386 75.7625 50.1456 75.5195Z" fill="#4C5E84"/>
<path d="M54.0739 74.2084L54.1109 74.9544C54.2959 74.7152 54.5239 74.5119 54.7819 74.3544C55.0119 74.2285 55.2659 74.1522 55.5279 74.1304H55.6989C55.8859 74.1256 56.0729 74.1533 56.2509 74.2124C56.4409 74.2786 56.6159 74.3827 56.7649 74.5184C56.9039 74.6665 57.0149 74.8382 57.0929 75.0254C57.1759 75.2242 57.2359 75.4319 57.2719 75.6444C57.2659 75.755 57.2789 75.8658 57.3089 75.9724C57.3159 76.0916 57.3159 76.2112 57.3089 76.3304V79.5364H56.0789V76.3274C56.0789 75.6267 55.8029 75.2764 55.2509 75.2764C55.0099 75.2782 54.7799 75.3745 54.6099 75.5444C54.4109 75.7403 54.2449 75.9669 54.1179 76.2154V79.5334H52.8809V74.2084H54.0739Z" fill="#4C5E84"/>
<path d="M59.0407 74.2106V73.0696L60.2407 72.6226V74.2226H61.3667V75.2226H60.2407V78.1456C60.2277 78.2709 60.2627 78.3964 60.3407 78.4956C60.3857 78.542 60.4407 78.5775 60.5007 78.5995C60.5617 78.6215 60.6267 78.6294 60.6907 78.6226H60.8327L61.1687 78.5776L61.3177 79.4726C61.0607 79.5696 60.7917 79.6276 60.5177 79.6446C60.3007 79.647 60.0857 79.6194 59.8767 79.5626C59.7197 79.5199 59.5727 79.4465 59.4447 79.3466C59.3367 79.2589 59.2477 79.1496 59.1837 79.0256C59.1177 78.9067 59.0697 78.7786 59.0417 78.6456C59.0367 78.5791 59.0367 78.5122 59.0417 78.4456C59.0377 78.371 59.0377 78.2963 59.0417 78.2216V75.2396H58.2207V74.2106H59.0407Z" fill="#4C5E84"/>
<path d="M69.948 72.2124L69.873 73.3984H66.458V75.2404H69.485L69.403 76.3884H66.458V78.3274H69.985L69.918 79.5354H65.168V72.2124H69.948Z" fill="#4C5E84"/>
<path d="M72.4312 74.2084L72.4762 74.9544C72.6622 74.7152 72.8892 74.5119 73.1472 74.3544C73.3772 74.2276 73.6322 74.1513 73.8932 74.1304H74.1022C74.2872 74.1256 74.4712 74.1533 74.6462 74.2124C74.8382 74.2757 75.0142 74.3801 75.1612 74.5184C75.3002 74.6665 75.4112 74.8382 75.4892 75.0254C75.5782 75.2227 75.6412 75.4308 75.6752 75.6444C75.6702 75.755 75.6822 75.8658 75.7122 75.9724C75.7312 76.091 75.7312 76.2118 75.7122 76.3304V79.5364H74.4742V76.3274C74.4742 75.6267 74.1982 75.2764 73.6462 75.2764C73.4082 75.2782 73.1802 75.3746 73.0122 75.5444C72.8092 75.7363 72.6422 75.9637 72.5202 76.2154V79.5334H71.2832V74.2084H72.4312Z" fill="#4C5E84"/>
<path d="M76.9716 76.2396C77.0206 75.9831 77.0976 75.7329 77.2026 75.4936C77.3086 75.2468 77.4516 75.0178 77.6276 74.8146C77.8046 74.6086 78.0266 74.4456 78.2766 74.3376C78.5646 74.2097 78.8776 74.1462 79.1936 74.1516C79.4676 74.1634 79.7356 74.2316 79.9826 74.3521C80.2286 74.4725 80.4476 74.6426 80.6256 74.8516V72.3246L81.8406 71.8696V79.5346H80.7596L80.7146 78.7886C80.5016 79.0429 80.2496 79.262 79.9686 79.4376C79.7046 79.5857 79.4056 79.6602 79.1036 79.6536C78.8176 79.6576 78.5336 79.6042 78.2686 79.4966C78.0356 79.4029 77.8266 79.2576 77.6576 79.0716C77.4896 78.8905 77.3516 78.6844 77.2476 78.4606C77.1366 78.223 77.0566 77.9724 77.0086 77.7146C76.9606 77.4687 76.9356 77.219 76.9336 76.9686C76.9336 76.7039 76.9566 76.4396 77.0006 76.1786L76.9716 76.2396ZM78.3126 77.6696C78.3866 77.8966 78.5146 78.1024 78.6856 78.2696C78.8586 78.4322 79.0886 78.5205 79.3266 78.5156C79.5966 78.5109 79.8586 78.4194 80.0726 78.2546C80.3086 78.0855 80.4916 77.8528 80.6016 77.5836V76.0896C80.4876 75.8519 80.3126 75.6487 80.0946 75.5006C79.8726 75.3563 79.6126 75.2811 79.3486 75.2846C79.1536 75.2795 78.9606 75.3257 78.7896 75.4186C78.6376 75.5122 78.5116 75.643 78.4246 75.7986C78.3396 75.9635 78.2766 76.1391 78.2386 76.3206C78.1986 76.5246 78.1786 76.7319 78.1786 76.9396C78.1776 77.1925 78.2156 77.4441 78.2906 77.6856" fill="#4C5E84"/>
<path d="M83.1981 76.1784C83.2251 76.0523 83.2581 75.9277 83.2981 75.8054C83.3441 75.6811 83.3971 75.5593 83.4551 75.4404C83.5721 75.1994 83.7261 74.978 83.9101 74.7844C84.1081 74.5804 84.3471 74.4203 84.6101 74.3144C84.9071 74.1852 85.2271 74.1218 85.5501 74.1284C85.8771 74.1223 86.2021 74.1832 86.5041 74.3074C86.7631 74.4159 86.9961 74.5758 87.1901 74.7774C87.3711 74.971 87.5201 75.1925 87.6301 75.4334C87.7441 75.6714 87.8291 75.9218 87.8841 76.1794C87.9301 76.4254 87.9521 76.6752 87.9511 76.9254C87.9591 77.0586 87.9591 77.1922 87.9511 77.3254C87.9421 77.4561 87.9221 77.5859 87.8911 77.7134C87.8371 77.9733 87.7471 78.2244 87.6231 78.4594C87.5011 78.6926 87.3481 78.9082 87.1681 79.1004C86.9731 79.2931 86.7391 79.443 86.4821 79.5404C86.1961 79.6543 85.8901 79.71 85.5821 79.7044C85.2661 79.7084 84.9531 79.6527 84.6571 79.5404C84.3991 79.4396 84.1651 79.2844 83.9711 79.0854C83.7901 78.8947 83.6371 78.6788 83.5161 78.4444C83.3911 78.2102 83.3011 77.9589 83.2481 77.6984C83.1971 77.4529 83.1701 77.2031 83.1661 76.9524C83.1641 76.7017 83.1891 76.4515 83.2411 76.2064L83.1981 76.1784ZM84.7321 78.1154C84.8171 78.2677 84.9411 78.3946 85.0911 78.4829C85.2411 78.5712 85.4121 78.6178 85.5861 78.6178C85.7611 78.6178 85.9321 78.5712 86.0821 78.4829C86.2321 78.3946 86.3561 78.2677 86.4401 78.1154C86.6461 77.7483 86.7571 77.3352 86.7601 76.9142C86.7641 76.4933 86.6621 76.0782 86.4621 75.7074C86.3711 75.5581 86.2411 75.4363 86.0861 75.355C85.9311 75.2736 85.7571 75.2358 85.5821 75.2454C85.3401 75.2412 85.1061 75.3292 84.9261 75.4914C84.7421 75.6595 84.6041 75.8728 84.5261 76.1104C84.4421 76.3704 84.3991 76.6421 84.3991 76.9154C84.3891 77.3378 84.5061 77.7536 84.7351 78.1084" fill="#4C5E84"/>
<path d="M90.2223 74.2132L90.3113 74.9212L90.5423 74.6302C90.6173 74.5461 90.7003 74.4688 90.7883 74.3992C90.8833 74.3163 90.9923 74.2507 91.1093 74.2052C91.2343 74.159 91.3653 74.1291 91.4973 74.1162H91.5723C91.6843 74.1181 91.7943 74.1356 91.9003 74.1682C92.0413 74.2098 92.1763 74.27 92.3003 74.3472L91.9943 75.4282C91.8233 75.3561 91.6423 75.3083 91.4573 75.2862C91.3503 75.2834 91.2443 75.3017 91.1443 75.3402C91.0443 75.3786 90.9533 75.4364 90.8753 75.5102C90.6873 75.6963 90.5403 75.9197 90.4433 76.1662V79.5362H89.2383V74.2132H90.2223Z" fill="#4C5E84"/>
<path d="M94.9201 78.6034C95.1241 78.6042 95.3241 78.5447 95.4941 78.4324C95.5771 78.3855 95.6461 78.317 95.6931 78.2343C95.7401 78.1516 95.7641 78.0576 95.7621 77.9624C95.7601 77.9093 95.7451 77.8574 95.7191 77.8108C95.6941 77.7643 95.6571 77.7245 95.6131 77.6944C95.4981 77.6091 95.3701 77.5436 95.2331 77.5004L94.7151 77.3354C94.5231 77.2836 94.3341 77.2215 94.1481 77.1494C93.9641 77.0813 93.7891 76.9913 93.6261 76.8814C93.4691 76.777 93.3381 76.6364 93.2461 76.4714C93.1461 76.2836 93.0951 76.0734 93.0971 75.8604C93.0891 75.6256 93.1321 75.3918 93.2231 75.1754C93.3141 74.9589 93.4521 74.7651 93.6261 74.6074C93.9861 74.2852 94.4561 74.1143 94.9381 74.1304C95.3341 74.1212 95.7251 74.2197 96.0691 74.4154C96.4131 74.6111 96.6981 74.8966 96.8921 75.2414L95.9921 75.8604C95.8851 75.6634 95.7261 75.4995 95.5321 75.3865C95.3381 75.2735 95.1171 75.2158 94.8921 75.2194C94.7371 75.214 94.5851 75.2672 94.4671 75.3684C94.4081 75.4159 94.3601 75.4771 94.3291 75.5467C94.2981 75.6163 94.2841 75.6923 94.2881 75.7684C94.2901 75.8217 94.3051 75.8738 94.3301 75.9204C94.3561 75.967 94.3931 76.0068 94.4371 76.0364C94.5521 76.1217 94.6811 76.1873 94.8171 76.2304L95.0631 76.3054L95.3391 76.3804C95.4361 76.4033 95.5301 76.433 95.6221 76.4694L95.9051 76.5694L96.1811 76.6964C96.2681 76.7348 96.3511 76.7824 96.4271 76.8384C96.5871 76.9466 96.7181 77.0926 96.8071 77.2634C96.9091 77.4563 96.9601 77.6716 96.9561 77.8894C96.9651 78.1314 96.9191 78.3722 96.8221 78.5942C96.7251 78.8162 96.5801 79.0137 96.3971 79.1724C96.0221 79.5052 95.5341 79.6838 95.0321 79.6724C94.5791 79.689 94.1281 79.5989 93.7151 79.4094C93.3361 79.1836 93.0291 78.8554 92.8281 78.4624L93.7151 77.8494C93.8291 78.0704 94.0011 78.2565 94.2121 78.3878C94.4241 78.5191 94.6671 78.5909 94.9151 78.5954" fill="#4C5E84"/>
<path d="M98.193 75.5305C98.362 75.1136 98.653 74.7574 99.028 74.5085C99.431 74.2468 99.905 74.1142 100.385 74.1285C100.682 74.123 100.976 74.1789 101.25 74.2925C101.491 74.384 101.708 74.5294 101.884 74.7175C102.057 74.8989 102.199 75.1082 102.302 75.3365C102.457 75.6848 102.553 76.0566 102.585 76.4365C102.593 76.5657 102.593 76.6952 102.585 76.8245V77.2345H99.155C99.148 77.5964 99.261 77.9504 99.476 78.2415C99.575 78.3685 99.704 78.4695 99.851 78.5357C99.998 78.6019 100.158 78.6313 100.319 78.6215C100.578 78.6238 100.834 78.5649 101.065 78.4495C101.32 78.2977 101.531 78.0819 101.676 77.8235L102.571 78.4235C102.356 78.8281 102.033 79.1659 101.639 79.4005C101.212 79.6052 100.741 79.7023 100.267 79.6835C99.966 79.6845 99.668 79.6288 99.387 79.5195C99.142 79.4244 98.918 79.2797 98.731 79.0945C98.553 78.916 98.404 78.7096 98.291 78.4835C98.166 78.2501 98.077 77.9983 98.03 77.7375C97.976 77.4925 97.948 77.2424 97.948 76.9915C97.938 76.4816 98.029 75.9747 98.216 75.5005L98.193 75.5305ZM101.079 75.5005C100.988 75.3933 100.873 75.3085 100.744 75.2529C100.614 75.1972 100.474 75.1721 100.333 75.1795C100.192 75.1756 100.051 75.2038 99.922 75.2619C99.793 75.3201 99.678 75.4068 99.587 75.5155C99.383 75.7515 99.251 76.0414 99.207 76.3505H101.399C101.383 76.0406 101.271 75.7435 101.078 75.5005" fill="#4C5E84"/>
<path d="M103.705 76.2391C103.751 75.9819 103.829 75.7313 103.936 75.4931C104.043 75.2481 104.183 75.0194 104.354 74.8141C104.535 74.608 104.759 74.445 105.01 74.3371C105.298 74.2078 105.612 74.1442 105.927 74.1511C106.201 74.1629 106.47 74.2311 106.716 74.3516C106.963 74.472 107.182 74.6421 107.359 74.8511V72.3241L108.574 71.8691V79.5341H107.493L107.441 78.7881C107.227 79.0411 106.976 79.2599 106.695 79.4371C106.431 79.5841 106.133 79.6586 105.83 79.6531C105.544 79.658 105.26 79.6045 104.995 79.4961C104.761 79.4045 104.552 79.2589 104.384 79.0711C104.215 78.8915 104.076 78.685 103.974 78.4601C103.86 78.2239 103.78 77.9728 103.735 77.7141C103.684 77.4688 103.659 77.2187 103.66 76.9681C103.664 76.7032 103.689 76.4389 103.735 76.1781L103.705 76.2391ZM105.035 77.6691C105.109 77.8983 105.24 78.1049 105.415 78.2691C105.588 78.4326 105.819 78.5211 106.056 78.5151C106.326 78.5088 106.587 78.4175 106.802 78.2541C107.035 78.0809 107.217 77.8494 107.331 77.5831V76.0891C107.217 75.8514 107.042 75.6482 106.824 75.5001C106.602 75.357 106.343 75.2819 106.078 75.2841C105.892 75.2737 105.707 75.3166 105.545 75.4076C105.383 75.4987 105.25 75.6341 105.161 75.7981C105.073 75.9616 105.01 76.1377 104.975 76.3201C104.932 76.5236 104.912 76.7312 104.915 76.9391C104.914 77.1921 104.952 77.4436 105.027 77.6851" fill="#4C5E84"/>
<path d="M112.72 74.7556C112.792 74.406 112.91 74.0673 113.07 73.7486C113.219 73.4366 113.415 73.1498 113.652 72.8987C113.892 72.6469 114.181 72.4485 114.502 72.3166C115.207 72.0286 115.997 72.0286 116.702 72.3166C117.021 72.4466 117.308 72.6422 117.545 72.8907C117.785 73.136 117.984 73.4179 118.134 73.7256C118.297 74.0497 118.417 74.3932 118.492 74.7476C118.573 75.1124 118.613 75.485 118.611 75.8586C118.61 76.3629 118.54 76.8646 118.402 77.3497C118.284 77.832 118.066 78.284 117.761 78.6767L118.461 79.7506L117.648 80.3916L116.969 79.3476C116.551 79.5663 116.084 79.6767 115.612 79.6687C115.308 79.6697 115.005 79.6269 114.712 79.5416C114.447 79.4715 114.195 79.358 113.966 79.2056C113.761 79.0622 113.577 78.889 113.422 78.6916C113.261 78.4991 113.127 78.2859 113.022 78.0577C112.97 77.9387 112.922 77.8266 112.88 77.7076L112.768 77.3427C112.702 77.0976 112.653 76.8483 112.619 76.5966C112.589 76.3492 112.573 76.1 112.574 75.8506C112.575 75.4901 112.612 75.1305 112.686 74.7776L112.72 74.7556ZM113.894 76.1936C113.888 76.3092 113.901 76.425 113.931 76.5367C113.968 76.7729 114.028 77.005 114.11 77.2296C114.184 77.4465 114.287 77.6522 114.416 77.8406C114.537 78.0174 114.698 78.1631 114.886 78.2657C115.088 78.3815 115.318 78.4406 115.55 78.4366C115.784 78.4373 116.014 78.381 116.221 78.2727L115.438 77.0647L116.238 76.4306L116.372 76.6306L116.484 76.8017L116.626 77.0176L116.775 77.2486C116.824 77.316 116.868 77.3857 116.909 77.4576C117.121 76.9475 117.223 76.3987 117.209 75.8466V75.5306C117.216 75.4168 117.201 75.3027 117.164 75.1946C117.097 74.7406 116.929 74.3074 116.672 73.9266C116.553 73.7474 116.395 73.5971 116.21 73.4866C116.016 73.3793 115.798 73.3228 115.576 73.3226C115.386 73.3223 115.198 73.3628 115.024 73.4416C114.86 73.5208 114.713 73.6324 114.592 73.7696C114.477 73.9142 114.374 74.0689 114.286 74.2317C114.2 74.4078 114.133 74.5929 114.086 74.7836C114.057 74.8762 114.035 74.9708 114.019 75.0666L113.974 75.3427V75.8567V76.2066" fill="#4C5E84"/>
<path d="M121.168 74.2174V77.4804C121.168 78.1884 121.444 78.5394 121.996 78.5394C122.236 78.5376 122.466 78.4415 122.637 78.2715C122.837 78.0814 123.001 77.8563 123.122 77.6074V74.2254H124.36V79.5415H123.271L123.182 78.8624C122.995 79.1008 122.768 79.3039 122.511 79.4624C122.281 79.5879 122.026 79.6616 121.765 79.6784H121.593C121.408 79.6784 121.225 79.6508 121.049 79.5965C120.857 79.5337 120.683 79.4264 120.542 79.2834C120.405 79.138 120.291 78.972 120.206 78.7915C120.121 78.5931 120.061 78.3852 120.027 78.1724V74.2104L121.168 74.2174Z" fill="#4C5E84"/>
<path d="M125.588 77.4467C125.628 77.3052 125.688 77.1705 125.767 77.0467C125.844 76.9274 125.943 76.8236 126.058 76.7407C126.169 76.6597 126.286 76.5874 126.408 76.5247L126.594 76.4427L126.825 76.3677L127.064 76.3157L127.264 76.2707H128.614C128.639 76.011 128.582 75.75 128.45 75.5247C128.361 75.441 128.255 75.3783 128.139 75.3409C128.023 75.3035 127.9 75.2925 127.779 75.3087C127.559 75.3068 127.34 75.3406 127.13 75.4087C126.889 75.5014 126.661 75.624 126.451 75.7737L125.851 74.9387C126.101 74.696 126.396 74.5052 126.72 74.3771C127.044 74.2491 127.39 74.1864 127.738 74.1927C127.989 74.1852 128.24 74.2104 128.484 74.2677C128.671 74.3119 128.851 74.3791 129.021 74.4677C129.17 74.5483 129.3 74.6602 129.401 74.7957C129.497 74.9223 129.577 75.06 129.64 75.2057C129.708 75.3659 129.755 75.5338 129.782 75.7057C129.776 75.8015 129.789 75.8976 129.819 75.9887V79.5887H128.797V79.1267C128.792 79.0498 128.792 78.9726 128.797 78.8957C128.578 79.1266 128.327 79.325 128.051 79.4847C127.798 79.6407 127.506 79.7234 127.208 79.7237C126.983 79.7358 126.758 79.698 126.549 79.613C126.34 79.5279 126.153 79.3977 126 79.2317C125.699 78.8854 125.542 78.4372 125.56 77.9787C125.558 77.8097 125.581 77.6413 125.627 77.4787L125.588 77.4467ZM126.947 78.5077C127.094 78.6336 127.283 78.6978 127.476 78.6867C127.713 78.6809 127.942 78.6027 128.132 78.4627C128.34 78.3224 128.516 78.1393 128.647 77.9257V77.0157H127.603C127.514 77.0311 127.426 77.0563 127.342 77.0907C127.263 77.1215 127.188 77.1614 127.118 77.2097C127.049 77.2525 126.986 77.3054 126.932 77.3667C126.888 77.4346 126.85 77.507 126.82 77.5827C126.789 77.6713 126.774 77.7647 126.775 77.8587C126.764 78.0515 126.828 78.2412 126.954 78.3877" fill="#4C5E84"/>
<path d="M132.332 71.8467V78.1697C132.318 78.2889 132.35 78.4088 132.421 78.5057C132.459 78.5382 132.502 78.5628 132.55 78.5781C132.597 78.5934 132.647 78.599 132.697 78.5947H133.174L133.323 79.4947C133.084 79.5891 132.833 79.6467 132.577 79.6657C132.367 79.6713 132.158 79.6436 131.958 79.5837C131.805 79.5427 131.662 79.469 131.54 79.3677C131.439 79.2757 131.357 79.1641 131.301 79.0397C131.247 78.9155 131.21 78.7852 131.189 78.6517C131.177 78.5126 131.177 78.3727 131.189 78.2337V72.3617L132.332 71.8467Z" fill="#4C5E84"/>
<path d="M135.649 74.2184V79.5353H134.441V75.2104H133.889V74.2184H135.649ZM134.441 71.9814C134.518 71.9034 134.61 71.8415 134.711 71.7993C134.812 71.7571 134.92 71.7353 135.03 71.7354C135.196 71.7346 135.359 71.7832 135.498 71.8751C135.636 71.967 135.744 72.098 135.808 72.2514C135.872 72.4049 135.889 72.5739 135.857 72.737C135.825 72.9002 135.745 73.05 135.627 73.1676C135.51 73.2852 135.36 73.3652 135.197 73.3974C135.033 73.4297 134.864 73.4127 134.711 73.3487C134.557 73.2847 134.426 73.1766 134.335 73.038C134.243 72.8994 134.194 72.7366 134.195 72.5703C134.194 72.4584 134.216 72.3474 134.259 72.2442C134.303 72.141 134.367 72.0478 134.448 71.9704" fill="#4C5E84"/>
<path d="M137.482 74.2106V73.0696L138.682 72.6226V74.2226H139.808V75.2226H138.682V78.1456C138.672 78.2706 138.707 78.395 138.782 78.4956C138.828 78.5407 138.883 78.5754 138.943 78.5973C139.004 78.6192 139.068 78.6279 139.132 78.6226H139.281L139.617 78.5776L139.766 79.4726C139.51 79.5696 139.24 79.6276 138.966 79.6446C138.75 79.647 138.534 79.6194 138.325 79.5626C138.168 79.5199 138.022 79.4465 137.893 79.3466C137.783 79.2609 137.694 79.1511 137.632 79.0256C137.566 78.9067 137.519 78.7787 137.49 78.6456C137.482 78.5792 137.482 78.5121 137.49 78.4456C137.486 78.371 137.486 78.2963 137.49 78.2216V75.2396H136.662V74.2106H137.482Z" fill="#4C5E84"/>
<path d="M142.53 76.7235L142.866 77.8415H142.911C143.075 77.2748 143.187 76.9081 143.247 76.7415L143.993 74.2365H145.343L143.181 80.4175C143.076 80.7946 142.868 81.1352 142.581 81.4015C142.262 81.6123 141.882 81.7118 141.5 81.6845C141.231 81.6696 140.966 81.6195 140.71 81.5355L140.867 80.5435H141.046L141.255 80.5885H141.434C141.506 80.5974 141.579 80.5974 141.65 80.5885C141.711 80.5612 141.765 80.5205 141.807 80.4695C142.001 80.1052 142.165 79.7264 142.299 79.3365L140.33 74.1885H141.672C142.172 75.6795 142.418 76.5375 142.492 76.6715" fill="#4C5E84"/>
</g>
<defs>
<clipPath id="clip0_566_8098">
<rect width="145.343" height="81.6889" fill="white"/>
</clipPath>
</defs>
</svg>