<svg width="359" height="512" viewBox="0 0 359 512" fill="none" xmlns="http://www.w3.org/2000/svg">
<path d="M0 178C0 79.6933 81.1933 0 179.5 0V0C277.807 0 359 79.6933 359 178V500C359 506.627 353.627 512 347 512H12C5.37258 512 0 506.627 0 500V178Z" fill="black"/>
<path d="M233 228C233 218.611 240.611 211 250 211H330V256H233V228Z" fill="#EAF3F5"/>
<path d="M165 303C165 293.611 172.611 286 182 286H330V331H165V303Z" fill="#EAF3F5"/>
<path d="M97 378C97 368.611 104.611 361 114 361H330V406H97V378Z" fill="#EAF3F5"/>
<path d="M27 453C27 443.611 34.6112 436 44 436H330V481H27V453Z" fill="#EAF3F5"/>
</svg>
