<svg width="515" height="515" viewBox="0 0 515 515" fill="none" xmlns="http://www.w3.org/2000/svg">
<path d="M48.2812 450.625H466.719M80.4688 64.375V450.625M305.781 64.375V450.625M434.531 160.938V450.625M144.844 144.844H160.938M144.844 209.219H160.938M144.844 273.594H160.938M225.313 144.844H241.406M225.313 209.219H241.406M225.313 273.594H241.406M144.844 450.625V378.203C144.844 364.878 155.659 354.063 168.984 354.063H217.266C230.591 354.063 241.406 364.878 241.406 378.203V450.625M64.375 64.375H321.875M305.781 160.938H450.625M370.156 241.406H370.328V241.578H370.156V241.406ZM370.156 305.781H370.328V305.953H370.156V305.781ZM370.156 370.156H370.328V370.328H370.156V370.156Z" stroke="black" stroke-width="32.1875" stroke-linecap="round" stroke-linejoin="round"/>
</svg>
