<svg width="390" height="466" viewBox="0 0 390 466" fill="none" xmlns="http://www.w3.org/2000/svg">
<path d="M286.102 32.7523L287.242 38.3448L291.71 34.7933L303.873 25.125L296.463 38.7818L293.741 43.7984L299.447 43.9496L314.979 44.3613L300.524 50.0603L295.215 52.1538L299.488 55.937L311.122 66.236L296.386 61.3107L290.973 59.5014L291.814 65.1464L294.106 80.5137L285.984 67.2686L283 62.4032L280.016 67.2686L271.894 80.5137L274.186 65.1464L275.027 59.5014L269.614 61.3107L254.878 66.236L266.512 55.937L270.785 52.1538L265.476 50.0603L251.021 44.3613L266.553 43.9496L272.259 43.7984L269.537 38.7818L262.127 25.125L274.29 34.7933L278.758 38.3448L279.898 32.7523L283 17.528L286.102 32.7523Z" stroke="black" stroke-width="7"/>
<path d="M331.774 97.7783L333 91.764L334.226 97.7783C334.636 99.7897 337.025 100.659 338.631 99.3819L343.436 95.5625L340.509 100.958C339.53 102.762 340.802 104.964 342.854 105.018L348.989 105.181L343.279 107.432C341.37 108.185 340.928 110.689 342.465 112.049L347.061 116.118L341.239 114.172C339.293 113.522 337.345 115.156 337.648 117.186L338.553 123.257L335.344 118.024C334.271 116.275 331.729 116.275 330.656 118.024L327.447 123.257L328.352 117.186C328.655 115.156 326.707 113.522 324.761 114.172L318.939 116.118L323.535 112.049C325.072 110.689 324.63 108.185 322.721 107.432L317.011 105.181L323.146 105.018C325.198 104.964 326.47 102.762 325.491 100.958L322.564 95.5625L327.369 99.3819C328.975 100.659 331.364 99.7897 331.774 97.7783Z" stroke="black" stroke-width="3.5"/>
<path d="M189.941 70.4072L20.558 239.798C10.8881 249.469 10.9632 265.17 20.7251 274.747V274.747C30.4435 284.282 46.0586 284.108 55.5624 274.36L194.341 132.007" stroke="black" stroke-width="26.4" stroke-linecap="round"/>
<path d="M190.821 70.4073L368.848 240.012C378.817 249.51 378.934 265.378 369.105 275.022V275.022C359.514 284.432 344.112 284.293 334.692 274.712L196.101 133.767" stroke="black" stroke-width="26.4" stroke-linecap="round"/>
<path d="M72.9023 256.967V448.807C72.9023 450.751 74.4783 452.327 76.4223 452.327H314.022C315.966 452.327 317.542 450.751 317.542 448.807V256.967" stroke="black" stroke-width="26.4"/>
<circle cx="194.341" cy="234.087" r="27.28" stroke="black" stroke-width="26.4"/>
<path d="M246.261 364.327V451.447H142.421V364.327C142.421 335.653 165.666 312.407 194.341 312.407C223.015 312.407 246.261 335.653 246.261 364.327Z" stroke="black" stroke-width="26.4"/>
<rect x="169.701" y="367.847" width="26.4" height="54.56" rx="13.2" fill="black"/>
</svg>
