<svg width="503" height="478" viewBox="0 0 503 478" fill="none" xmlns="http://www.w3.org/2000/svg">
<path d="M148.996 246.984V373.484C148.662 378.984 151.096 389.984 163.496 389.984C174.718 389.984 214.909 389.984 238.997 389.984C242.863 389.984 245.995 386.85 245.995 382.984V328.984C245.995 327.88 246.891 326.984 247.995 326.984H291.995C293.1 326.984 293.995 327.88 293.995 328.984V382.984C293.995 386.85 297.129 389.984 300.995 389.984H371.995C378.162 389.484 390.395 383.584 389.995 363.984C389.595 344.384 389.828 285.317 389.995 254.484" stroke="black" stroke-width="15" stroke-linecap="round"/>
<path d="M254.995 116.984L131.995 263.984L89.3818 266.676C87.594 266.788 86.5381 264.711 87.7354 263.379C139.13 206.19 238.422 95.5153 248.995 82.9842C259.795 70.1842 269.162 71.9842 272.495 74.4842L439.193 264.925C439.807 265.627 439.212 266.713 438.29 266.573L394.995 259.984L282.995 126.984C269.995 110.484 262.495 108.484 254.995 116.984Z" stroke="black" stroke-width="15" stroke-linecap="round"/>
<mask id="path-3-inside-1_492_672" fill="white">
<rect x="317.495" y="277.484" width="49" height="53" rx="7"/>
</mask>
<rect x="317.495" y="277.484" width="49" height="53" rx="7" stroke="black" stroke-width="30" mask="url(#path-3-inside-1_492_672)"/>
<mask id="path-4-inside-2_492_672" fill="white">
<rect x="174.495" y="276.484" width="49" height="53" rx="7"/>
</mask>
<rect x="174.495" y="276.484" width="49" height="53" rx="7" stroke="black" stroke-width="30" mask="url(#path-4-inside-2_492_672)"/>
<path d="M261.495 171.984H267.495C281.578 171.984 292.995 183.401 292.995 197.484V247.984H235.995V197.484C235.995 183.401 247.412 171.984 261.495 171.984Z" stroke="black" stroke-width="15"/>
<path d="M18.8882 380.803L108.818 333.066C111.036 331.889 110.913 328.672 108.613 327.667L39.4732 297.47C37.79 296.734 35.8472 297.671 35.3738 299.446L14.5829 377.38C13.9076 379.912 16.574 382.032 18.8882 380.803Z" fill="black" stroke="black" stroke-width="15" stroke-linecap="round"/>
<path d="M175.156 469.701C140.764 463.157 69.9694 432.577 61.9232 362.605" stroke="black" stroke-width="15" stroke-linecap="round"/>
<path d="M489.825 56.7953L414.231 124.999C412.367 126.681 413.269 129.772 415.745 130.186L490.158 142.633C491.97 142.936 493.626 141.555 493.653 139.718L494.834 59.0667C494.873 56.447 491.77 55.0403 489.825 56.7953Z" fill="black" stroke="black" stroke-width="15" stroke-linecap="round"/>
<path d="M316.611 8.63782C351.561 6.60755 427.672 19.0232 452.519 84.9278" stroke="black" stroke-width="15" stroke-linecap="round"/>
<path d="M198 141.5V91C198 84.3726 192.627 79 186 79V79C179.373 79 174 84.3726 174 91V167" stroke="black" stroke-width="15"/>
</svg>
