<svg width="48" height="48" viewBox="0 0 48 48" fill="none" xmlns="http://www.w3.org/2000/svg">
<g clip-path="url(#clip0_43_903)">
<path d="M18.3 37.221C18.3 36.8321 18.4545 36.4591 18.7296 36.184C19.0046 35.909 19.3776 35.7545 19.7666 35.7545H28.5659C28.9548 35.7545 29.3279 35.909 29.6029 36.184C29.8779 36.4591 30.0324 36.8321 30.0324 37.221C30.0324 37.61 29.8779 37.983 29.6029 38.258C29.3279 38.5331 28.9548 38.6876 28.5659 38.6876H19.7666C19.3776 38.6876 19.0046 38.5331 18.7296 38.258C18.4545 37.983 18.3 37.61 18.3 37.221ZM9.50071 24.2039C9.50071 20.385 13.1231 17.4666 16.9215 17.8215C21.7408 18.2713 26.5916 18.2713 31.411 17.8215C35.2094 17.4666 38.8318 20.385 38.8318 24.2039V27.5975C38.8437 28.2465 38.6247 28.8786 38.2136 29.3809C37.8026 29.8833 37.2264 30.2232 36.5879 30.34C34.1095 30.7711 29.7245 31.3548 24.1662 31.3548C18.608 31.3548 14.223 30.7682 11.7445 30.34C11.106 30.2232 10.5298 29.8833 10.1188 29.3809C9.70781 28.8786 9.48873 28.2465 9.50071 27.5975V24.2039ZM22.8229 21.7782C22.7086 21.7588 22.5913 21.7667 22.4806 21.8014C22.37 21.8361 22.2692 21.8965 22.1864 21.9777L19.4879 24.6175C17.6525 24.5081 15.8219 24.329 14.0001 24.0807C13.8113 24.062 13.6226 24.1171 13.4736 24.2346C13.3246 24.352 13.227 24.5227 13.2011 24.7106C13.1753 24.8986 13.2233 25.0892 13.3351 25.2425C13.4469 25.3958 13.6138 25.4998 13.8006 25.5326C15.4138 25.7555 17.4142 25.9697 19.7255 26.0987C19.8273 26.1044 19.9292 26.0889 20.0246 26.053C20.1201 26.0172 20.207 25.9618 20.2799 25.8905L22.4914 23.7317L24.9758 28.7473C25.0281 28.8525 25.105 28.9436 25.1999 29.0129C25.2948 29.0822 25.4049 29.1277 25.5211 29.1455C25.6373 29.1634 25.756 29.153 25.8673 29.1154C25.9786 29.0777 26.0793 29.0138 26.1607 28.9292L28.8944 26.084C30.7799 25.9721 32.6604 25.7881 34.5318 25.5326C34.7187 25.4998 34.8855 25.3958 34.9973 25.2425C35.1091 25.0892 35.1572 24.8986 35.1313 24.7106C35.1055 24.5227 35.0079 24.352 34.8589 24.2346C34.7099 24.1171 34.5212 24.062 34.3324 24.0807C32.7544 24.2978 30.7921 24.506 28.5248 24.6351C28.3402 24.6454 28.1663 24.725 28.0379 24.858L25.8264 27.1605L23.3567 22.1742C23.3052 22.0708 23.23 21.9811 23.1372 21.9123C23.0445 21.8435 22.9367 21.7975 22.8229 21.7782Z" fill="#242A3D"/>
<path d="M25.6329 6.03062C26.1921 5.70778 26.6291 5.20946 26.8762 4.61293C27.1233 4.0164 27.1667 3.35501 26.9995 2.73133C26.8324 2.10766 26.4642 1.55655 25.9519 1.16349C25.4397 0.770426 24.8121 0.557373 24.1664 0.557373C23.5207 0.557373 22.8931 0.770426 22.3808 1.16349C21.8686 1.55655 21.5003 2.10766 21.3332 2.73133C21.1661 3.35501 21.2094 4.0164 21.4565 4.61293C21.7036 5.20946 22.1406 5.70778 22.6998 6.03062V9.35676H16.8336C13.333 9.35676 9.97582 10.7474 7.50053 13.2226C5.02524 15.6979 3.63464 19.0551 3.63464 22.5557V24.0223C2.85673 24.0223 2.11069 24.3313 1.56062 24.8814C1.01056 25.4314 0.701538 26.1775 0.701538 26.9554L0.701538 32.8216C0.701538 33.5995 1.01056 34.3456 1.56062 34.8956C2.11069 35.4457 2.85673 35.7547 3.63464 35.7547V38.6878C3.63464 40.2436 4.25269 41.7357 5.35282 42.8358C6.45294 43.936 7.94504 44.554 9.50085 44.554H38.8319C40.3877 44.554 41.8798 43.936 42.9799 42.8358C44.0801 41.7357 44.6981 40.2436 44.6981 38.6878V35.7547C45.476 35.7547 46.2221 35.4457 46.7721 34.8956C47.3222 34.3456 47.6312 33.5995 47.6312 32.8216V26.9554C47.6312 26.1775 47.3222 25.4314 46.7721 24.8814C46.2221 24.3313 45.476 24.0223 44.6981 24.0223V22.5557C44.6981 19.0551 43.3075 15.6979 40.8322 13.2226C38.3569 10.7474 34.9997 9.35676 31.4991 9.35676H25.6329V6.03062ZM41.765 22.5557V38.6878C41.765 39.4657 41.456 40.2118 40.9059 40.7618C40.3559 41.3119 39.6098 41.6209 38.8319 41.6209H9.50085C8.72294 41.6209 7.9769 41.3119 7.42683 40.7618C6.87677 40.2118 6.56775 39.4657 6.56775 38.6878V22.5557C6.56775 19.8331 7.64933 17.2219 9.57455 15.2967C11.4998 13.3714 14.1109 12.2899 16.8336 12.2899H31.4991C34.2218 12.2899 36.833 13.3714 38.7582 15.2967C40.6834 17.2219 41.765 19.8331 41.765 22.5557Z" fill="#242A3D"/>
</g>
<defs>
<clipPath id="clip0_43_903">
<rect x="0.701538" y="0.557373" width="46.9297" height="46.9297" rx="7.65695" fill="white"/>
</clipPath>
</defs>
</svg>
