<svg width="47" height="48" viewBox="0 0 47 48" fill="none" xmlns="http://www.w3.org/2000/svg">
<g clip-path="url(#clip0_45_909)">
<path d="M24.0104 3.39978C23.6602 3.25945 23.2694 3.25945 22.9193 3.39978L5.41451 10.4011L12.4657 13.2198L30.516 6.00145L24.0104 3.39978ZM34.464 7.58239L16.4137 14.8008L23.4648 17.6195L41.5152 10.4011L34.464 7.58239ZM43.9966 12.5687L24.9314 20.1947V43.4308L43.9966 35.8047V12.5687ZM21.9983 43.4337V20.1918L2.9331 12.5687V35.8077L21.9983 43.4337ZM21.8311 0.674929C22.8799 0.255493 24.0498 0.255493 25.0986 0.674929L46.0087 9.04014C46.2805 9.14909 46.5136 9.33695 46.6777 9.57951C46.8418 9.82207 46.9296 10.1082 46.9297 10.4011V35.8077C46.9293 36.3938 46.7533 36.9663 46.4245 37.4515C46.0957 37.9366 45.629 38.3121 45.0848 38.5296L24.0104 46.9593C23.6602 47.0997 23.2694 47.0997 22.9193 46.9593L1.84786 38.5296C1.30304 38.3126 0.835766 37.9373 0.506377 37.4521C0.176989 36.9669 0.000605185 36.3941 0 35.8077L0 10.4011C6.81652e-05 10.1082 0.0878281 9.82207 0.251974 9.57951C0.41612 9.33695 0.649133 9.14909 0.920995 9.04014L21.8311 0.674929Z" fill="#242A3D"/>
</g>
<defs>
<clipPath id="clip0_45_909">
<rect y="0.135498" width="46.9297" height="46.9297" rx="7.65695" fill="white"/>
</clipPath>
</defs>
</svg>
