<svg width="48" height="47" viewBox="0 0 48 47" fill="none" xmlns="http://www.w3.org/2000/svg">
<g clip-path="url(#clip0_45_923)">
<path d="M33.702 0.223208C33.9891 0.389627 34.2112 0.648479 34.3321 0.957474C34.4531 1.26647 34.4656 1.60734 34.3678 1.92441L29.0853 19.0889H38.832C39.1184 19.0888 39.3986 19.1726 39.638 19.3299C39.8774 19.4872 40.0654 19.7112 40.179 19.9741C40.2925 20.2371 40.3266 20.5275 40.2769 20.8096C40.2273 21.0917 40.0961 21.3531 39.8996 21.5615L16.4348 46.4929C16.2078 46.7344 15.9056 46.8918 15.5777 46.9395C15.2497 46.9872 14.9153 46.9225 14.6288 46.7558C14.3424 46.5891 14.1208 46.3303 14.0003 46.0216C13.8798 45.7128 13.8674 45.3724 13.9651 45.0557L19.2477 27.8882H9.50095C9.21452 27.8884 8.93432 27.8046 8.69495 27.6473C8.45558 27.49 8.26751 27.266 8.15397 27.0031C8.04042 26.7401 8.00637 26.4496 8.05601 26.1675C8.10565 25.8854 8.23681 25.6241 8.4333 25.4156L31.8981 0.484254C32.1249 0.24315 32.4266 0.0858463 32.7541 0.0379192C33.0816 -0.0100078 33.4156 0.0542605 33.702 0.220275V0.223208ZM12.8946 24.9551H21.2334C21.4629 24.9551 21.6892 25.0089 21.8941 25.1123C22.099 25.2156 22.2768 25.3657 22.4132 25.5502C22.5496 25.7348 22.6407 25.9489 22.6793 26.1751C22.7179 26.4014 22.7029 26.6335 22.6354 26.8529L18.6229 39.8846L35.4355 22.022H27.0996C26.8701 22.0221 26.6438 21.9683 26.4388 21.8649C26.2339 21.7615 26.0561 21.6115 25.9197 21.4269C25.7834 21.2423 25.6922 21.0283 25.6536 20.8021C25.615 20.5758 25.6301 20.3437 25.6976 20.1243L29.71 7.09254L12.8946 24.9551Z" fill="#242A3D"/>
</g>
<defs>
<clipPath id="clip0_45_923">
<rect x="0.701538" y="0.0239258" width="46.9297" height="46.9297" rx="7.65695" fill="white"/>
</clipPath>
</defs>
</svg>
