<svg width="48" height="48" viewBox="0 0 48 48" fill="none" xmlns="http://www.w3.org/2000/svg">
<g clip-path="url(#clip0_45_944)">
<path d="M8.10469 2.02393C8.10469 1.63497 8.2592 1.26195 8.53423 0.986916C8.80927 0.711884 9.18229 0.557373 9.57124 0.557373L38.9023 0.557373C39.2912 0.557373 39.6643 0.711884 39.9393 0.986916C40.2143 1.26195 40.3688 1.63497 40.3688 2.02393C40.3688 3.60194 40.3336 5.10368 40.2691 6.52917C41.4281 6.72109 42.5369 7.14313 43.5301 7.77041C44.5234 8.39768 45.381 9.2175 46.0524 10.1815C46.7237 11.1455 47.1953 12.2342 47.4392 13.3833C47.6831 14.5325 47.6944 15.7188 47.4725 16.8724C47.2506 18.026 46.7999 19.1235 46.1471 20.1002C45.4943 21.0768 44.6525 21.9129 43.6714 22.559C42.6903 23.2052 41.5898 23.6483 40.4347 23.8623C39.2796 24.0763 38.0934 24.0569 36.9459 23.8052C34.6288 29.2754 31.4375 31.9504 28.6364 32.6367V39.0104L32.8161 40.0546C33.3851 40.1953 33.9219 40.4505 34.3912 40.8025L39.7822 44.8473C40.0285 45.0319 40.2104 45.2894 40.3021 45.5832C40.3939 45.877 40.3909 46.1922 40.2936 46.4843C40.1962 46.7763 40.0095 47.0302 39.7598 47.2102C39.5101 47.3902 39.2101 47.487 38.9023 47.487H9.57124C9.26344 47.487 8.96344 47.3902 8.71373 47.2102C8.46403 47.0302 8.27729 46.7763 8.17995 46.4843C8.08261 46.1922 8.07962 45.877 8.1714 45.5832C8.26318 45.2894 8.44507 45.0319 8.69131 44.8473L14.0824 40.8025C14.5517 40.4505 15.0884 40.1953 15.6574 40.0546L19.8371 39.0104V32.6367C17.036 31.9504 13.8448 29.2754 11.5276 23.8022C10.3796 24.0553 9.19243 24.0758 8.03632 23.8625C6.88022 23.6491 5.77858 23.2063 4.79648 22.5601C3.81438 21.9139 2.97172 21.0774 2.31828 20.1001C1.66484 19.1228 1.21386 18.0245 0.991974 16.87C0.770091 15.7155 0.781804 14.5283 1.02642 13.3784C1.27104 12.2285 1.7436 11.1393 2.41619 10.175C3.08879 9.21082 3.94778 8.39116 4.94244 7.76446C5.9371 7.13776 7.04726 6.71673 8.20735 6.52624C8.1383 5.02647 8.10407 3.52529 8.10469 2.02393ZM8.39507 9.47401C6.86453 9.75406 5.50794 10.6306 4.62371 11.9109C3.73948 13.1912 3.40006 14.7703 3.6801 16.3008C3.96015 17.8313 4.83673 19.1879 6.117 20.0722C7.39727 20.9564 8.97637 21.2958 10.5069 21.0158C9.53018 17.936 8.78224 14.1347 8.39507 9.47401ZM37.9696 21.0158C39.5001 21.2958 41.0792 20.9564 42.3595 20.0722C43.6397 19.1879 44.5163 17.8313 44.7964 16.3008C45.0764 14.7703 44.737 13.1912 43.8528 11.9109C42.9685 10.6306 41.6119 9.75406 40.0814 9.47401C39.6913 14.1376 38.9434 17.936 37.9696 21.0158ZM11.0495 3.49048C11.0701 5.00689 11.1258 6.44118 11.2138 7.79921C11.5951 13.7475 12.5542 18.2 13.7656 21.488C16.2998 28.3632 19.7902 29.8884 21.3037 29.8884C21.6926 29.8884 22.0656 30.0429 22.3407 30.318C22.6157 30.593 22.7702 30.966 22.7702 31.355V39.0104C22.7702 39.6642 22.5517 40.2994 22.1494 40.8148C21.7471 41.3303 21.1841 41.6966 20.5499 41.8555L16.3672 42.8997C16.1774 42.9469 15.9988 43.0317 15.8422 43.149L13.9709 44.5539H34.5026L32.6313 43.149C32.4738 43.0314 32.2942 42.9466 32.1034 42.8997L27.9237 41.8555C27.2894 41.6966 26.7264 41.3303 26.3241 40.8148C25.9218 40.2994 25.7033 39.6642 25.7033 39.0104V31.355C25.7033 30.966 25.8578 30.593 26.1329 30.318C26.4079 30.0429 26.7809 29.8884 27.1699 29.8884C28.6834 29.8884 32.1737 28.3632 34.7079 21.488C35.9193 18.2029 36.8784 13.7446 37.2597 7.79921C37.3477 6.44118 37.4035 5.00689 37.424 3.49048H11.0495Z" fill="#242A3D"/>
</g>
<defs>
<clipPath id="clip0_45_944">
<rect x="0.771912" y="0.557373" width="46.9297" height="46.9297" rx="7.65695" fill="white"/>
</clipPath>
</defs>
</svg>
