<svg width="48" height="47" viewBox="0 0 48 47" fill="none" xmlns="http://www.w3.org/2000/svg">
<g clip-path="url(#clip0_45_946)">
<path fill-rule="evenodd" clip-rule="evenodd" d="M24.2814 7.09655L22.1783 4.93485C18.8639 1.52952 12.6663 2.65583 10.4166 7.04669C9.38998 9.05587 9.09373 12.0535 11.1088 16.0279C13.0182 19.8057 17.0073 24.4019 24.2814 29.4527C31.5525 24.3989 35.5415 19.8028 37.4539 16.0279C39.469 12.0535 39.1757 9.05587 38.1461 7.04962C35.8964 2.65583 29.6988 1.52952 26.3844 4.93485L24.2814 7.09655ZM22.8441 32.0279C-8.77474 10.2056 14.0448 -6.55705 23.8971 2.51211C24.0291 2.63237 24.1582 2.75849 24.2843 2.89048C24.4104 2.75849 24.5395 2.63237 24.6715 2.51211C34.5267 -6.55705 57.3374 10.2086 25.7186 32.0279L26.4079 33.4006C26.451 33.4869 26.4767 33.5808 26.4836 33.6771C26.4904 33.7733 26.4782 33.8699 26.4477 33.9614C26.4172 34.0529 26.369 34.1376 26.3058 34.2104C26.2426 34.2833 26.1656 34.343 26.0793 34.3862C25.9931 34.4293 25.8991 34.455 25.8029 34.4619C25.7067 34.4687 25.6101 34.4565 25.5185 34.426C25.427 34.3955 25.3424 34.3473 25.2695 34.2841C25.1967 34.2209 25.137 34.1439 25.0938 34.0576L25.0704 34.0078C25.0938 34.3304 25.129 34.6003 25.1789 34.8584C25.3373 35.6503 25.6511 36.2897 26.4079 37.8003C27.2526 39.4956 27.0971 41.1734 26.6308 42.5783C26.1703 43.9539 25.393 45.1213 24.9061 45.8487L24.8944 45.8693C24.8408 45.9494 24.772 46.0182 24.6919 46.0717C24.6118 46.1252 24.5219 46.1624 24.4274 46.1812C24.3329 46.2 24.2356 46.2 24.1411 46.1812C24.0466 46.1624 23.9567 46.1252 23.8766 46.0716C23.7965 46.0181 23.7277 45.9493 23.6741 45.8692C23.6206 45.7891 23.5834 45.6992 23.5646 45.6047C23.5458 45.5102 23.5458 45.4129 23.5646 45.3184C23.5834 45.2239 23.6207 45.134 23.6742 45.0539C24.167 44.3147 24.8474 43.294 25.2375 42.1119C25.6276 40.9504 25.7156 39.6951 25.0938 38.4573L25.0557 38.3752C24.3517 36.9673 23.9411 36.1519 23.7417 35.1429C23.6595 34.7071 23.6085 34.266 23.5891 33.823L23.4718 34.0576C23.4291 34.1445 23.3697 34.222 23.2969 34.2858C23.2241 34.3496 23.1394 34.3983 23.0477 34.4292C22.956 34.46 22.859 34.4725 22.7625 34.4657C22.666 34.4589 22.5717 34.4331 22.4852 34.3898C22.3987 34.3464 22.3216 34.2864 22.2584 34.2131C22.1952 34.1398 22.1471 34.0547 22.117 33.9628C22.0868 33.8708 22.0751 33.7738 22.0827 33.6773C22.0902 33.5809 22.1167 33.4868 22.1607 33.4006L22.85 32.0279H22.8441ZM18.4533 6.04064C16.5497 5.51268 14.1035 6.28408 13.027 8.38125C12.6428 9.13799 12.3084 10.4022 12.7924 12.2969C12.9772 13.0126 14.0067 12.8777 14.2208 12.1708C14.8368 10.1264 16.0599 7.92662 18.2069 7.20801C18.8434 6.99389 19.0986 6.21955 18.4533 6.04064Z" fill="#242A3D"/>
</g>
<defs>
<clipPath id="clip0_45_946">
<rect x="0.816528" y="-0.00170898" width="46.9297" height="46.9297" rx="7.65695" fill="white"/>
</clipPath>
</defs>
</svg>
