<svg width="48" height="47" viewBox="0 0 48 47" fill="none" xmlns="http://www.w3.org/2000/svg">
<g clip-path="url(#clip0_45_948)">
<path d="M26.8979 0.159096C24.0938 -0.541916 21.4892 1.57872 21.3015 4.3241C21.0903 7.4068 20.6269 10.2372 20.0461 11.9208C19.6795 12.9768 18.6412 14.8921 16.9957 16.7282C15.362 18.5555 13.2355 20.1834 10.7453 20.8639C8.77422 21.4006 6.76505 23.1077 6.76505 25.6008V37.3362C6.76505 39.8147 8.76542 41.6303 11.0122 41.8678C14.1506 42.2022 15.5996 43.0851 17.0778 43.9885L17.2186 44.0765C18.0164 44.5604 18.914 45.0972 20.0637 45.4961C21.2282 45.895 22.5891 46.1326 24.3637 46.1326H34.6295C37.3779 46.1326 39.3196 44.7335 40.3022 43.0118C40.7771 42.1993 41.0337 41.2778 41.0472 40.3368C41.0472 39.8909 40.9797 39.4216 40.8213 38.9758C41.4109 38.2044 41.9359 37.2805 42.2527 36.3331C42.5753 35.3651 42.7572 34.098 42.2644 32.9629C42.4668 32.5816 42.6164 32.1739 42.7308 31.7809C42.9566 30.989 43.0622 30.1149 43.0622 29.2672C43.0622 28.4225 42.9566 27.5514 42.7308 26.7565C42.6282 26.3911 42.4927 26.0357 42.326 25.6947C42.8396 24.964 43.17 24.1205 43.2895 23.2354C43.4089 22.3503 43.3139 21.4494 43.0124 20.6087C42.4081 18.8723 41.012 17.3823 39.4926 16.8778C37.0083 16.0507 34.2042 16.0683 32.1129 16.2589C31.6788 16.298 31.2455 16.3469 30.8136 16.4056C31.8311 12.0481 31.7687 7.50803 30.6317 3.18019C30.4339 2.48678 30.0545 1.85879 29.5326 1.36117C29.0108 0.863552 28.3654 0.514374 27.6634 0.349747L26.8979 0.159096ZM34.6295 43.2024H24.3637C22.8678 43.2024 21.8324 43 21.0199 42.7214C20.1957 42.4369 19.5358 42.0526 18.7438 41.5687L18.6265 41.4983C16.9986 40.5039 15.1127 39.3542 11.3231 38.9523C10.3464 38.8467 9.69815 38.1017 9.69815 37.3391V25.6008C9.69815 24.8558 10.361 24.0082 11.5167 23.6943C14.7284 22.8144 17.3154 20.773 19.1838 18.6846C21.0463 16.6021 22.3046 14.3583 22.815 12.8829C23.5277 10.8297 24.0088 7.69717 24.2288 4.52356C24.3021 3.46177 25.2847 2.78129 26.1851 3.00421L26.9536 3.19779C27.4229 3.31512 27.7103 3.61723 27.7983 3.94573C28.9962 8.50971 28.8485 13.3227 27.373 17.8047C27.2895 18.0539 27.2745 18.3211 27.3297 18.5781C27.3848 18.8352 27.508 19.0727 27.6864 19.2658C27.8648 19.4589 28.0919 19.6004 28.3438 19.6757C28.5957 19.751 28.8631 19.7571 29.1182 19.6936L29.127 19.6906L29.1681 19.6818L29.3382 19.6408C30.3412 19.4278 31.3559 19.274 32.3769 19.1803C34.3216 19.0043 36.6504 19.0219 38.5658 19.6613C39.0791 19.8314 39.8857 20.5412 40.2376 21.5678C40.5515 22.4712 40.4928 23.533 39.4574 24.5655L38.422 25.6008L39.4574 26.6392C39.5835 26.7653 39.7654 27.0527 39.9091 27.5631C40.0499 28.0529 40.1291 28.6483 40.1291 29.2672C40.1291 29.889 40.0499 30.4815 39.9091 30.9743C39.7625 31.4847 39.5835 31.7721 39.4574 31.8982L38.422 32.9336L39.4574 33.9719C39.5953 34.1098 39.7771 34.4911 39.4721 35.4033C39.1542 36.2879 38.649 37.0933 37.9909 37.7644L36.9555 38.7998L37.9909 39.8381C38.0085 39.8528 38.1111 39.9848 38.1111 40.3368C38.0981 40.767 37.976 41.1868 37.7562 41.5569C37.2723 42.4017 36.2809 43.2024 34.6295 43.2024Z" fill="#242A3D"/>
</g>
<defs>
<clipPath id="clip0_45_948">
<rect x="0.898834" y="0.0239258" width="46.9297" height="46.9297" rx="7.65695" fill="white"/>
</clipPath>
</defs>
</svg>
